	.include "MPlayDef.s"

	.equ	mus_th_crazy_backup_dancers_grp, voicegroup000
	.equ	mus_th_crazy_backup_dancers_pri, 0
	.equ	mus_th_crazy_backup_dancers_rev, 0
	.equ	mus_th_crazy_backup_dancers_mvl, 127
	.equ	mus_th_crazy_backup_dancers_key, 0
	.equ	mus_th_crazy_backup_dancers_tbs, 1
	.equ	mus_th_crazy_backup_dancers_exg, 0
	.equ	mus_th_crazy_backup_dancers_cmp, 1

	.section .rodata
	.global	mus_th_crazy_backup_dancers
	.align	2

@**************** Track 1 (Midi-Chn.1) ****************@

mus_th_crazy_backup_dancers_1:
	.byte	KEYSH , mus_th_crazy_backup_dancers_key+0
@ 000   ----------------------------------------
	.byte	TEMPO , 344*mus_th_crazy_backup_dancers_tbs/2
	.byte	W24
	.byte		VOL   , 127*mus_th_crazy_backup_dancers_mvl/mxv
	.byte	W03
	.byte		PAN   , c_v+0
	.byte	W03
	.byte		VOICE , 3
	.byte	W03
	.byte	W03
	.byte	W03
	.byte	W03
	.byte		BEND  , c_v+0
	.byte	W03
	.byte		MOD   , 0
	.byte	W03
	.byte	W03
	.byte	W03
	.byte	W03
	.byte	W03
	.byte	W03
	.byte	W03
	.byte	W03
	.byte	W03
	.byte	W24
@ 001   ----------------------------------------
mus_th_crazy_backup_dancers_1_001:
	.byte		N24   , Cn4 , v120
	.byte	W24
	.byte		        Ds3 
	.byte	W24
	.byte		        Dn3 
	.byte	W24
	.byte		        Bn3 
	.byte	W24
	.byte	PEND
@ 002   ----------------------------------------
mus_th_crazy_backup_dancers_1_002:
	.byte		N24   , As3 , v120
	.byte	W24
	.byte		        Cs3 
	.byte	W24
	.byte		        Cn3 
	.byte	W24
	.byte		        An3 
	.byte	W24
	.byte	PEND
@ 003   ----------------------------------------
mus_th_crazy_backup_dancers_1_003:
	.byte		N24   , Gs3 , v120
	.byte	W24
	.byte		        Bn2 
	.byte	W24
	.byte		        As2 
	.byte	W24
	.byte		        Gn3 
	.byte	W24
	.byte	PEND
@ 004   ----------------------------------------
mus_th_crazy_backup_dancers_1_004:
	.byte		N24   , Fs3 , v120
	.byte	W24
	.byte		        An2 
	.byte	W24
	.byte		        Gs2 
	.byte	W24
	.byte		        Fn3 
	.byte	W24
	.byte	PEND
@ 005   ----------------------------------------
	.byte	PATT
	 .word	mus_th_crazy_backup_dancers_1_001
@ 006   ----------------------------------------
	.byte	PATT
	 .word	mus_th_crazy_backup_dancers_1_002
@ 007   ----------------------------------------
	.byte	PATT
	 .word	mus_th_crazy_backup_dancers_1_003
@ 008   ----------------------------------------
	.byte	PATT
	 .word	mus_th_crazy_backup_dancers_1_004
@ 009   ----------------------------------------
	.byte	PATT
	 .word	mus_th_crazy_backup_dancers_1_001
@ 010   ----------------------------------------
	.byte	PATT
	 .word	mus_th_crazy_backup_dancers_1_002
@ 011   ----------------------------------------
	.byte	PATT
	 .word	mus_th_crazy_backup_dancers_1_003
@ 012   ----------------------------------------
	.byte	PATT
	 .word	mus_th_crazy_backup_dancers_1_004
@ 013   ----------------------------------------
mus_th_crazy_backup_dancers_1_013:
	.byte		N24   , Cn3 , v120
	.byte	W24
	.byte		        En3 
	.byte	W24
	.byte		        Fs3 
	.byte	W24
	.byte		        An3 
	.byte	W24
	.byte	PEND
@ 014   ----------------------------------------
mus_th_crazy_backup_dancers_1_014:
	.byte		N24   , Cn4 , v120
	.byte	W24
	.byte		        En4 
	.byte	W24
	.byte		        Fs4 
	.byte	W24
	.byte		        An4 
	.byte	W24
	.byte	PEND
@ 015   ----------------------------------------
	.byte		TIE   , Bn4 
	.byte	W96
@ 016   ----------------------------------------
	.byte	W78
	.byte		EOT   
	.byte		N06   , Gs4 
	.byte	W06
	.byte		        An4 
	.byte	W06
	.byte		        As4 
	.byte	W06
@ 017   ----------------------------------------
	.byte		TIE   , Bn4 
	.byte	W96
@ 018   ----------------------------------------
	.byte	W96
@ 019   ----------------------------------------
	.byte	W96
@ 020   ----------------------------------------
	.byte	W96
	.byte		EOT   
mus_th_crazy_backup_dancers_1_B1:
@ 021   ----------------------------------------
mus_th_crazy_backup_dancers_1_021:
	.byte		N24   , En3 , v120
	.byte	W24
	.byte		        Bn3 
	.byte	W24
	.byte		        As3 
	.byte	W24
	.byte		        Bn3 
	.byte	W24
	.byte	PEND
@ 022   ----------------------------------------
mus_th_crazy_backup_dancers_1_022:
	.byte		N24   , En4 , v120
	.byte	W24
	.byte		        Bn3 
	.byte	W24
	.byte		        As3 
	.byte	W24
	.byte		        Gn3 
	.byte	W24
	.byte	PEND
@ 023   ----------------------------------------
mus_th_crazy_backup_dancers_1_023:
	.byte		N24   , An3 , v120
	.byte	W24
	.byte		        Gn3 
	.byte	W24
	.byte		        Fs3 
	.byte	W24
	.byte		        Gn3 
	.byte	W24
	.byte	PEND
@ 024   ----------------------------------------
mus_th_crazy_backup_dancers_1_024:
	.byte		N24   , Fs3 , v120
	.byte	W24
	.byte		        Dn3 
	.byte	W24
	.byte		N48   , Bn2 
	.byte	W48
	.byte	PEND
@ 025   ----------------------------------------
	.byte	PATT
	 .word	mus_th_crazy_backup_dancers_1_021
@ 026   ----------------------------------------
mus_th_crazy_backup_dancers_1_026:
	.byte		N24   , En4 , v120
	.byte	W24
	.byte		        Bn3 
	.byte	W24
	.byte		        As3 
	.byte	W24
	.byte		        Fs4 
	.byte	W24
	.byte	PEND
@ 027   ----------------------------------------
mus_th_crazy_backup_dancers_1_027:
	.byte		N24   , Gn4 , v120
	.byte	W24
	.byte		        Fs4 
	.byte	W24
	.byte		        Dn4 
	.byte	W24
	.byte		        En4 
	.byte	W24
	.byte	PEND
@ 028   ----------------------------------------
mus_th_crazy_backup_dancers_1_028:
	.byte		N24   , Bn3 , v120
	.byte	W24
	.byte		        Ds4 
	.byte	W24
	.byte		N48   , En4 
	.byte	W48
	.byte	PEND
@ 029   ----------------------------------------
	.byte	PATT
	 .word	mus_th_crazy_backup_dancers_1_021
@ 030   ----------------------------------------
	.byte	PATT
	 .word	mus_th_crazy_backup_dancers_1_022
@ 031   ----------------------------------------
	.byte	PATT
	 .word	mus_th_crazy_backup_dancers_1_023
@ 032   ----------------------------------------
	.byte	PATT
	 .word	mus_th_crazy_backup_dancers_1_024
@ 033   ----------------------------------------
	.byte	PATT
	 .word	mus_th_crazy_backup_dancers_1_021
@ 034   ----------------------------------------
	.byte	PATT
	 .word	mus_th_crazy_backup_dancers_1_026
@ 035   ----------------------------------------
	.byte	PATT
	 .word	mus_th_crazy_backup_dancers_1_027
@ 036   ----------------------------------------
	.byte	PATT
	 .word	mus_th_crazy_backup_dancers_1_028
@ 037   ----------------------------------------
	.byte	W96
@ 038   ----------------------------------------
	.byte	W96
@ 039   ----------------------------------------
	.byte	W96
@ 040   ----------------------------------------
	.byte	W96
@ 041   ----------------------------------------
	.byte	W96
@ 042   ----------------------------------------
	.byte	W96
@ 043   ----------------------------------------
	.byte	W96
@ 044   ----------------------------------------
	.byte	W96
@ 045   ----------------------------------------
	.byte	W96
@ 046   ----------------------------------------
	.byte	W96
@ 047   ----------------------------------------
	.byte	W96
@ 048   ----------------------------------------
	.byte	W96
@ 049   ----------------------------------------
	.byte	W96
@ 050   ----------------------------------------
	.byte	W96
@ 051   ----------------------------------------
	.byte	W96
@ 052   ----------------------------------------
	.byte	W96
@ 053   ----------------------------------------
	.byte	W96
@ 054   ----------------------------------------
	.byte	W96
@ 055   ----------------------------------------
	.byte	W96
@ 056   ----------------------------------------
	.byte	W96
@ 057   ----------------------------------------
	.byte	W96
@ 058   ----------------------------------------
	.byte	W96
@ 059   ----------------------------------------
	.byte	W96
@ 060   ----------------------------------------
	.byte	W96
@ 061   ----------------------------------------
	.byte	W96
@ 062   ----------------------------------------
	.byte	W96
@ 063   ----------------------------------------
	.byte	W96
@ 064   ----------------------------------------
	.byte	W96
@ 065   ----------------------------------------
	.byte	W96
@ 066   ----------------------------------------
	.byte	W96
@ 067   ----------------------------------------
	.byte	W96
@ 068   ----------------------------------------
	.byte	W96
@ 069   ----------------------------------------
	.byte	W96
@ 070   ----------------------------------------
	.byte	W96
@ 071   ----------------------------------------
	.byte	W96
@ 072   ----------------------------------------
	.byte	W96
@ 073   ----------------------------------------
	.byte	W96
@ 074   ----------------------------------------
	.byte	W96
@ 075   ----------------------------------------
	.byte	W96
@ 076   ----------------------------------------
	.byte	W96
@ 077   ----------------------------------------
	.byte	W96
@ 078   ----------------------------------------
	.byte	W96
@ 079   ----------------------------------------
	.byte	W96
@ 080   ----------------------------------------
	.byte	W96
@ 081   ----------------------------------------
	.byte	W96
@ 082   ----------------------------------------
	.byte	W96
@ 083   ----------------------------------------
	.byte	W96
@ 084   ----------------------------------------
	.byte	W96
@ 085   ----------------------------------------
	.byte	PATT
	 .word	mus_th_crazy_backup_dancers_1_001
@ 086   ----------------------------------------
	.byte	PATT
	 .word	mus_th_crazy_backup_dancers_1_002
@ 087   ----------------------------------------
	.byte	PATT
	 .word	mus_th_crazy_backup_dancers_1_003
@ 088   ----------------------------------------
	.byte	PATT
	 .word	mus_th_crazy_backup_dancers_1_004
@ 089   ----------------------------------------
	.byte	PATT
	 .word	mus_th_crazy_backup_dancers_1_001
@ 090   ----------------------------------------
	.byte	PATT
	 .word	mus_th_crazy_backup_dancers_1_002
@ 091   ----------------------------------------
	.byte	PATT
	 .word	mus_th_crazy_backup_dancers_1_003
@ 092   ----------------------------------------
	.byte	PATT
	 .word	mus_th_crazy_backup_dancers_1_004
@ 093   ----------------------------------------
	.byte	PATT
	 .word	mus_th_crazy_backup_dancers_1_001
@ 094   ----------------------------------------
	.byte	PATT
	 .word	mus_th_crazy_backup_dancers_1_002
@ 095   ----------------------------------------
	.byte	PATT
	 .word	mus_th_crazy_backup_dancers_1_003
@ 096   ----------------------------------------
	.byte	PATT
	 .word	mus_th_crazy_backup_dancers_1_004
@ 097   ----------------------------------------
	.byte	PATT
	 .word	mus_th_crazy_backup_dancers_1_013
@ 098   ----------------------------------------
	.byte	PATT
	 .word	mus_th_crazy_backup_dancers_1_014
@ 099   ----------------------------------------
	.byte		TIE   , Bn4 , v120
	.byte	W96
@ 100   ----------------------------------------
	.byte	W78
	.byte		EOT   
	.byte		N06   , Gs4 
	.byte	W06
	.byte		        An4 
	.byte	W06
	.byte		        As4 
	.byte	W06
@ 101   ----------------------------------------
	.byte		TIE   , Bn4 
	.byte	W96
@ 102   ----------------------------------------
	.byte	W96
@ 103   ----------------------------------------
	.byte	W96
@ 104   ----------------------------------------
	.byte	W96
	.byte		EOT   
@ 105   ----------------------------------------
	.byte	PATT
	 .word	mus_th_crazy_backup_dancers_1_021
@ 106   ----------------------------------------
	.byte	PATT
	 .word	mus_th_crazy_backup_dancers_1_022
@ 107   ----------------------------------------
	.byte	PATT
	 .word	mus_th_crazy_backup_dancers_1_023
@ 108   ----------------------------------------
	.byte	PATT
	 .word	mus_th_crazy_backup_dancers_1_024
@ 109   ----------------------------------------
	.byte	PATT
	 .word	mus_th_crazy_backup_dancers_1_021
@ 110   ----------------------------------------
	.byte	PATT
	 .word	mus_th_crazy_backup_dancers_1_026
@ 111   ----------------------------------------
	.byte	PATT
	 .word	mus_th_crazy_backup_dancers_1_027
@ 112   ----------------------------------------
	.byte	PATT
	 .word	mus_th_crazy_backup_dancers_1_028
@ 113   ----------------------------------------
	.byte	PATT
	 .word	mus_th_crazy_backup_dancers_1_021
@ 114   ----------------------------------------
	.byte	PATT
	 .word	mus_th_crazy_backup_dancers_1_022
@ 115   ----------------------------------------
	.byte	PATT
	 .word	mus_th_crazy_backup_dancers_1_023
@ 116   ----------------------------------------
	.byte	PATT
	 .word	mus_th_crazy_backup_dancers_1_024
@ 117   ----------------------------------------
	.byte	PATT
	 .word	mus_th_crazy_backup_dancers_1_021
@ 118   ----------------------------------------
	.byte	PATT
	 .word	mus_th_crazy_backup_dancers_1_026
@ 119   ----------------------------------------
	.byte	PATT
	 .word	mus_th_crazy_backup_dancers_1_027
@ 120   ----------------------------------------
	.byte	PATT
	 .word	mus_th_crazy_backup_dancers_1_028
@ 121   ----------------------------------------
mus_th_crazy_backup_dancers_1_121:
	.byte		N24   , Fn3 , v120
	.byte	W24
	.byte		        Cn4 
	.byte	W24
	.byte		        Bn3 
	.byte	W24
	.byte		        Cn4 
	.byte	W24
	.byte	PEND
@ 122   ----------------------------------------
mus_th_crazy_backup_dancers_1_122:
	.byte		N24   , Fn4 , v120
	.byte	W24
	.byte		        Cn4 
	.byte	W24
	.byte		        Bn3 
	.byte	W24
	.byte		        Gs3 
	.byte	W24
	.byte	PEND
@ 123   ----------------------------------------
mus_th_crazy_backup_dancers_1_123:
	.byte		N24   , As3 , v120
	.byte	W24
	.byte		        Gs3 
	.byte	W24
	.byte		        Gn3 
	.byte	W24
	.byte		        Gs3 
	.byte	W24
	.byte	PEND
@ 124   ----------------------------------------
mus_th_crazy_backup_dancers_1_124:
	.byte		N24   , Gn3 , v120
	.byte	W24
	.byte		        Ds3 
	.byte	W24
	.byte		N48   , Cn3 
	.byte	W48
	.byte	PEND
@ 125   ----------------------------------------
	.byte	PATT
	 .word	mus_th_crazy_backup_dancers_1_121
@ 126   ----------------------------------------
mus_th_crazy_backup_dancers_1_126:
	.byte		N24   , Fn4 , v120
	.byte	W24
	.byte		        Cn4 
	.byte	W24
	.byte		        Bn3 
	.byte	W24
	.byte		        Gn4 
	.byte	W24
	.byte	PEND
@ 127   ----------------------------------------
mus_th_crazy_backup_dancers_1_127:
	.byte		N24   , Gs4 , v120
	.byte	W24
	.byte		        Gn4 
	.byte	W24
	.byte		        Ds4 
	.byte	W24
	.byte		        Fn4 
	.byte	W24
	.byte	PEND
@ 128   ----------------------------------------
mus_th_crazy_backup_dancers_1_128:
	.byte		N24   , Cn4 , v120
	.byte	W24
	.byte		        En4 
	.byte	W24
	.byte		N48   , Fn4 
	.byte	W48
	.byte	PEND
@ 129   ----------------------------------------
	.byte	PATT
	 .word	mus_th_crazy_backup_dancers_1_121
@ 130   ----------------------------------------
	.byte	PATT
	 .word	mus_th_crazy_backup_dancers_1_122
@ 131   ----------------------------------------
	.byte	PATT
	 .word	mus_th_crazy_backup_dancers_1_123
@ 132   ----------------------------------------
	.byte	PATT
	 .word	mus_th_crazy_backup_dancers_1_124
@ 133   ----------------------------------------
	.byte	PATT
	 .word	mus_th_crazy_backup_dancers_1_121
@ 134   ----------------------------------------
	.byte	PATT
	 .word	mus_th_crazy_backup_dancers_1_126
@ 135   ----------------------------------------
	.byte	PATT
	 .word	mus_th_crazy_backup_dancers_1_127
@ 136   ----------------------------------------
	.byte	PATT
	 .word	mus_th_crazy_backup_dancers_1_128
@ 137   ----------------------------------------
	.byte	W96
@ 138   ----------------------------------------
	.byte	W96
@ 139   ----------------------------------------
	.byte	W96
@ 140   ----------------------------------------
	.byte	W96
@ 141   ----------------------------------------
	.byte	W96
@ 142   ----------------------------------------
	.byte	W96
@ 143   ----------------------------------------
	.byte	W96
@ 144   ----------------------------------------
	.byte	W96
@ 145   ----------------------------------------
	.byte	W96
@ 146   ----------------------------------------
	.byte	W96
@ 147   ----------------------------------------
	.byte	W96
@ 148   ----------------------------------------
	.byte	W96
@ 149   ----------------------------------------
	.byte	W96
@ 150   ----------------------------------------
	.byte	W96
@ 151   ----------------------------------------
	.byte	W96
@ 152   ----------------------------------------
	.byte	W96
@ 153   ----------------------------------------
	.byte	W96
@ 154   ----------------------------------------
	.byte	W96
@ 155   ----------------------------------------
	.byte	W96
@ 156   ----------------------------------------
	.byte	W96
@ 157   ----------------------------------------
	.byte	W96
@ 158   ----------------------------------------
	.byte	W96
@ 159   ----------------------------------------
	.byte	W96
@ 160   ----------------------------------------
	.byte	W96
@ 161   ----------------------------------------
	.byte	W96
@ 162   ----------------------------------------
	.byte	W96
@ 163   ----------------------------------------
	.byte	W96
@ 164   ----------------------------------------
	.byte	W96
@ 165   ----------------------------------------
	.byte	W96
@ 166   ----------------------------------------
	.byte	W96
@ 167   ----------------------------------------
	.byte	W96
@ 168   ----------------------------------------
	.byte	W96
	.byte	GOTO
	 .word	mus_th_crazy_backup_dancers_1_B1
mus_th_crazy_backup_dancers_1_B2:
@ 169   ----------------------------------------
	.byte	W96
@ 170   ----------------------------------------
	.byte	W96
@ 171   ----------------------------------------
	.byte	W96
@ 172   ----------------------------------------
	.byte	W96
@ 173   ----------------------------------------
	.byte	W96
@ 174   ----------------------------------------
	.byte	W96
@ 175   ----------------------------------------
	.byte	W96
@ 176   ----------------------------------------
	.byte	W96
@ 177   ----------------------------------------
	.byte	W96
@ 178   ----------------------------------------
	.byte	W96
@ 179   ----------------------------------------
	.byte	W96
@ 180   ----------------------------------------
	.byte	W96
@ 181   ----------------------------------------
	.byte	W96
@ 182   ----------------------------------------
	.byte	W96
@ 183   ----------------------------------------
	.byte	W96
@ 184   ----------------------------------------
	.byte	W96
@ 185   ----------------------------------------
	.byte	W96
@ 186   ----------------------------------------
	.byte	W96
@ 187   ----------------------------------------
	.byte	W96
@ 188   ----------------------------------------
	.byte	W96
@ 189   ----------------------------------------
	.byte		N24   , En3 , v120
	.byte	W02
	.byte	W04
	.byte	W05
	.byte	W07
	.byte	W05
	.byte	W01
	.byte		        Bn3 
	.byte	W06
	.byte	W05
	.byte	W07
	.byte	W05
	.byte	W01
	.byte		        As3 
	.byte	W06
	.byte	W08
	.byte	W04
	.byte	W06
	.byte		        Bn3 
	.byte	W02
	.byte	W04
	.byte	W08
	.byte	W04
	.byte	W06
@ 190   ----------------------------------------
	.byte		        En4 
	.byte	W02
	.byte	W04
	.byte	W08
	.byte	W04
	.byte	W06
	.byte		        Bn3 
	.byte	W02
	.byte	W04
	.byte	W08
	.byte	W07
	.byte	W03
	.byte		        As3 
	.byte	W02
	.byte	W07
	.byte	W05
	.byte	W07
	.byte	W03
	.byte		        Gn3 
	.byte	W02
	.byte	W07
	.byte	W05
	.byte	W07
	.byte	W03
@ 191   ----------------------------------------
	.byte		        An3 
	.byte	W02
	.byte	W07
	.byte	W05
	.byte	W07
	.byte	W03
	.byte		        Gn3 
	.byte	W02
	.byte	W07
	.byte	W07
	.byte	W05
	.byte	W03
	.byte		        Fs3 
	.byte	W04
	.byte	W05
	.byte	W07
	.byte	W05
	.byte	W03
	.byte		        Gn3 
	.byte	W04
	.byte	W05
	.byte	W07
	.byte	W05
	.byte	W03
@ 192   ----------------------------------------
	.byte		        Fs3 
	.byte	W04
	.byte	W05
	.byte	W07
	.byte	W07
	.byte	W01
	.byte		        Dn3 
	.byte	W04
	.byte	W07
	.byte	W05
	.byte	W07
	.byte	W01
	.byte		N48   , Bn2 
	.byte	W04
	.byte	W07
	.byte	W05
	.byte	W07
	.byte	W05
	.byte	W07
	.byte	W05
	.byte	W07
	.byte	W01
@ 193   ----------------------------------------
	.byte		N24   , En3 
	.byte	W06
	.byte	W05
	.byte	W07
	.byte	W05
	.byte	W01
	.byte		        Bn3 
	.byte	W06
	.byte	W05
	.byte	W07
	.byte	W05
	.byte	W01
	.byte		        As3 
	.byte	W06
	.byte	W05
	.byte	W07
	.byte	W05
	.byte	W01
	.byte		        Bn3 
	.byte	W06
	.byte	W08
	.byte	W04
	.byte	W06
@ 194   ----------------------------------------
	.byte		        En4 
	.byte	W02
	.byte	W04
	.byte	W08
	.byte	W04
	.byte	W06
	.byte		        Bn3 
	.byte	W02
	.byte	W04
	.byte	W08
	.byte	W04
	.byte	W06
	.byte		        As3 
	.byte	W02
	.byte	W04
	.byte	W08
	.byte	W04
	.byte	W06
	.byte		        Fs4 
	.byte	W02
	.byte	W07
	.byte	W05
	.byte	W07
	.byte	W03
@ 195   ----------------------------------------
	.byte		        Gn4 
	.byte	W02
	.byte	W07
	.byte	W05
	.byte	W07
	.byte	W03
	.byte		        Fs4 
	.byte	W02
	.byte	W07
	.byte	W05
	.byte	W07
	.byte	W03
	.byte		        Dn4 
	.byte	W02
	.byte	W07
	.byte	W07
	.byte	W05
	.byte	W03
	.byte		        En4 
	.byte	W04
	.byte	W05
	.byte	W07
	.byte	W05
	.byte	W03
@ 196   ----------------------------------------
	.byte		        Bn3 
	.byte	W04
	.byte	W05
	.byte	W07
	.byte	W05
	.byte	W03
	.byte		        Ds4 
	.byte	W04
	.byte	W05
	.byte	W07
	.byte	W07
	.byte	W01
	.byte		N48   , En4 
	.byte	W04
	.byte	W07
	.byte	W05
	.byte	W07
	.byte	W05
	.byte	W07
	.byte	W05
	.byte	W07
	.byte	W01
@ 197   ----------------------------------------
	.byte	W48
	.byte	W01
	.byte	FINE

@**************** Track 2 (Midi-Chn.2) ****************@

mus_th_crazy_backup_dancers_2:
	.byte	KEYSH , mus_th_crazy_backup_dancers_key+0
@ 000   ----------------------------------------
	.byte	W24
	.byte		VOL   , 127*mus_th_crazy_backup_dancers_mvl/mxv
	.byte	W03
	.byte		PAN   , c_v+0
	.byte	W03
	.byte		VOICE , 4
	.byte	W03
	.byte	W03
	.byte	W03
	.byte	W03
	.byte		BEND  , c_v+0
	.byte	W03
	.byte		MOD   , 0
	.byte	W03
	.byte	W03
	.byte	W03
	.byte	W03
	.byte	W03
	.byte	W03
	.byte	W03
	.byte	W03
	.byte	W03
	.byte	W24
@ 001   ----------------------------------------
	.byte	W96
@ 002   ----------------------------------------
	.byte	W96
@ 003   ----------------------------------------
	.byte	W96
@ 004   ----------------------------------------
	.byte	W96
@ 005   ----------------------------------------
	.byte	W96
@ 006   ----------------------------------------
	.byte	W96
@ 007   ----------------------------------------
	.byte	W96
@ 008   ----------------------------------------
	.byte	W96
@ 009   ----------------------------------------
mus_th_crazy_backup_dancers_2_009:
	.byte		N24   , Cn5 , v100
	.byte	W24
	.byte		        Ds4 
	.byte	W24
	.byte		        Dn4 
	.byte	W24
	.byte		        Bn4 
	.byte	W24
	.byte	PEND
@ 010   ----------------------------------------
mus_th_crazy_backup_dancers_2_010:
	.byte		N24   , As4 , v100
	.byte	W24
	.byte		        Cs4 
	.byte	W24
	.byte		        Cn4 
	.byte	W24
	.byte		        An4 
	.byte	W24
	.byte	PEND
@ 011   ----------------------------------------
mus_th_crazy_backup_dancers_2_011:
	.byte		N24   , Gs4 , v100
	.byte	W24
	.byte		        Bn3 
	.byte	W24
	.byte		        As3 
	.byte	W24
	.byte		        Gn4 
	.byte	W24
	.byte	PEND
@ 012   ----------------------------------------
mus_th_crazy_backup_dancers_2_012:
	.byte		N24   , Fs4 , v100
	.byte	W24
	.byte		        An3 
	.byte	W24
	.byte		        Gs3 
	.byte	W24
	.byte		        Fn4 
	.byte	W24
	.byte	PEND
@ 013   ----------------------------------------
	.byte	W96
@ 014   ----------------------------------------
	.byte	W96
@ 015   ----------------------------------------
	.byte	W96
@ 016   ----------------------------------------
	.byte	W96
@ 017   ----------------------------------------
	.byte	W96
@ 018   ----------------------------------------
	.byte	W96
@ 019   ----------------------------------------
	.byte	W96
@ 020   ----------------------------------------
	.byte	W96
mus_th_crazy_backup_dancers_2_B1:
@ 021   ----------------------------------------
	.byte	W96
@ 022   ----------------------------------------
	.byte	W96
@ 023   ----------------------------------------
	.byte	W96
@ 024   ----------------------------------------
	.byte	W96
@ 025   ----------------------------------------
	.byte	W96
@ 026   ----------------------------------------
	.byte	W96
@ 027   ----------------------------------------
	.byte	W96
@ 028   ----------------------------------------
	.byte	W96
@ 029   ----------------------------------------
	.byte	W96
@ 030   ----------------------------------------
	.byte	W96
@ 031   ----------------------------------------
	.byte	W96
@ 032   ----------------------------------------
	.byte	W96
@ 033   ----------------------------------------
	.byte	W96
@ 034   ----------------------------------------
	.byte	W96
@ 035   ----------------------------------------
	.byte	W96
@ 036   ----------------------------------------
	.byte	W96
@ 037   ----------------------------------------
	.byte	W96
@ 038   ----------------------------------------
	.byte	W96
@ 039   ----------------------------------------
	.byte	W96
@ 040   ----------------------------------------
	.byte	W96
@ 041   ----------------------------------------
	.byte	W96
@ 042   ----------------------------------------
	.byte	W96
@ 043   ----------------------------------------
	.byte	W96
@ 044   ----------------------------------------
	.byte	W96
@ 045   ----------------------------------------
	.byte	W96
@ 046   ----------------------------------------
	.byte	W96
@ 047   ----------------------------------------
	.byte	W96
@ 048   ----------------------------------------
	.byte	W96
@ 049   ----------------------------------------
	.byte	W96
@ 050   ----------------------------------------
	.byte	W96
@ 051   ----------------------------------------
	.byte	W96
@ 052   ----------------------------------------
	.byte	W96
@ 053   ----------------------------------------
	.byte	W96
@ 054   ----------------------------------------
	.byte	W96
@ 055   ----------------------------------------
	.byte	W96
@ 056   ----------------------------------------
	.byte	W96
@ 057   ----------------------------------------
	.byte	W96
@ 058   ----------------------------------------
	.byte	W96
@ 059   ----------------------------------------
	.byte	W96
@ 060   ----------------------------------------
	.byte	W96
@ 061   ----------------------------------------
	.byte	W96
@ 062   ----------------------------------------
	.byte	W96
@ 063   ----------------------------------------
	.byte	W96
@ 064   ----------------------------------------
	.byte	W96
@ 065   ----------------------------------------
	.byte	W96
@ 066   ----------------------------------------
	.byte	W96
@ 067   ----------------------------------------
	.byte	W96
@ 068   ----------------------------------------
	.byte	W96
@ 069   ----------------------------------------
	.byte	W96
@ 070   ----------------------------------------
	.byte	W96
@ 071   ----------------------------------------
	.byte	W96
@ 072   ----------------------------------------
	.byte	W96
@ 073   ----------------------------------------
	.byte	W96
@ 074   ----------------------------------------
	.byte	W96
@ 075   ----------------------------------------
	.byte	W96
@ 076   ----------------------------------------
	.byte	W96
@ 077   ----------------------------------------
	.byte	W96
@ 078   ----------------------------------------
	.byte	W96
@ 079   ----------------------------------------
	.byte	W96
@ 080   ----------------------------------------
	.byte	W96
@ 081   ----------------------------------------
	.byte	W96
@ 082   ----------------------------------------
	.byte	W96
@ 083   ----------------------------------------
	.byte	W96
@ 084   ----------------------------------------
	.byte	W96
@ 085   ----------------------------------------
	.byte	W96
@ 086   ----------------------------------------
	.byte	W96
@ 087   ----------------------------------------
	.byte	W96
@ 088   ----------------------------------------
	.byte	W96
@ 089   ----------------------------------------
	.byte	W96
@ 090   ----------------------------------------
	.byte	W96
@ 091   ----------------------------------------
	.byte	W96
@ 092   ----------------------------------------
	.byte	W96
@ 093   ----------------------------------------
	.byte	PATT
	 .word	mus_th_crazy_backup_dancers_2_009
@ 094   ----------------------------------------
	.byte	PATT
	 .word	mus_th_crazy_backup_dancers_2_010
@ 095   ----------------------------------------
	.byte	PATT
	 .word	mus_th_crazy_backup_dancers_2_011
@ 096   ----------------------------------------
	.byte	PATT
	 .word	mus_th_crazy_backup_dancers_2_012
@ 097   ----------------------------------------
	.byte	W96
@ 098   ----------------------------------------
	.byte	W96
@ 099   ----------------------------------------
	.byte	W96
@ 100   ----------------------------------------
	.byte	W96
@ 101   ----------------------------------------
	.byte	W96
@ 102   ----------------------------------------
	.byte	W96
@ 103   ----------------------------------------
	.byte	W96
@ 104   ----------------------------------------
	.byte	W96
@ 105   ----------------------------------------
	.byte	W96
@ 106   ----------------------------------------
	.byte	W96
@ 107   ----------------------------------------
	.byte	W96
@ 108   ----------------------------------------
	.byte	W96
@ 109   ----------------------------------------
	.byte	W96
@ 110   ----------------------------------------
	.byte	W96
@ 111   ----------------------------------------
	.byte	W96
@ 112   ----------------------------------------
	.byte	W96
@ 113   ----------------------------------------
	.byte	W96
@ 114   ----------------------------------------
	.byte	W96
@ 115   ----------------------------------------
	.byte	W96
@ 116   ----------------------------------------
	.byte	W96
@ 117   ----------------------------------------
	.byte	W96
@ 118   ----------------------------------------
	.byte	W96
@ 119   ----------------------------------------
	.byte	W96
@ 120   ----------------------------------------
	.byte	W96
@ 121   ----------------------------------------
	.byte	W96
@ 122   ----------------------------------------
	.byte	W96
@ 123   ----------------------------------------
	.byte	W96
@ 124   ----------------------------------------
	.byte	W96
@ 125   ----------------------------------------
	.byte	W96
@ 126   ----------------------------------------
	.byte	W96
@ 127   ----------------------------------------
	.byte	W96
@ 128   ----------------------------------------
	.byte	W96
@ 129   ----------------------------------------
	.byte	W96
@ 130   ----------------------------------------
	.byte	W96
@ 131   ----------------------------------------
	.byte	W96
@ 132   ----------------------------------------
	.byte	W96
@ 133   ----------------------------------------
	.byte	W96
@ 134   ----------------------------------------
	.byte	W96
@ 135   ----------------------------------------
	.byte	W96
@ 136   ----------------------------------------
	.byte	W96
@ 137   ----------------------------------------
	.byte	W96
@ 138   ----------------------------------------
	.byte	W96
@ 139   ----------------------------------------
	.byte	W96
@ 140   ----------------------------------------
	.byte	W96
@ 141   ----------------------------------------
	.byte	W96
@ 142   ----------------------------------------
	.byte	W96
@ 143   ----------------------------------------
	.byte	W96
@ 144   ----------------------------------------
	.byte	W96
@ 145   ----------------------------------------
	.byte	W96
@ 146   ----------------------------------------
	.byte	W96
@ 147   ----------------------------------------
	.byte	W96
@ 148   ----------------------------------------
	.byte	W96
@ 149   ----------------------------------------
	.byte	W96
@ 150   ----------------------------------------
	.byte	W96
@ 151   ----------------------------------------
	.byte	W96
@ 152   ----------------------------------------
	.byte	W96
@ 153   ----------------------------------------
	.byte	W96
@ 154   ----------------------------------------
	.byte	W96
@ 155   ----------------------------------------
	.byte	W96
@ 156   ----------------------------------------
	.byte	W96
@ 157   ----------------------------------------
	.byte	W96
@ 158   ----------------------------------------
	.byte	W96
@ 159   ----------------------------------------
	.byte	W96
@ 160   ----------------------------------------
	.byte	W96
@ 161   ----------------------------------------
	.byte	W96
@ 162   ----------------------------------------
	.byte	W96
@ 163   ----------------------------------------
	.byte	W96
@ 164   ----------------------------------------
	.byte	W96
@ 165   ----------------------------------------
	.byte	W96
@ 166   ----------------------------------------
	.byte	W96
@ 167   ----------------------------------------
	.byte	W96
@ 168   ----------------------------------------
	.byte	W96
	.byte	GOTO
	 .word	mus_th_crazy_backup_dancers_2_B1
mus_th_crazy_backup_dancers_2_B2:
@ 169   ----------------------------------------
	.byte	W96
@ 170   ----------------------------------------
	.byte	W96
@ 171   ----------------------------------------
	.byte	W96
@ 172   ----------------------------------------
	.byte	W96
@ 173   ----------------------------------------
	.byte	W96
@ 174   ----------------------------------------
	.byte	W96
@ 175   ----------------------------------------
	.byte	W96
@ 176   ----------------------------------------
	.byte	W96
@ 177   ----------------------------------------
	.byte	PATT
	 .word	mus_th_crazy_backup_dancers_2_009
@ 178   ----------------------------------------
	.byte	PATT
	 .word	mus_th_crazy_backup_dancers_2_010
@ 179   ----------------------------------------
	.byte	PATT
	 .word	mus_th_crazy_backup_dancers_2_011
@ 180   ----------------------------------------
	.byte	PATT
	 .word	mus_th_crazy_backup_dancers_2_012
@ 181   ----------------------------------------
	.byte	FINE

@**************** Track 3 (Midi-Chn.3) ****************@

mus_th_crazy_backup_dancers_3:
	.byte	KEYSH , mus_th_crazy_backup_dancers_key+0
@ 000   ----------------------------------------
	.byte	W24
	.byte		VOL   , 127*mus_th_crazy_backup_dancers_mvl/mxv
	.byte	W03
	.byte		PAN   , c_v+0
	.byte	W03
	.byte		VOICE , 0
	.byte	W03
	.byte	W03
	.byte	W03
	.byte	W03
	.byte		BEND  , c_v+0
	.byte	W03
	.byte		MOD   , 0
	.byte	W03
	.byte	W03
	.byte	W03
	.byte	W03
	.byte	W03
	.byte	W03
	.byte	W03
	.byte	W03
	.byte	W03
	.byte	W24
@ 001   ----------------------------------------
	.byte	W96
@ 002   ----------------------------------------
	.byte	W96
@ 003   ----------------------------------------
	.byte	W96
@ 004   ----------------------------------------
	.byte	W96
@ 005   ----------------------------------------
	.byte	W96
@ 006   ----------------------------------------
	.byte	W96
@ 007   ----------------------------------------
	.byte	W96
@ 008   ----------------------------------------
	.byte	W96
@ 009   ----------------------------------------
	.byte	W96
@ 010   ----------------------------------------
	.byte	W96
@ 011   ----------------------------------------
	.byte	W96
@ 012   ----------------------------------------
	.byte	W96
@ 013   ----------------------------------------
	.byte	W96
@ 014   ----------------------------------------
	.byte	W96
@ 015   ----------------------------------------
	.byte	W96
@ 016   ----------------------------------------
	.byte	W96
@ 017   ----------------------------------------
mus_th_crazy_backup_dancers_3_017:
	.byte	W24
	.byte		N12   , An3 , v120
	.byte	W12
	.byte		        Fs3 
	.byte	W12
	.byte		        En4 
	.byte	W12
	.byte		N12   
	.byte	W12
	.byte		        Bn3 
	.byte	W12
	.byte		        An3 
	.byte	W12
	.byte	PEND
@ 018   ----------------------------------------
mus_th_crazy_backup_dancers_3_018:
	.byte		N12   , An4 , v120
	.byte	W12
	.byte		        Gn4 
	.byte	W12
	.byte		        Dn4 
	.byte	W12
	.byte		        Gn4 
	.byte	W12
	.byte		        Fs4 
	.byte	W12
	.byte		        Dn4 
	.byte	W12
	.byte		        An3 
	.byte	W12
	.byte		        Fs3 
	.byte	W12
	.byte	PEND
@ 019   ----------------------------------------
mus_th_crazy_backup_dancers_3_019:
	.byte		N12   , En3 , v120
	.byte	W12
	.byte		        Bn3 
	.byte	W12
	.byte		        As3 
	.byte	W12
	.byte		        Fs3 
	.byte	W12
	.byte		        En3 
	.byte	W12
	.byte		        En4 
	.byte	W12
	.byte		        Bn3 
	.byte	W12
	.byte		        An3 
	.byte	W12
	.byte	PEND
@ 020   ----------------------------------------
	.byte	PATT
	 .word	mus_th_crazy_backup_dancers_3_018
mus_th_crazy_backup_dancers_3_B1:
@ 021   ----------------------------------------
	.byte	W96
@ 022   ----------------------------------------
	.byte	W96
@ 023   ----------------------------------------
	.byte	W96
@ 024   ----------------------------------------
	.byte	W96
@ 025   ----------------------------------------
	.byte	W96
@ 026   ----------------------------------------
	.byte	W96
@ 027   ----------------------------------------
	.byte	W96
@ 028   ----------------------------------------
	.byte	W96
@ 029   ----------------------------------------
	.byte	W96
@ 030   ----------------------------------------
	.byte	W96
@ 031   ----------------------------------------
	.byte	W96
@ 032   ----------------------------------------
	.byte	W96
@ 033   ----------------------------------------
	.byte	W96
@ 034   ----------------------------------------
	.byte	W96
@ 035   ----------------------------------------
	.byte	W96
@ 036   ----------------------------------------
	.byte	W96
@ 037   ----------------------------------------
	.byte	W96
@ 038   ----------------------------------------
	.byte	W96
@ 039   ----------------------------------------
	.byte	W96
@ 040   ----------------------------------------
	.byte	W96
@ 041   ----------------------------------------
	.byte	W96
@ 042   ----------------------------------------
	.byte	W96
@ 043   ----------------------------------------
	.byte	W96
@ 044   ----------------------------------------
	.byte	W96
@ 045   ----------------------------------------
	.byte	W96
@ 046   ----------------------------------------
	.byte	W96
@ 047   ----------------------------------------
	.byte	W96
@ 048   ----------------------------------------
	.byte	W96
@ 049   ----------------------------------------
	.byte	W96
@ 050   ----------------------------------------
	.byte	W96
@ 051   ----------------------------------------
	.byte	W96
@ 052   ----------------------------------------
	.byte	W96
@ 053   ----------------------------------------
	.byte	W96
@ 054   ----------------------------------------
	.byte	W96
@ 055   ----------------------------------------
	.byte	W96
@ 056   ----------------------------------------
	.byte	W96
@ 057   ----------------------------------------
	.byte	W96
@ 058   ----------------------------------------
	.byte	W96
@ 059   ----------------------------------------
	.byte	W96
@ 060   ----------------------------------------
	.byte	W96
@ 061   ----------------------------------------
	.byte	W96
@ 062   ----------------------------------------
	.byte	W96
@ 063   ----------------------------------------
	.byte	W96
@ 064   ----------------------------------------
	.byte	W96
@ 065   ----------------------------------------
	.byte	W96
@ 066   ----------------------------------------
	.byte	W96
@ 067   ----------------------------------------
	.byte	W96
@ 068   ----------------------------------------
	.byte	W96
@ 069   ----------------------------------------
	.byte	W96
@ 070   ----------------------------------------
	.byte	W96
@ 071   ----------------------------------------
	.byte	W96
@ 072   ----------------------------------------
	.byte	W96
@ 073   ----------------------------------------
	.byte	W96
@ 074   ----------------------------------------
	.byte	W96
@ 075   ----------------------------------------
	.byte	W96
@ 076   ----------------------------------------
	.byte	W96
@ 077   ----------------------------------------
	.byte	W96
@ 078   ----------------------------------------
	.byte	W96
@ 079   ----------------------------------------
	.byte	W96
@ 080   ----------------------------------------
	.byte	W96
@ 081   ----------------------------------------
	.byte	W96
@ 082   ----------------------------------------
	.byte	W96
@ 083   ----------------------------------------
	.byte	W96
@ 084   ----------------------------------------
	.byte	W96
@ 085   ----------------------------------------
	.byte	W96
@ 086   ----------------------------------------
	.byte	W96
@ 087   ----------------------------------------
	.byte	W96
@ 088   ----------------------------------------
	.byte	W96
@ 089   ----------------------------------------
	.byte	W96
@ 090   ----------------------------------------
	.byte	W96
@ 091   ----------------------------------------
	.byte	W96
@ 092   ----------------------------------------
	.byte	W96
@ 093   ----------------------------------------
	.byte	W96
@ 094   ----------------------------------------
	.byte	W96
@ 095   ----------------------------------------
	.byte	W96
@ 096   ----------------------------------------
	.byte	W96
@ 097   ----------------------------------------
	.byte	W96
@ 098   ----------------------------------------
	.byte	W96
@ 099   ----------------------------------------
	.byte	W96
@ 100   ----------------------------------------
	.byte	W96
@ 101   ----------------------------------------
	.byte	PATT
	 .word	mus_th_crazy_backup_dancers_3_017
@ 102   ----------------------------------------
	.byte	PATT
	 .word	mus_th_crazy_backup_dancers_3_018
@ 103   ----------------------------------------
	.byte	PATT
	 .word	mus_th_crazy_backup_dancers_3_019
@ 104   ----------------------------------------
	.byte	PATT
	 .word	mus_th_crazy_backup_dancers_3_018
@ 105   ----------------------------------------
	.byte	W96
@ 106   ----------------------------------------
	.byte	W96
@ 107   ----------------------------------------
	.byte	W96
@ 108   ----------------------------------------
	.byte	W96
@ 109   ----------------------------------------
	.byte	W96
@ 110   ----------------------------------------
	.byte	W96
@ 111   ----------------------------------------
	.byte	W96
@ 112   ----------------------------------------
	.byte	W96
@ 113   ----------------------------------------
	.byte	W96
@ 114   ----------------------------------------
	.byte	W96
@ 115   ----------------------------------------
	.byte	W96
@ 116   ----------------------------------------
	.byte	W96
@ 117   ----------------------------------------
	.byte	W96
@ 118   ----------------------------------------
	.byte	W96
@ 119   ----------------------------------------
	.byte	W96
@ 120   ----------------------------------------
	.byte	W96
@ 121   ----------------------------------------
	.byte	W96
@ 122   ----------------------------------------
	.byte	W96
@ 123   ----------------------------------------
	.byte	W96
@ 124   ----------------------------------------
	.byte	W96
@ 125   ----------------------------------------
	.byte	W96
@ 126   ----------------------------------------
	.byte	W96
@ 127   ----------------------------------------
	.byte	W96
@ 128   ----------------------------------------
	.byte	W96
@ 129   ----------------------------------------
	.byte	W96
@ 130   ----------------------------------------
	.byte	W96
@ 131   ----------------------------------------
	.byte	W96
@ 132   ----------------------------------------
	.byte	W96
@ 133   ----------------------------------------
	.byte	W96
@ 134   ----------------------------------------
	.byte	W96
@ 135   ----------------------------------------
	.byte	W96
@ 136   ----------------------------------------
	.byte	W96
@ 137   ----------------------------------------
	.byte		N72   , Fn3 , v112
	.byte		N72   , Gs3 
	.byte	W96
@ 138   ----------------------------------------
	.byte		        Ds3 
	.byte		N72   , Gn3 
	.byte	W96
@ 139   ----------------------------------------
	.byte		        As2 
	.byte		N72   , Fn3 
	.byte	W96
@ 140   ----------------------------------------
	.byte		        Gn2 
	.byte		N72   , Ds3 
	.byte	W96
@ 141   ----------------------------------------
	.byte		        Gn2 
	.byte		N72   , Ds3 
	.byte	W96
@ 142   ----------------------------------------
	.byte		        Cn3 
	.byte		N72   , Ds3 
	.byte	W96
@ 143   ----------------------------------------
	.byte		        Gs2 
	.byte		N72   , Ds3 
	.byte	W96
@ 144   ----------------------------------------
	.byte		        Fn3 
	.byte		N72   , Gs3 
	.byte	W96
@ 145   ----------------------------------------
	.byte		        Cs3 
	.byte		N72   , Fn3 
	.byte	W96
@ 146   ----------------------------------------
	.byte		        Ds3 
	.byte		N72   , Gn3 
	.byte	W96
@ 147   ----------------------------------------
	.byte		        As2 
	.byte		N72   , En3 
	.byte	W96
@ 148   ----------------------------------------
	.byte		N72   
	.byte		N72   , Gn3 
	.byte	W96
@ 149   ----------------------------------------
	.byte		        An2 
	.byte		N72   , Dn3 
	.byte	W96
@ 150   ----------------------------------------
	.byte		N72   
	.byte		N72   , Fn3 
	.byte	W96
@ 151   ----------------------------------------
	.byte		        Dn3 
	.byte		N72   , Fn3 
	.byte	W96
@ 152   ----------------------------------------
	.byte		        Cn3 
	.byte		N72   , En3 
	.byte	W96
@ 153   ----------------------------------------
	.byte		        Fn3 
	.byte		N72   , Gs3 
	.byte	W96
@ 154   ----------------------------------------
	.byte		        Ds3 
	.byte		N72   , Gn3 
	.byte	W96
@ 155   ----------------------------------------
	.byte		        As2 
	.byte		N72   , Fn3 
	.byte	W96
@ 156   ----------------------------------------
	.byte		        Gn2 
	.byte		N72   , Ds3 
	.byte	W96
@ 157   ----------------------------------------
	.byte		        Gn2 
	.byte		N72   , Ds3 
	.byte	W96
@ 158   ----------------------------------------
	.byte		        Cn3 
	.byte		N72   , Ds3 
	.byte	W96
@ 159   ----------------------------------------
	.byte		        Gs2 
	.byte		N72   , Ds3 
	.byte	W96
@ 160   ----------------------------------------
	.byte		        Fn3 
	.byte		N72   , Gs3 
	.byte	W96
@ 161   ----------------------------------------
	.byte		        Cs3 
	.byte		N72   , Fn3 
	.byte	W96
@ 162   ----------------------------------------
	.byte		        Ds3 
	.byte		N72   , Gn3 
	.byte	W96
@ 163   ----------------------------------------
	.byte		        As2 
	.byte		N72   , En3 
	.byte	W96
@ 164   ----------------------------------------
	.byte		N72   
	.byte		N72   , Gn3 
	.byte	W96
@ 165   ----------------------------------------
	.byte		        An2 
	.byte		N72   , Dn3 
	.byte	W96
@ 166   ----------------------------------------
	.byte		N72   
	.byte		N72   , Fn3 
	.byte	W96
@ 167   ----------------------------------------
	.byte		        Dn3 
	.byte		N72   , Fn3 
	.byte	W96
@ 168   ----------------------------------------
	.byte		N24   , En3 
	.byte		N24   , Gn3 
	.byte	W24
	.byte		        En3 
	.byte		N24   , Gn3 
	.byte	W24
	.byte		        En3 
	.byte		N24   , Gn3 
	.byte	W24
	.byte		        En3 
	.byte		N24   , Gn3 
	.byte	W24
	.byte	GOTO
	 .word	mus_th_crazy_backup_dancers_3_B1
mus_th_crazy_backup_dancers_3_B2:
@ 169   ----------------------------------------
	.byte	W96
@ 170   ----------------------------------------
	.byte	W96
@ 171   ----------------------------------------
	.byte	W96
@ 172   ----------------------------------------
	.byte	W96
@ 173   ----------------------------------------
	.byte	W96
@ 174   ----------------------------------------
	.byte	W96
@ 175   ----------------------------------------
	.byte	W96
@ 176   ----------------------------------------
	.byte	W96
@ 177   ----------------------------------------
	.byte	W96
@ 178   ----------------------------------------
	.byte	W96
@ 179   ----------------------------------------
	.byte	W96
@ 180   ----------------------------------------
	.byte	W96
@ 181   ----------------------------------------
	.byte	W96
@ 182   ----------------------------------------
	.byte	W96
@ 183   ----------------------------------------
	.byte	W96
@ 184   ----------------------------------------
	.byte	W96
@ 185   ----------------------------------------
	.byte	W24
	.byte		N12   , An3 , v112
	.byte	W12
	.byte		        Fs3 
	.byte	W12
	.byte		        En4 
	.byte	W12
	.byte		N12   
	.byte	W12
	.byte		        Bn3 
	.byte	W12
	.byte		        An3 
	.byte	W12
@ 186   ----------------------------------------
mus_th_crazy_backup_dancers_3_186:
	.byte		N12   , An4 , v112
	.byte	W12
	.byte		        Gn4 
	.byte	W12
	.byte		        Dn4 
	.byte	W12
	.byte		        Gn4 
	.byte	W12
	.byte		        Fs4 
	.byte	W12
	.byte		        Dn4 
	.byte	W12
	.byte		        An3 
	.byte	W12
	.byte		        Fs3 
	.byte	W12
	.byte	PEND
@ 187   ----------------------------------------
	.byte		        En3 
	.byte	W12
	.byte		        Bn3 
	.byte	W12
	.byte		        As3 
	.byte	W12
	.byte		        Fs3 
	.byte	W12
	.byte		        En3 
	.byte	W12
	.byte		        En4 
	.byte	W12
	.byte		        Bn3 
	.byte	W12
	.byte		        An3 
	.byte	W12
@ 188   ----------------------------------------
	.byte	PATT
	 .word	mus_th_crazy_backup_dancers_3_186
@ 189   ----------------------------------------
	.byte	FINE

@**************** Track 4 (Midi-Chn.4) ****************@

mus_th_crazy_backup_dancers_4:
	.byte	KEYSH , mus_th_crazy_backup_dancers_key+0
@ 000   ----------------------------------------
	.byte	W24
	.byte		VOL   , 120*mus_th_crazy_backup_dancers_mvl/mxv
	.byte	W03
	.byte		PAN   , c_v+0
	.byte	W03
	.byte		VOICE , 71
	.byte	W03
	.byte	W03
	.byte	W03
	.byte	W03
	.byte		BEND  , c_v+0
	.byte	W03
	.byte		MOD   , 4
	.byte	W03
	.byte	W03
	.byte	W03
	.byte	W03
	.byte	W03
	.byte	W03
	.byte	W03
	.byte	W03
	.byte	W03
	.byte	W24
@ 001   ----------------------------------------
	.byte	W96
@ 002   ----------------------------------------
	.byte	W96
@ 003   ----------------------------------------
	.byte	W96
@ 004   ----------------------------------------
	.byte	W96
@ 005   ----------------------------------------
	.byte	W96
@ 006   ----------------------------------------
	.byte	W96
@ 007   ----------------------------------------
	.byte	W96
@ 008   ----------------------------------------
	.byte	W96
@ 009   ----------------------------------------
	.byte	W96
@ 010   ----------------------------------------
	.byte	W96
@ 011   ----------------------------------------
	.byte	W96
@ 012   ----------------------------------------
	.byte	W96
@ 013   ----------------------------------------
	.byte	W96
@ 014   ----------------------------------------
	.byte	W96
@ 015   ----------------------------------------
	.byte	W96
@ 016   ----------------------------------------
	.byte	W96
@ 017   ----------------------------------------
	.byte	W96
@ 018   ----------------------------------------
	.byte	W96
@ 019   ----------------------------------------
	.byte	W96
@ 020   ----------------------------------------
	.byte	W96
mus_th_crazy_backup_dancers_4_B1:
@ 021   ----------------------------------------
	.byte	W96
@ 022   ----------------------------------------
	.byte	W96
@ 023   ----------------------------------------
	.byte	W96
@ 024   ----------------------------------------
	.byte	W96
@ 025   ----------------------------------------
	.byte	W96
@ 026   ----------------------------------------
	.byte	W96
@ 027   ----------------------------------------
	.byte	W96
@ 028   ----------------------------------------
	.byte	W96
@ 029   ----------------------------------------
	.byte	W96
@ 030   ----------------------------------------
	.byte	W96
@ 031   ----------------------------------------
	.byte	W96
@ 032   ----------------------------------------
	.byte	W96
@ 033   ----------------------------------------
	.byte	W96
@ 034   ----------------------------------------
	.byte	W96
@ 035   ----------------------------------------
	.byte	W96
@ 036   ----------------------------------------
	.byte	W96
@ 037   ----------------------------------------
mus_th_crazy_backup_dancers_4_037:
	.byte		N24   , En3 , v112
	.byte	W24
	.byte		        Bn3 
	.byte	W24
	.byte		        As3 
	.byte	W24
	.byte		        Bn3 
	.byte	W24
	.byte	PEND
@ 038   ----------------------------------------
mus_th_crazy_backup_dancers_4_038:
	.byte		N24   , En4 , v112
	.byte	W24
	.byte		        Bn3 
	.byte	W24
	.byte		        As3 
	.byte	W24
	.byte		        Gn3 
	.byte	W24
	.byte	PEND
@ 039   ----------------------------------------
mus_th_crazy_backup_dancers_4_039:
	.byte		N24   , An3 , v112
	.byte	W24
	.byte		        Gn3 
	.byte	W24
	.byte		        Fs3 
	.byte	W24
	.byte		        Gn3 
	.byte	W24
	.byte	PEND
@ 040   ----------------------------------------
mus_th_crazy_backup_dancers_4_040:
	.byte		N24   , Fs3 , v112
	.byte	W24
	.byte		        Dn3 
	.byte	W24
	.byte		N48   , Bn2 
	.byte	W48
	.byte	PEND
@ 041   ----------------------------------------
	.byte	PATT
	 .word	mus_th_crazy_backup_dancers_4_037
@ 042   ----------------------------------------
mus_th_crazy_backup_dancers_4_042:
	.byte		N24   , En4 , v112
	.byte	W24
	.byte		        Bn3 
	.byte	W24
	.byte		        As3 
	.byte	W24
	.byte		        Fs4 
	.byte	W24
	.byte	PEND
@ 043   ----------------------------------------
mus_th_crazy_backup_dancers_4_043:
	.byte		N24   , Gn4 , v112
	.byte	W24
	.byte		        Fs4 
	.byte	W24
	.byte		        Dn4 
	.byte	W24
	.byte		        En4 
	.byte	W24
	.byte	PEND
@ 044   ----------------------------------------
mus_th_crazy_backup_dancers_4_044:
	.byte		N24   , Bn3 , v112
	.byte	W24
	.byte		        Ds4 
	.byte	W24
	.byte		N48   , En4 
	.byte	W48
	.byte	PEND
@ 045   ----------------------------------------
	.byte	PATT
	 .word	mus_th_crazy_backup_dancers_4_037
@ 046   ----------------------------------------
	.byte	PATT
	 .word	mus_th_crazy_backup_dancers_4_038
@ 047   ----------------------------------------
	.byte	PATT
	 .word	mus_th_crazy_backup_dancers_4_039
@ 048   ----------------------------------------
	.byte	PATT
	 .word	mus_th_crazy_backup_dancers_4_040
@ 049   ----------------------------------------
	.byte	PATT
	 .word	mus_th_crazy_backup_dancers_4_037
@ 050   ----------------------------------------
	.byte	PATT
	 .word	mus_th_crazy_backup_dancers_4_042
@ 051   ----------------------------------------
	.byte	PATT
	 .word	mus_th_crazy_backup_dancers_4_043
@ 052   ----------------------------------------
	.byte	PATT
	 .word	mus_th_crazy_backup_dancers_4_044
@ 053   ----------------------------------------
mus_th_crazy_backup_dancers_4_053:
	.byte		N24   , En4 , v112
	.byte	W24
	.byte		        Bn3 
	.byte	W24
	.byte		        An3 
	.byte	W24
	.byte		        En4 
	.byte	W24
	.byte	PEND
@ 054   ----------------------------------------
mus_th_crazy_backup_dancers_4_054:
	.byte		N24   , Fs4 , v112
	.byte	W24
	.byte		        Bn3 
	.byte	W24
	.byte		        An3 
	.byte	W24
	.byte		        Fs4 
	.byte	W24
	.byte	PEND
@ 055   ----------------------------------------
mus_th_crazy_backup_dancers_4_055:
	.byte		N24   , Gn4 , v112
	.byte	W24
	.byte		        Bn3 
	.byte	W24
	.byte		        An3 
	.byte	W24
	.byte		        Gn4 
	.byte	W24
	.byte	PEND
@ 056   ----------------------------------------
mus_th_crazy_backup_dancers_4_056:
	.byte		N24   , An4 , v112
	.byte	W24
	.byte		        Bn3 
	.byte	W24
	.byte		        An3 
	.byte	W24
	.byte		        An4 
	.byte	W24
	.byte	PEND
@ 057   ----------------------------------------
	.byte	PATT
	 .word	mus_th_crazy_backup_dancers_4_054
@ 058   ----------------------------------------
mus_th_crazy_backup_dancers_4_058:
	.byte		N24   , Bn4 , v112
	.byte	W24
	.byte		        Bn3 
	.byte	W24
	.byte		        An3 
	.byte	W24
	.byte		        Bn4 
	.byte	W24
	.byte	PEND
@ 059   ----------------------------------------
	.byte	PATT
	 .word	mus_th_crazy_backup_dancers_4_055
@ 060   ----------------------------------------
	.byte		N72   , En4 , v112
	.byte	W96
@ 061   ----------------------------------------
	.byte	PATT
	 .word	mus_th_crazy_backup_dancers_4_053
@ 062   ----------------------------------------
	.byte	PATT
	 .word	mus_th_crazy_backup_dancers_4_054
@ 063   ----------------------------------------
mus_th_crazy_backup_dancers_4_063:
	.byte		N24   , Ds4 , v112
	.byte	W24
	.byte		        Bn3 
	.byte	W24
	.byte		        An3 
	.byte	W24
	.byte		        Ds4 
	.byte	W24
	.byte	PEND
@ 064   ----------------------------------------
	.byte	PATT
	 .word	mus_th_crazy_backup_dancers_4_056
@ 065   ----------------------------------------
mus_th_crazy_backup_dancers_4_065:
	.byte		N24   , Fs4 , v112
	.byte	W24
	.byte		        Ds4 
	.byte	W24
	.byte		        An3 
	.byte	W24
	.byte		        Fs4 
	.byte	W24
	.byte	PEND
@ 066   ----------------------------------------
	.byte		        En4 
	.byte	W24
	.byte		        Bn3 
	.byte	W24
	.byte		        An3 
	.byte	W24
	.byte		        Cs4 
	.byte	W24
@ 067   ----------------------------------------
	.byte		        En3 
	.byte	W24
	.byte		        En4 
	.byte	W24
	.byte		        Ds4 
	.byte	W24
	.byte		        Bn4 
	.byte	W24
@ 068   ----------------------------------------
	.byte		N48   , Fs4 
	.byte	W48
	.byte		N24   , Bn4 
	.byte	W48
@ 069   ----------------------------------------
	.byte	PATT
	 .word	mus_th_crazy_backup_dancers_4_053
@ 070   ----------------------------------------
	.byte	PATT
	 .word	mus_th_crazy_backup_dancers_4_054
@ 071   ----------------------------------------
	.byte	PATT
	 .word	mus_th_crazy_backup_dancers_4_055
@ 072   ----------------------------------------
	.byte	PATT
	 .word	mus_th_crazy_backup_dancers_4_056
@ 073   ----------------------------------------
	.byte	PATT
	 .word	mus_th_crazy_backup_dancers_4_054
@ 074   ----------------------------------------
	.byte	PATT
	 .word	mus_th_crazy_backup_dancers_4_058
@ 075   ----------------------------------------
	.byte	PATT
	 .word	mus_th_crazy_backup_dancers_4_055
@ 076   ----------------------------------------
	.byte		N72   , En4 , v112
	.byte	W96
@ 077   ----------------------------------------
	.byte	PATT
	 .word	mus_th_crazy_backup_dancers_4_053
@ 078   ----------------------------------------
	.byte	PATT
	 .word	mus_th_crazy_backup_dancers_4_054
@ 079   ----------------------------------------
	.byte	PATT
	 .word	mus_th_crazy_backup_dancers_4_063
@ 080   ----------------------------------------
	.byte	PATT
	 .word	mus_th_crazy_backup_dancers_4_056
@ 081   ----------------------------------------
	.byte	PATT
	 .word	mus_th_crazy_backup_dancers_4_065
@ 082   ----------------------------------------
	.byte		N24   , As4 , v112
	.byte	W24
	.byte		        Bn3 
	.byte	W24
	.byte		        An3 
	.byte	W24
	.byte		        As4 
	.byte	W24
@ 083   ----------------------------------------
	.byte		        Bn4 
	.byte	W24
	.byte		        En4 
	.byte	W24
	.byte		        Ds4 
	.byte	W24
	.byte		        An4 
	.byte	W24
@ 084   ----------------------------------------
	.byte		        Bn4 
	.byte	W24
	.byte		        En4 
	.byte	W24
	.byte		        Ds4 
	.byte	W24
	.byte		        Cs5 
	.byte	W24
@ 085   ----------------------------------------
mus_th_crazy_backup_dancers_4_085:
	.byte		N24   , Cn4 , v080
	.byte		N24   , Cn5 
	.byte	W24
	.byte		        Ds3 
	.byte		N24   , Ds4 
	.byte	W24
	.byte		        Dn3 
	.byte		N24   , Dn4 
	.byte	W24
	.byte		        Bn3 
	.byte		N24   , Bn4 
	.byte	W24
	.byte	PEND
@ 086   ----------------------------------------
mus_th_crazy_backup_dancers_4_086:
	.byte		N24   , As3 , v080
	.byte		N24   , As4 
	.byte	W24
	.byte		        Cs3 
	.byte		N24   , Cs4 
	.byte	W24
	.byte		        Cn3 
	.byte		N24   , Cn4 
	.byte	W24
	.byte		        An3 
	.byte		N24   , An4 
	.byte	W24
	.byte	PEND
@ 087   ----------------------------------------
mus_th_crazy_backup_dancers_4_087:
	.byte		N24   , Gs3 , v080
	.byte		N24   , Gs4 
	.byte	W24
	.byte		        Bn2 
	.byte		N24   , Bn3 
	.byte	W24
	.byte		        As2 
	.byte		N24   , As3 
	.byte	W24
	.byte		        Gn3 
	.byte		N24   , Gn4 
	.byte	W24
	.byte	PEND
@ 088   ----------------------------------------
mus_th_crazy_backup_dancers_4_088:
	.byte		N24   , Fs3 , v080
	.byte		N24   , Fs4 
	.byte	W24
	.byte		        An2 
	.byte		N24   , An3 
	.byte	W24
	.byte		        Gs2 
	.byte		N24   , Gs3 
	.byte	W24
	.byte		        Fn3 
	.byte		N24   , Fn4 
	.byte	W24
	.byte	PEND
@ 089   ----------------------------------------
	.byte	PATT
	 .word	mus_th_crazy_backup_dancers_4_085
@ 090   ----------------------------------------
	.byte	PATT
	 .word	mus_th_crazy_backup_dancers_4_086
@ 091   ----------------------------------------
	.byte	PATT
	 .word	mus_th_crazy_backup_dancers_4_087
@ 092   ----------------------------------------
	.byte	PATT
	 .word	mus_th_crazy_backup_dancers_4_088
@ 093   ----------------------------------------
	.byte	PATT
	 .word	mus_th_crazy_backup_dancers_4_085
@ 094   ----------------------------------------
	.byte	PATT
	 .word	mus_th_crazy_backup_dancers_4_086
@ 095   ----------------------------------------
	.byte	PATT
	 .word	mus_th_crazy_backup_dancers_4_087
@ 096   ----------------------------------------
	.byte	PATT
	 .word	mus_th_crazy_backup_dancers_4_088
@ 097   ----------------------------------------
	.byte		N24   , Cn3 , v080
	.byte		N24   , Cn4 
	.byte	W24
	.byte		        En3 
	.byte		N24   , En4 
	.byte	W24
	.byte		        Fs3 
	.byte		N24   , Fs4 
	.byte	W24
	.byte		        An3 
	.byte		N24   , An4 
	.byte	W24
@ 098   ----------------------------------------
	.byte		        Cn4 
	.byte		N24   , Cn5 
	.byte	W24
	.byte		        En4 
	.byte		N24   , En5 
	.byte	W24
	.byte		        Fs4 
	.byte		N24   , Fs5 
	.byte	W24
	.byte		        An4 
	.byte		N24   , An5 
	.byte	W24
@ 099   ----------------------------------------
mus_th_crazy_backup_dancers_4_099:
	.byte		TIE   , Bn4 , v080
	.byte		TIE   , Bn5 
	.byte	W96
	.byte	PEND
@ 100   ----------------------------------------
	.byte	W24
	.byte		EOT   , Bn4 
	.byte		        Bn5 
	.byte		N06   , As4 , v052
	.byte		N06   , As5 
	.byte	W06
	.byte		        An4 
	.byte		N06   , An5 
	.byte	W06
	.byte		        Gs4 
	.byte		N06   , Gs5 
	.byte	W06
	.byte		        Gn4 
	.byte		N06   , Gn5 
	.byte	W36
	.byte		        Gs4 , v080
	.byte		N06   , Gs5 
	.byte	W06
	.byte		        An4 
	.byte		N06   , An5 
	.byte	W06
	.byte		        As4 
	.byte		N06   , As5 
	.byte	W06
@ 101   ----------------------------------------
	.byte	PATT
	 .word	mus_th_crazy_backup_dancers_4_099
@ 102   ----------------------------------------
	.byte	W96
@ 103   ----------------------------------------
	.byte	W96
@ 104   ----------------------------------------
	.byte	W96
	.byte		EOT   , Bn4 
	.byte		        Bn5 
@ 105   ----------------------------------------
	.byte	W96
@ 106   ----------------------------------------
	.byte	W96
@ 107   ----------------------------------------
	.byte	W96
@ 108   ----------------------------------------
	.byte	W96
@ 109   ----------------------------------------
	.byte	W96
@ 110   ----------------------------------------
	.byte	W96
@ 111   ----------------------------------------
	.byte	W96
@ 112   ----------------------------------------
	.byte	W96
@ 113   ----------------------------------------
	.byte	W96
@ 114   ----------------------------------------
	.byte	W96
@ 115   ----------------------------------------
	.byte	W96
@ 116   ----------------------------------------
	.byte	W96
@ 117   ----------------------------------------
	.byte	W96
@ 118   ----------------------------------------
	.byte	W96
@ 119   ----------------------------------------
	.byte	W96
@ 120   ----------------------------------------
	.byte	W96
@ 121   ----------------------------------------
	.byte	W96
@ 122   ----------------------------------------
	.byte	W96
@ 123   ----------------------------------------
	.byte	W96
@ 124   ----------------------------------------
	.byte	W96
@ 125   ----------------------------------------
	.byte	W96
@ 126   ----------------------------------------
	.byte	W96
@ 127   ----------------------------------------
	.byte	W96
@ 128   ----------------------------------------
	.byte	W96
@ 129   ----------------------------------------
	.byte	W96
@ 130   ----------------------------------------
	.byte	W96
@ 131   ----------------------------------------
	.byte	W96
@ 132   ----------------------------------------
	.byte	W96
@ 133   ----------------------------------------
	.byte	W96
@ 134   ----------------------------------------
	.byte	W96
@ 135   ----------------------------------------
	.byte	W96
@ 136   ----------------------------------------
	.byte	W96
@ 137   ----------------------------------------
mus_th_crazy_backup_dancers_4_137:
	.byte		N24   , Fn4 , v112
	.byte	W24
	.byte		        Cn4 
	.byte	W24
	.byte		        As3 
	.byte	W24
	.byte		        Fn4 
	.byte	W24
	.byte	PEND
@ 138   ----------------------------------------
mus_th_crazy_backup_dancers_4_138:
	.byte		N24   , Gn4 , v112
	.byte	W24
	.byte		        Cn4 
	.byte	W24
	.byte		        As3 
	.byte	W24
	.byte		        Gn4 
	.byte	W24
	.byte	PEND
@ 139   ----------------------------------------
mus_th_crazy_backup_dancers_4_139:
	.byte		N24   , Gs4 , v112
	.byte	W24
	.byte		        Cn4 
	.byte	W24
	.byte		        As3 
	.byte	W24
	.byte		        Gs4 
	.byte	W24
	.byte	PEND
@ 140   ----------------------------------------
mus_th_crazy_backup_dancers_4_140:
	.byte		N24   , As4 , v112
	.byte	W24
	.byte		        Cn4 
	.byte	W24
	.byte		        As3 
	.byte	W24
	.byte		        As4 
	.byte	W24
	.byte	PEND
@ 141   ----------------------------------------
	.byte	PATT
	 .word	mus_th_crazy_backup_dancers_4_138
@ 142   ----------------------------------------
mus_th_crazy_backup_dancers_4_142:
	.byte		N24   , Cn5 , v112
	.byte	W24
	.byte		        Cn4 
	.byte	W24
	.byte		        As3 
	.byte	W24
	.byte		        Cn5 
	.byte	W24
	.byte	PEND
@ 143   ----------------------------------------
	.byte	PATT
	 .word	mus_th_crazy_backup_dancers_4_139
@ 144   ----------------------------------------
	.byte		N72   , Fn4 , v112
	.byte	W96
@ 145   ----------------------------------------
	.byte	PATT
	 .word	mus_th_crazy_backup_dancers_4_137
@ 146   ----------------------------------------
	.byte	PATT
	 .word	mus_th_crazy_backup_dancers_4_138
@ 147   ----------------------------------------
mus_th_crazy_backup_dancers_4_147:
	.byte		N24   , En4 , v112
	.byte	W24
	.byte		        Cn4 
	.byte	W24
	.byte		        As3 
	.byte	W24
	.byte		        En4 
	.byte	W24
	.byte	PEND
@ 148   ----------------------------------------
	.byte	PATT
	 .word	mus_th_crazy_backup_dancers_4_140
@ 149   ----------------------------------------
mus_th_crazy_backup_dancers_4_149:
	.byte		N24   , Gn4 , v112
	.byte	W24
	.byte		        En4 
	.byte	W24
	.byte		        As3 
	.byte	W24
	.byte		        Gn4 
	.byte	W24
	.byte	PEND
@ 150   ----------------------------------------
	.byte		        Fn4 
	.byte	W24
	.byte		        Cn4 
	.byte	W24
	.byte		        As3 
	.byte	W24
	.byte		        Dn4 
	.byte	W24
@ 151   ----------------------------------------
	.byte		        Fn3 
	.byte	W24
	.byte		        Fn4 
	.byte	W24
	.byte		        En4 
	.byte	W24
	.byte		        Cn5 
	.byte	W24
@ 152   ----------------------------------------
	.byte		N48   , Gn4 
	.byte	W48
	.byte		N24   , Cn5 
	.byte	W48
@ 153   ----------------------------------------
	.byte	PATT
	 .word	mus_th_crazy_backup_dancers_4_137
@ 154   ----------------------------------------
	.byte	PATT
	 .word	mus_th_crazy_backup_dancers_4_138
@ 155   ----------------------------------------
	.byte	PATT
	 .word	mus_th_crazy_backup_dancers_4_139
@ 156   ----------------------------------------
	.byte	PATT
	 .word	mus_th_crazy_backup_dancers_4_140
@ 157   ----------------------------------------
	.byte	PATT
	 .word	mus_th_crazy_backup_dancers_4_138
@ 158   ----------------------------------------
	.byte	PATT
	 .word	mus_th_crazy_backup_dancers_4_142
@ 159   ----------------------------------------
	.byte	PATT
	 .word	mus_th_crazy_backup_dancers_4_139
@ 160   ----------------------------------------
	.byte		N72   , Fn4 , v112
	.byte	W96
@ 161   ----------------------------------------
	.byte	PATT
	 .word	mus_th_crazy_backup_dancers_4_137
@ 162   ----------------------------------------
	.byte	PATT
	 .word	mus_th_crazy_backup_dancers_4_138
@ 163   ----------------------------------------
	.byte	PATT
	 .word	mus_th_crazy_backup_dancers_4_147
@ 164   ----------------------------------------
	.byte	PATT
	 .word	mus_th_crazy_backup_dancers_4_140
@ 165   ----------------------------------------
	.byte	PATT
	 .word	mus_th_crazy_backup_dancers_4_149
@ 166   ----------------------------------------
	.byte		N24   , Bn4 , v112
	.byte	W24
	.byte		        Cn4 
	.byte	W24
	.byte		        As3 
	.byte	W24
	.byte		        Bn4 
	.byte	W24
@ 167   ----------------------------------------
	.byte		        Cn5 
	.byte	W24
	.byte		        Fn4 
	.byte	W24
	.byte		        En4 
	.byte	W24
	.byte		        As4 
	.byte	W24
@ 168   ----------------------------------------
	.byte		        Cn5 
	.byte	W24
	.byte		        Fn4 
	.byte	W24
	.byte		        En4 
	.byte	W24
	.byte		        Dn5 
	.byte	W24
	.byte	GOTO
	 .word	mus_th_crazy_backup_dancers_4_B1
mus_th_crazy_backup_dancers_4_B2:
@ 169   ----------------------------------------
mus_th_crazy_backup_dancers_4_169:
	.byte		N24   , Cn4 , v100
	.byte		N24   , Cn5 
	.byte	W24
	.byte		        Ds3 
	.byte		N24   , Ds4 
	.byte	W24
	.byte		        Dn3 
	.byte		N24   , Dn4 
	.byte	W24
	.byte		        Bn3 
	.byte		N24   , Bn4 
	.byte	W24
	.byte	PEND
@ 170   ----------------------------------------
mus_th_crazy_backup_dancers_4_170:
	.byte		N24   , As3 , v100
	.byte		N24   , As4 
	.byte	W24
	.byte		        Cs3 
	.byte		N24   , Cs4 
	.byte	W24
	.byte		        Cn3 
	.byte		N24   , Cn4 
	.byte	W24
	.byte		        An3 
	.byte		N24   , An4 
	.byte	W24
	.byte	PEND
@ 171   ----------------------------------------
mus_th_crazy_backup_dancers_4_171:
	.byte		N24   , Gs3 , v100
	.byte		N24   , Gs4 
	.byte	W24
	.byte		        Bn2 
	.byte		N24   , Bn3 
	.byte	W24
	.byte		        As2 
	.byte		N24   , As3 
	.byte	W24
	.byte		        Gn3 
	.byte		N24   , Gn4 
	.byte	W24
	.byte	PEND
@ 172   ----------------------------------------
mus_th_crazy_backup_dancers_4_172:
	.byte		N24   , Fs3 , v100
	.byte		N24   , Fs4 
	.byte	W24
	.byte		        An2 
	.byte		N24   , An3 
	.byte	W24
	.byte		        Gs2 
	.byte		N24   , Gs3 
	.byte	W24
	.byte		        Fn3 
	.byte		N24   , Fn4 
	.byte	W24
	.byte	PEND
@ 173   ----------------------------------------
	.byte	PATT
	 .word	mus_th_crazy_backup_dancers_4_169
@ 174   ----------------------------------------
	.byte	PATT
	 .word	mus_th_crazy_backup_dancers_4_170
@ 175   ----------------------------------------
	.byte	PATT
	 .word	mus_th_crazy_backup_dancers_4_171
@ 176   ----------------------------------------
	.byte	PATT
	 .word	mus_th_crazy_backup_dancers_4_172
@ 177   ----------------------------------------
	.byte	PATT
	 .word	mus_th_crazy_backup_dancers_4_169
@ 178   ----------------------------------------
	.byte	PATT
	 .word	mus_th_crazy_backup_dancers_4_170
@ 179   ----------------------------------------
	.byte	PATT
	 .word	mus_th_crazy_backup_dancers_4_171
@ 180   ----------------------------------------
	.byte	PATT
	 .word	mus_th_crazy_backup_dancers_4_172
@ 181   ----------------------------------------
	.byte		N24   , Cn3 , v100
	.byte		N24   , Cn4 
	.byte	W24
	.byte		        En3 
	.byte		N24   , En4 
	.byte	W24
	.byte		        Fs3 
	.byte		N24   , Fs4 
	.byte	W24
	.byte		        An3 
	.byte		N24   , An4 
	.byte	W24
@ 182   ----------------------------------------
	.byte		        Cn4 
	.byte		N24   , Cn5 
	.byte	W24
	.byte		        En4 
	.byte		N24   , En5 
	.byte	W24
	.byte		        Fs4 
	.byte		N24   , Fs5 
	.byte	W24
	.byte		        An4 
	.byte		N24   , An5 
	.byte	W24
@ 183   ----------------------------------------
mus_th_crazy_backup_dancers_4_183:
	.byte		TIE   , Bn4 , v100
	.byte		TIE   , Bn5 
	.byte	W96
	.byte	PEND
@ 184   ----------------------------------------
	.byte	W24
	.byte		EOT   , Bn4 
	.byte		        Bn5 
	.byte		N06   , As4 , v060
	.byte		N06   , As5 
	.byte	W06
	.byte		        An4 
	.byte		N06   , An5 
	.byte	W06
	.byte		        Gs4 
	.byte		N06   , Gs5 
	.byte	W06
	.byte		        Gn4 
	.byte		N06   , Gn5 
	.byte	W36
	.byte		        Gs4 , v100
	.byte		N06   , Gs5 
	.byte	W06
	.byte		        An4 
	.byte		N06   , An5 
	.byte	W06
	.byte		        As4 
	.byte		N06   , As5 
	.byte	W06
@ 185   ----------------------------------------
	.byte	PATT
	 .word	mus_th_crazy_backup_dancers_4_183
@ 186   ----------------------------------------
	.byte	W96
@ 187   ----------------------------------------
	.byte	W96
@ 188   ----------------------------------------
	.byte	W96
	.byte		EOT   , Bn4 
	.byte		        Bn5 
@ 189   ----------------------------------------
	.byte	FINE

@**************** Track 5 (Midi-Chn.5) ****************@

mus_th_crazy_backup_dancers_5:
	.byte	KEYSH , mus_th_crazy_backup_dancers_key+0
@ 000   ----------------------------------------
	.byte	W24
	.byte		VOL   , 120*mus_th_crazy_backup_dancers_mvl/mxv
	.byte	W03
	.byte		PAN   , c_v+0
	.byte	W03
	.byte		VOICE , 33
	.byte	W03
	.byte	W03
	.byte	W03
	.byte	W03
	.byte		BEND  , c_v+0
	.byte	W03
	.byte		MOD   , 0
	.byte	W03
	.byte	W03
	.byte	W03
	.byte	W03
	.byte	W03
	.byte	W03
	.byte	W03
	.byte	W03
	.byte	W03
	.byte	W24
@ 001   ----------------------------------------
	.byte		N96   , En1 , v100
	.byte	W96
@ 002   ----------------------------------------
	.byte		        Ds1 
	.byte	W96
@ 003   ----------------------------------------
	.byte		        Dn1 
	.byte	W96
@ 004   ----------------------------------------
mus_th_crazy_backup_dancers_5_004:
	.byte		N48   , Cs1 , v100
	.byte	W48
	.byte		N24   
	.byte	W24
	.byte		        Fn1 
	.byte	W24
	.byte	PEND
@ 005   ----------------------------------------
mus_th_crazy_backup_dancers_5_005:
	.byte		N24   , En1 , v100
	.byte	W24
	.byte		        Gs1 
	.byte	W24
	.byte		        Gn1 
	.byte	W24
	.byte		        Bn1 
	.byte	W24
	.byte	PEND
@ 006   ----------------------------------------
mus_th_crazy_backup_dancers_5_006:
	.byte		N24   , Ds1 , v100
	.byte	W24
	.byte		        Fs1 
	.byte	W24
	.byte		        Fn1 
	.byte	W24
	.byte		        An1 
	.byte	W24
	.byte	PEND
@ 007   ----------------------------------------
mus_th_crazy_backup_dancers_5_007:
	.byte		N24   , Dn1 , v100
	.byte	W24
	.byte		        Fn1 
	.byte	W24
	.byte		        En1 
	.byte	W24
	.byte		        Gn1 
	.byte	W24
	.byte	PEND
@ 008   ----------------------------------------
	.byte	PATT
	 .word	mus_th_crazy_backup_dancers_5_004
@ 009   ----------------------------------------
	.byte	PATT
	 .word	mus_th_crazy_backup_dancers_5_005
@ 010   ----------------------------------------
	.byte	PATT
	 .word	mus_th_crazy_backup_dancers_5_006
@ 011   ----------------------------------------
	.byte	PATT
	 .word	mus_th_crazy_backup_dancers_5_007
@ 012   ----------------------------------------
	.byte	PATT
	 .word	mus_th_crazy_backup_dancers_5_004
@ 013   ----------------------------------------
	.byte		TIE   , En1 , v100
	.byte	W96
@ 014   ----------------------------------------
	.byte	W96
	.byte		EOT   
@ 015   ----------------------------------------
	.byte		TIE   , Cn2 
	.byte	W96
@ 016   ----------------------------------------
	.byte	W96
	.byte		EOT   
@ 017   ----------------------------------------
	.byte		TIE   , En1 
	.byte	W96
@ 018   ----------------------------------------
	.byte	W96
@ 019   ----------------------------------------
	.byte	W24
	.byte		EOT   
	.byte		N12   , Fs1 
	.byte	W12
	.byte		        Gn1 
	.byte	W36
	.byte		        As1 
	.byte	W12
	.byte		        En1 
	.byte	W12
@ 020   ----------------------------------------
mus_th_crazy_backup_dancers_5_020:
	.byte		N12   , Bn0 , v100
	.byte	W12
	.byte		N12   
	.byte	W12
	.byte		        En1 
	.byte	W12
	.byte		        Bn0 
	.byte	W12
	.byte		N12   
	.byte	W12
	.byte		N12   
	.byte	W12
	.byte		        Gn1 
	.byte	W12
	.byte		        En1 
	.byte	W12
	.byte	PEND
mus_th_crazy_backup_dancers_5_B1:
@ 021   ----------------------------------------
	.byte	W96
@ 022   ----------------------------------------
	.byte	W96
@ 023   ----------------------------------------
	.byte	W96
@ 024   ----------------------------------------
	.byte	W96
@ 025   ----------------------------------------
	.byte	W96
@ 026   ----------------------------------------
	.byte	W96
@ 027   ----------------------------------------
	.byte	W96
@ 028   ----------------------------------------
	.byte	W96
@ 029   ----------------------------------------
	.byte	W96
@ 030   ----------------------------------------
	.byte	W96
@ 031   ----------------------------------------
	.byte	W96
@ 032   ----------------------------------------
	.byte	W96
@ 033   ----------------------------------------
	.byte	W96
@ 034   ----------------------------------------
	.byte	W96
@ 035   ----------------------------------------
	.byte	W96
@ 036   ----------------------------------------
	.byte	W96
@ 037   ----------------------------------------
	.byte	W96
@ 038   ----------------------------------------
	.byte	W96
@ 039   ----------------------------------------
	.byte	W96
@ 040   ----------------------------------------
	.byte	W96
@ 041   ----------------------------------------
	.byte	W96
@ 042   ----------------------------------------
	.byte	W96
@ 043   ----------------------------------------
	.byte	W96
@ 044   ----------------------------------------
	.byte	W96
@ 045   ----------------------------------------
	.byte	W96
@ 046   ----------------------------------------
	.byte	W96
@ 047   ----------------------------------------
	.byte	W96
@ 048   ----------------------------------------
	.byte	W96
@ 049   ----------------------------------------
	.byte	W96
@ 050   ----------------------------------------
	.byte	W96
@ 051   ----------------------------------------
	.byte	W96
@ 052   ----------------------------------------
	.byte	W96
@ 053   ----------------------------------------
	.byte	W96
@ 054   ----------------------------------------
	.byte	W96
@ 055   ----------------------------------------
	.byte	W96
@ 056   ----------------------------------------
	.byte	W96
@ 057   ----------------------------------------
	.byte	W96
@ 058   ----------------------------------------
	.byte	W96
@ 059   ----------------------------------------
	.byte	W96
@ 060   ----------------------------------------
	.byte	W96
@ 061   ----------------------------------------
	.byte	W96
@ 062   ----------------------------------------
	.byte	W96
@ 063   ----------------------------------------
	.byte	W96
@ 064   ----------------------------------------
	.byte	W96
@ 065   ----------------------------------------
	.byte	W96
@ 066   ----------------------------------------
	.byte	W96
@ 067   ----------------------------------------
	.byte	W96
@ 068   ----------------------------------------
	.byte	W96
@ 069   ----------------------------------------
	.byte	W96
@ 070   ----------------------------------------
	.byte	W96
@ 071   ----------------------------------------
	.byte	W96
@ 072   ----------------------------------------
	.byte	W96
@ 073   ----------------------------------------
	.byte	W96
@ 074   ----------------------------------------
	.byte	W96
@ 075   ----------------------------------------
	.byte	W96
@ 076   ----------------------------------------
	.byte	W96
@ 077   ----------------------------------------
	.byte	W96
@ 078   ----------------------------------------
	.byte	W96
@ 079   ----------------------------------------
	.byte	W96
@ 080   ----------------------------------------
	.byte	W96
@ 081   ----------------------------------------
	.byte	W96
@ 082   ----------------------------------------
	.byte	W96
@ 083   ----------------------------------------
	.byte	W96
@ 084   ----------------------------------------
	.byte	W96
@ 085   ----------------------------------------
	.byte		N96   , En1 , v100
	.byte	W96
@ 086   ----------------------------------------
	.byte		        Ds1 
	.byte	W96
@ 087   ----------------------------------------
	.byte		        Dn1 
	.byte	W96
@ 088   ----------------------------------------
	.byte	PATT
	 .word	mus_th_crazy_backup_dancers_5_004
@ 089   ----------------------------------------
	.byte	PATT
	 .word	mus_th_crazy_backup_dancers_5_005
@ 090   ----------------------------------------
	.byte	PATT
	 .word	mus_th_crazy_backup_dancers_5_006
@ 091   ----------------------------------------
	.byte	PATT
	 .word	mus_th_crazy_backup_dancers_5_007
@ 092   ----------------------------------------
	.byte	PATT
	 .word	mus_th_crazy_backup_dancers_5_004
@ 093   ----------------------------------------
	.byte	PATT
	 .word	mus_th_crazy_backup_dancers_5_005
@ 094   ----------------------------------------
	.byte	PATT
	 .word	mus_th_crazy_backup_dancers_5_006
@ 095   ----------------------------------------
	.byte	PATT
	 .word	mus_th_crazy_backup_dancers_5_007
@ 096   ----------------------------------------
	.byte	PATT
	 .word	mus_th_crazy_backup_dancers_5_004
@ 097   ----------------------------------------
	.byte		TIE   , En1 , v100
	.byte	W96
@ 098   ----------------------------------------
	.byte	W96
	.byte		EOT   
@ 099   ----------------------------------------
	.byte		TIE   , Cn2 
	.byte	W96
@ 100   ----------------------------------------
	.byte	W96
	.byte		EOT   
@ 101   ----------------------------------------
	.byte		TIE   , En1 
	.byte	W96
@ 102   ----------------------------------------
	.byte	W96
@ 103   ----------------------------------------
	.byte	W24
	.byte		EOT   
	.byte		N12   , Fs1 
	.byte	W12
	.byte		        Gn1 
	.byte	W36
	.byte		        As1 
	.byte	W12
	.byte		        En1 
	.byte	W12
@ 104   ----------------------------------------
	.byte	PATT
	 .word	mus_th_crazy_backup_dancers_5_020
@ 105   ----------------------------------------
	.byte	W96
@ 106   ----------------------------------------
	.byte	W96
@ 107   ----------------------------------------
	.byte	W96
@ 108   ----------------------------------------
	.byte	W96
@ 109   ----------------------------------------
	.byte	W96
@ 110   ----------------------------------------
	.byte	W96
@ 111   ----------------------------------------
	.byte	W96
@ 112   ----------------------------------------
	.byte	W96
@ 113   ----------------------------------------
	.byte	W96
@ 114   ----------------------------------------
	.byte	W96
@ 115   ----------------------------------------
	.byte	W96
@ 116   ----------------------------------------
	.byte	W96
@ 117   ----------------------------------------
	.byte	W96
@ 118   ----------------------------------------
	.byte	W96
@ 119   ----------------------------------------
	.byte	W96
@ 120   ----------------------------------------
	.byte	W96
@ 121   ----------------------------------------
	.byte	W96
@ 122   ----------------------------------------
	.byte	W96
@ 123   ----------------------------------------
	.byte	W96
@ 124   ----------------------------------------
	.byte	W96
@ 125   ----------------------------------------
	.byte	W96
@ 126   ----------------------------------------
	.byte	W96
@ 127   ----------------------------------------
	.byte	W96
@ 128   ----------------------------------------
	.byte	W96
@ 129   ----------------------------------------
	.byte	W96
@ 130   ----------------------------------------
	.byte	W96
@ 131   ----------------------------------------
	.byte	W96
@ 132   ----------------------------------------
	.byte	W96
@ 133   ----------------------------------------
	.byte	W96
@ 134   ----------------------------------------
	.byte	W96
@ 135   ----------------------------------------
	.byte	W96
@ 136   ----------------------------------------
	.byte	W96
@ 137   ----------------------------------------
	.byte	W96
@ 138   ----------------------------------------
	.byte	W96
@ 139   ----------------------------------------
	.byte	W96
@ 140   ----------------------------------------
	.byte	W96
@ 141   ----------------------------------------
	.byte	W96
@ 142   ----------------------------------------
	.byte	W96
@ 143   ----------------------------------------
	.byte	W96
@ 144   ----------------------------------------
	.byte	W96
@ 145   ----------------------------------------
	.byte	W96
@ 146   ----------------------------------------
	.byte	W96
@ 147   ----------------------------------------
	.byte	W96
@ 148   ----------------------------------------
	.byte	W96
@ 149   ----------------------------------------
	.byte	W96
@ 150   ----------------------------------------
	.byte	W96
@ 151   ----------------------------------------
	.byte	W96
@ 152   ----------------------------------------
	.byte	W96
@ 153   ----------------------------------------
	.byte	W96
@ 154   ----------------------------------------
	.byte	W96
@ 155   ----------------------------------------
	.byte	W96
@ 156   ----------------------------------------
	.byte	W96
@ 157   ----------------------------------------
	.byte	W96
@ 158   ----------------------------------------
	.byte	W96
@ 159   ----------------------------------------
	.byte	W96
@ 160   ----------------------------------------
	.byte	W96
@ 161   ----------------------------------------
	.byte	W96
@ 162   ----------------------------------------
	.byte	W96
@ 163   ----------------------------------------
	.byte	W96
@ 164   ----------------------------------------
	.byte	W96
@ 165   ----------------------------------------
	.byte	W96
@ 166   ----------------------------------------
	.byte	W96
@ 167   ----------------------------------------
	.byte	W96
@ 168   ----------------------------------------
	.byte	W96
	.byte	GOTO
	 .word	mus_th_crazy_backup_dancers_5_B1
mus_th_crazy_backup_dancers_5_B2:
@ 169   ----------------------------------------
	.byte		N96   , En1 , v100
	.byte	W96
@ 170   ----------------------------------------
	.byte		        Ds1 
	.byte	W96
@ 171   ----------------------------------------
	.byte		        Dn1 
	.byte	W96
@ 172   ----------------------------------------
	.byte	PATT
	 .word	mus_th_crazy_backup_dancers_5_004
@ 173   ----------------------------------------
	.byte	PATT
	 .word	mus_th_crazy_backup_dancers_5_005
@ 174   ----------------------------------------
	.byte	PATT
	 .word	mus_th_crazy_backup_dancers_5_006
@ 175   ----------------------------------------
	.byte	PATT
	 .word	mus_th_crazy_backup_dancers_5_007
@ 176   ----------------------------------------
	.byte	PATT
	 .word	mus_th_crazy_backup_dancers_5_004
@ 177   ----------------------------------------
	.byte	PATT
	 .word	mus_th_crazy_backup_dancers_5_005
@ 178   ----------------------------------------
	.byte	PATT
	 .word	mus_th_crazy_backup_dancers_5_006
@ 179   ----------------------------------------
	.byte	PATT
	 .word	mus_th_crazy_backup_dancers_5_007
@ 180   ----------------------------------------
	.byte	PATT
	 .word	mus_th_crazy_backup_dancers_5_004
@ 181   ----------------------------------------
	.byte		TIE   , En1 , v100
	.byte	W96
@ 182   ----------------------------------------
	.byte	W96
	.byte		EOT   
@ 183   ----------------------------------------
	.byte		TIE   , Cn2 
	.byte	W96
@ 184   ----------------------------------------
	.byte	W96
	.byte		EOT   
@ 185   ----------------------------------------
	.byte		TIE   , En1 
	.byte	W96
@ 186   ----------------------------------------
	.byte	W96
@ 187   ----------------------------------------
	.byte	W24
	.byte		EOT   
	.byte		N12   , Fs1 
	.byte	W12
	.byte		        Gn1 
	.byte	W36
	.byte		        As1 
	.byte	W12
	.byte		        En1 
	.byte	W12
@ 188   ----------------------------------------
	.byte	PATT
	 .word	mus_th_crazy_backup_dancers_5_020
@ 189   ----------------------------------------
	.byte	FINE

@**************** Track 6 (Midi-Chn.6) ****************@

mus_th_crazy_backup_dancers_6:
	.byte	KEYSH , mus_th_crazy_backup_dancers_key+0
@ 000   ----------------------------------------
	.byte	W24
	.byte		VOL   , 120*mus_th_crazy_backup_dancers_mvl/mxv
	.byte	W03
	.byte		PAN   , c_v+0
	.byte	W03
	.byte		VOICE , 61
	.byte	W03
	.byte	W03
	.byte	W03
	.byte	W03
	.byte		BEND  , c_v+0
	.byte	W03
	.byte		MOD   , 8
	.byte	W03
	.byte	W03
	.byte	W03
	.byte	W03
	.byte	W03
	.byte	W03
	.byte	W03
	.byte	W03
	.byte	W03
	.byte	W24
@ 001   ----------------------------------------
	.byte	W96
@ 002   ----------------------------------------
	.byte	W96
@ 003   ----------------------------------------
	.byte	W96
@ 004   ----------------------------------------
	.byte	W96
@ 005   ----------------------------------------
	.byte	W96
@ 006   ----------------------------------------
	.byte	W96
@ 007   ----------------------------------------
	.byte	W96
@ 008   ----------------------------------------
	.byte	W96
@ 009   ----------------------------------------
	.byte	W96
@ 010   ----------------------------------------
	.byte	W96
@ 011   ----------------------------------------
	.byte	W96
@ 012   ----------------------------------------
	.byte	W96
@ 013   ----------------------------------------
	.byte	W96
@ 014   ----------------------------------------
	.byte	W96
@ 015   ----------------------------------------
	.byte	W96
@ 016   ----------------------------------------
	.byte	W96
@ 017   ----------------------------------------
	.byte	W96
@ 018   ----------------------------------------
	.byte	W96
@ 019   ----------------------------------------
	.byte	W96
@ 020   ----------------------------------------
	.byte	W96
mus_th_crazy_backup_dancers_6_B1:
@ 021   ----------------------------------------
	.byte	W96
@ 022   ----------------------------------------
	.byte	W96
@ 023   ----------------------------------------
	.byte	W96
@ 024   ----------------------------------------
	.byte	W96
@ 025   ----------------------------------------
	.byte	W96
@ 026   ----------------------------------------
	.byte	W96
@ 027   ----------------------------------------
	.byte	W96
@ 028   ----------------------------------------
	.byte	W96
@ 029   ----------------------------------------
	.byte	W96
@ 030   ----------------------------------------
	.byte	W96
@ 031   ----------------------------------------
	.byte	W96
@ 032   ----------------------------------------
	.byte	W96
@ 033   ----------------------------------------
	.byte	W96
@ 034   ----------------------------------------
	.byte	W96
@ 035   ----------------------------------------
	.byte	W96
@ 036   ----------------------------------------
	.byte	W96
@ 037   ----------------------------------------
	.byte	W96
@ 038   ----------------------------------------
	.byte	W96
@ 039   ----------------------------------------
	.byte	W96
@ 040   ----------------------------------------
	.byte	W96
@ 041   ----------------------------------------
	.byte	W96
@ 042   ----------------------------------------
	.byte	W96
@ 043   ----------------------------------------
	.byte	W96
@ 044   ----------------------------------------
	.byte	W96
@ 045   ----------------------------------------
	.byte	W96
@ 046   ----------------------------------------
	.byte	W96
@ 047   ----------------------------------------
	.byte	W96
@ 048   ----------------------------------------
	.byte	W96
@ 049   ----------------------------------------
	.byte	W96
@ 050   ----------------------------------------
	.byte	W96
@ 051   ----------------------------------------
	.byte	W96
@ 052   ----------------------------------------
	.byte	W96
@ 053   ----------------------------------------
	.byte	W96
@ 054   ----------------------------------------
	.byte	W96
@ 055   ----------------------------------------
	.byte	W96
@ 056   ----------------------------------------
	.byte	W96
@ 057   ----------------------------------------
	.byte	W96
@ 058   ----------------------------------------
	.byte	W96
@ 059   ----------------------------------------
	.byte	W96
@ 060   ----------------------------------------
	.byte	W96
@ 061   ----------------------------------------
	.byte	W96
@ 062   ----------------------------------------
	.byte	W96
@ 063   ----------------------------------------
	.byte	W96
@ 064   ----------------------------------------
	.byte	W96
@ 065   ----------------------------------------
	.byte	W96
@ 066   ----------------------------------------
	.byte	W96
@ 067   ----------------------------------------
	.byte	W96
@ 068   ----------------------------------------
	.byte	W96
@ 069   ----------------------------------------
	.byte	W96
@ 070   ----------------------------------------
	.byte	W96
@ 071   ----------------------------------------
	.byte	W96
@ 072   ----------------------------------------
	.byte	W96
@ 073   ----------------------------------------
	.byte	W96
@ 074   ----------------------------------------
	.byte	W96
@ 075   ----------------------------------------
	.byte	W96
@ 076   ----------------------------------------
	.byte	W96
@ 077   ----------------------------------------
	.byte	W96
@ 078   ----------------------------------------
	.byte	W96
@ 079   ----------------------------------------
	.byte	W96
@ 080   ----------------------------------------
	.byte	W96
@ 081   ----------------------------------------
	.byte	W96
@ 082   ----------------------------------------
	.byte	W96
@ 083   ----------------------------------------
	.byte	W96
@ 084   ----------------------------------------
	.byte	W96
@ 085   ----------------------------------------
	.byte	W96
@ 086   ----------------------------------------
	.byte	W96
@ 087   ----------------------------------------
	.byte	W96
@ 088   ----------------------------------------
	.byte	W96
@ 089   ----------------------------------------
	.byte	W96
@ 090   ----------------------------------------
	.byte	W96
@ 091   ----------------------------------------
	.byte	W96
@ 092   ----------------------------------------
	.byte	W96
@ 093   ----------------------------------------
	.byte	W96
@ 094   ----------------------------------------
	.byte	W96
@ 095   ----------------------------------------
	.byte	W96
@ 096   ----------------------------------------
	.byte	W96
@ 097   ----------------------------------------
	.byte		TIE   , Cn3 , v100
	.byte	W96
@ 098   ----------------------------------------
	.byte	W96
	.byte		EOT   
@ 099   ----------------------------------------
	.byte		TIE   , Cn4 
	.byte	W96
@ 100   ----------------------------------------
	.byte	W24
	.byte		EOT   
	.byte		N06   , As3 , v060
	.byte	W06
	.byte		        An3 
	.byte	W06
	.byte		        Gs3 
	.byte	W06
	.byte		        Gn3 
	.byte	W54
@ 101   ----------------------------------------
	.byte		TIE   , Bn3 , v100
	.byte	W96
@ 102   ----------------------------------------
	.byte	W96
@ 103   ----------------------------------------
	.byte	W96
@ 104   ----------------------------------------
	.byte	W96
	.byte		EOT   
@ 105   ----------------------------------------
	.byte	W96
@ 106   ----------------------------------------
	.byte	W96
@ 107   ----------------------------------------
	.byte	W96
@ 108   ----------------------------------------
	.byte	W96
@ 109   ----------------------------------------
	.byte	W96
@ 110   ----------------------------------------
	.byte	W96
@ 111   ----------------------------------------
	.byte	W96
@ 112   ----------------------------------------
	.byte	W96
@ 113   ----------------------------------------
	.byte	W96
@ 114   ----------------------------------------
	.byte	W96
@ 115   ----------------------------------------
	.byte	W96
@ 116   ----------------------------------------
	.byte	W96
@ 117   ----------------------------------------
	.byte	W96
@ 118   ----------------------------------------
	.byte	W96
@ 119   ----------------------------------------
	.byte	W96
@ 120   ----------------------------------------
	.byte	W96
@ 121   ----------------------------------------
mus_th_crazy_backup_dancers_6_121:
	.byte		N24   , Fn3 , v100
	.byte		N24   , Fn4 
	.byte	W24
	.byte		        Cn4 
	.byte		N24   , Cn5 
	.byte	W24
	.byte		        Bn3 
	.byte		N24   , Bn4 
	.byte	W24
	.byte		        Cn4 
	.byte		N24   , Cn5 
	.byte	W24
	.byte	PEND
@ 122   ----------------------------------------
mus_th_crazy_backup_dancers_6_122:
	.byte		N24   , Fn4 , v100
	.byte		N24   , Fn5 
	.byte	W24
	.byte		        Cn4 
	.byte		N24   , Cn5 
	.byte	W24
	.byte		        Bn3 
	.byte		N24   , Bn4 
	.byte	W24
	.byte		        Gs3 
	.byte		N24   , Gs4 
	.byte	W24
	.byte	PEND
@ 123   ----------------------------------------
mus_th_crazy_backup_dancers_6_123:
	.byte		N24   , As3 , v100
	.byte		N24   , As4 
	.byte	W24
	.byte		        Gs3 
	.byte		N24   , Gs4 
	.byte	W24
	.byte		        Gn3 
	.byte		N24   , Gn4 
	.byte	W24
	.byte		        Gs3 
	.byte		N24   , Gs4 
	.byte	W24
	.byte	PEND
@ 124   ----------------------------------------
mus_th_crazy_backup_dancers_6_124:
	.byte		N24   , Gn3 , v100
	.byte		N24   , Gn4 
	.byte	W24
	.byte		        Ds3 
	.byte		N24   , Ds4 
	.byte	W24
	.byte		N48   , Cn3 
	.byte		N48   , Cn4 
	.byte	W48
	.byte	PEND
@ 125   ----------------------------------------
	.byte	PATT
	 .word	mus_th_crazy_backup_dancers_6_121
@ 126   ----------------------------------------
mus_th_crazy_backup_dancers_6_126:
	.byte		N24   , Fn4 , v100
	.byte		N24   , Fn5 
	.byte	W24
	.byte		        Cn4 
	.byte		N24   , Cn5 
	.byte	W24
	.byte		        Bn3 
	.byte		N24   , Bn4 
	.byte	W24
	.byte		        Gn4 
	.byte		N24   , Gn5 
	.byte	W24
	.byte	PEND
@ 127   ----------------------------------------
mus_th_crazy_backup_dancers_6_127:
	.byte		N24   , Gs4 , v100
	.byte		N24   , Gs5 
	.byte	W24
	.byte		        Gn4 
	.byte		N24   , Gn5 
	.byte	W24
	.byte		        Ds4 
	.byte		N24   , Ds5 
	.byte	W24
	.byte		        Fn4 
	.byte		N24   , Fn5 
	.byte	W24
	.byte	PEND
@ 128   ----------------------------------------
mus_th_crazy_backup_dancers_6_128:
	.byte		N24   , Cn4 , v100
	.byte		N24   , Cn5 
	.byte	W24
	.byte		        En4 
	.byte		N24   , En5 
	.byte	W24
	.byte		N48   , Fn4 
	.byte		N48   , Fn5 
	.byte	W48
	.byte	PEND
@ 129   ----------------------------------------
	.byte	PATT
	 .word	mus_th_crazy_backup_dancers_6_121
@ 130   ----------------------------------------
	.byte	PATT
	 .word	mus_th_crazy_backup_dancers_6_122
@ 131   ----------------------------------------
	.byte	PATT
	 .word	mus_th_crazy_backup_dancers_6_123
@ 132   ----------------------------------------
	.byte	PATT
	 .word	mus_th_crazy_backup_dancers_6_124
@ 133   ----------------------------------------
	.byte	PATT
	 .word	mus_th_crazy_backup_dancers_6_121
@ 134   ----------------------------------------
	.byte	PATT
	 .word	mus_th_crazy_backup_dancers_6_126
@ 135   ----------------------------------------
	.byte	PATT
	 .word	mus_th_crazy_backup_dancers_6_127
@ 136   ----------------------------------------
	.byte	PATT
	 .word	mus_th_crazy_backup_dancers_6_128
@ 137   ----------------------------------------
mus_th_crazy_backup_dancers_6_137:
	.byte		N96   , Fn3 , v100
	.byte		N96   , Fn4 
	.byte		N96   , Fn5 
	.byte	W96
	.byte	PEND
@ 138   ----------------------------------------
	.byte		N48   , Gn3 
	.byte		N48   , Gn4 
	.byte		N48   , Gn5 
	.byte	W48
	.byte		N24   , Fn3 
	.byte		N24   , Fn4 
	.byte		N24   , Fn5 
	.byte	W24
	.byte		        Gn3 
	.byte		N24   , Gn4 
	.byte		N24   , Gn5 
	.byte	W24
@ 139   ----------------------------------------
mus_th_crazy_backup_dancers_6_139:
	.byte		N48   , Gs3 , v100
	.byte		N48   , Gs4 
	.byte		N48   , Gs5 
	.byte	W48
	.byte		        As3 
	.byte		N48   , As4 
	.byte		N48   , As5 
	.byte	W48
	.byte	PEND
@ 140   ----------------------------------------
	.byte		        Gn3 
	.byte		N48   , Gn4 
	.byte		N48   , Gn5 
	.byte	W48
	.byte		        Ds3 
	.byte		N48   , Ds4 
	.byte		N48   , Ds5 
	.byte	W48
@ 141   ----------------------------------------
mus_th_crazy_backup_dancers_6_141:
	.byte		N96   , Cn3 , v100
	.byte		N96   , Cn4 
	.byte		N96   , Cn5 
	.byte	W96
	.byte	PEND
@ 142   ----------------------------------------
	.byte		        Cn4 
	.byte		N96   , Cn5 
	.byte		N96   , Cn6 
	.byte	W96
@ 143   ----------------------------------------
	.byte		N48   , Gs3 
	.byte		N48   , Gs4 
	.byte		N48   , Gs5 
	.byte	W48
	.byte		        Gn3 
	.byte		N48   , Gn4 
	.byte		N48   , Gn5 
	.byte	W48
@ 144   ----------------------------------------
	.byte		        Fn3 
	.byte		N48   , Fn4 
	.byte		N48   , Fn5 
	.byte	W48
	.byte		        Ds3 
	.byte		N48   , Ds4 
	.byte		N48   , Ds5 
	.byte	W48
@ 145   ----------------------------------------
	.byte		N96   , Cs3 
	.byte		N96   , Cs4 
	.byte		N96   , Cs5 
	.byte	W96
@ 146   ----------------------------------------
	.byte		N48   , Ds3 
	.byte		N48   , Ds4 
	.byte		N48   , Ds5 
	.byte	W48
	.byte		        Fn3 
	.byte		N48   , Fn4 
	.byte		N48   , Fn5 
	.byte	W48
@ 147   ----------------------------------------
	.byte		N96   , En3 
	.byte		N96   , En4 
	.byte		N96   , En5 
	.byte	W96
@ 148   ----------------------------------------
	.byte		N48   , Cn3 
	.byte		N48   , Cn4 
	.byte		N48   , Cn5 
	.byte	W48
	.byte		        En3 
	.byte		N48   , En4 
	.byte		N48   , En5 
	.byte	W48
@ 149   ----------------------------------------
	.byte	PATT
	 .word	mus_th_crazy_backup_dancers_6_137
@ 150   ----------------------------------------
	.byte	PATT
	 .word	mus_th_crazy_backup_dancers_6_139
@ 151   ----------------------------------------
	.byte		N48   , Gn3 , v100
	.byte		N48   , Gn4 
	.byte		N48   , Gn5 
	.byte	W48
	.byte		        Fn3 
	.byte		N48   , Fn4 
	.byte		N48   , Fn5 
	.byte	W48
@ 152   ----------------------------------------
	.byte	PATT
	 .word	mus_th_crazy_backup_dancers_6_141
@ 153   ----------------------------------------
mus_th_crazy_backup_dancers_6_153:
	.byte		N96   , Gs3 , v100
	.byte		N96   , Gs4 
	.byte		N96   , Gs5 
	.byte	W96
	.byte	PEND
@ 154   ----------------------------------------
	.byte		N48   , As3 
	.byte		N48   , As4 
	.byte		N48   , As5 
	.byte	W48
	.byte		N24   , Gs3 
	.byte		N24   , Gs4 
	.byte		N24   , Gs5 
	.byte	W24
	.byte		        As3 
	.byte		N24   , As4 
	.byte		N24   , As5 
	.byte	W24
@ 155   ----------------------------------------
	.byte		N48   , Cn4 
	.byte		N48   , Cn5 
	.byte		N48   , Cn6 
	.byte	W48
	.byte		        Ds4 
	.byte		N48   , Ds5 
	.byte		N48   , Ds6 
	.byte	W48
@ 156   ----------------------------------------
	.byte		        As3 
	.byte		N48   , As4 
	.byte		N48   , As5 
	.byte	W48
	.byte		        Gn3 
	.byte		N48   , Gn4 
	.byte		N48   , Gn5 
	.byte	W48
@ 157   ----------------------------------------
	.byte	PATT
	 .word	mus_th_crazy_backup_dancers_6_153
@ 158   ----------------------------------------
mus_th_crazy_backup_dancers_6_158:
	.byte		N96   , En4 , v100
	.byte		N96   , En5 
	.byte		N96   , En6 
	.byte	W96
	.byte	PEND
@ 159   ----------------------------------------
	.byte		TIE   , Fn4 
	.byte		TIE   , Fn5 
	.byte		TIE   , Fn6 
	.byte	W96
@ 160   ----------------------------------------
	.byte	W48
	.byte		EOT   , Fn4 
	.byte		        Fn5 
	.byte		        Fn6 
	.byte	W48
@ 161   ----------------------------------------
	.byte		N96   , Cs4 
	.byte		N96   , Cs5 
	.byte		N96   , Cs6 
	.byte	W96
@ 162   ----------------------------------------
	.byte		N48   , Ds4 
	.byte		N48   , Ds5 
	.byte		N48   , Ds6 
	.byte	W48
	.byte		        Fn4 
	.byte		N48   , Fn5 
	.byte		N48   , Fn6 
	.byte	W48
@ 163   ----------------------------------------
	.byte	PATT
	 .word	mus_th_crazy_backup_dancers_6_158
@ 164   ----------------------------------------
mus_th_crazy_backup_dancers_6_164:
	.byte		N96   , Gn4 , v100
	.byte		N96   , Gn5 
	.byte		N96   , Gn6 
	.byte	W96
	.byte	PEND
@ 165   ----------------------------------------
	.byte		        Dn4 
	.byte		N96   , Dn5 
	.byte		N96   , Dn6 
	.byte	W96
@ 166   ----------------------------------------
	.byte	PATT
	 .word	mus_th_crazy_backup_dancers_6_164
@ 167   ----------------------------------------
	.byte		N96   , Fn4 , v100
	.byte		N96   , Fn5 
	.byte		N96   , Fn6 
	.byte	W96
@ 168   ----------------------------------------
	.byte		N24   , En4 , v080
	.byte		N24   , Gn4 
	.byte		N24   , En5 
	.byte		N24   , En6 
	.byte	W24
	.byte		        En4 
	.byte		N24   , Gn4 
	.byte		N24   , En5 
	.byte		N24   , En6 
	.byte	W24
	.byte		        En4 
	.byte		N24   , Gn4 
	.byte		N24   , En5 
	.byte		N24   , En6 
	.byte	W24
	.byte		        En4 
	.byte		N24   , Gn4 
	.byte		N24   , En5 
	.byte		N24   , En6 
	.byte	W24
	.byte	GOTO
	 .word	mus_th_crazy_backup_dancers_6_B1
mus_th_crazy_backup_dancers_6_B2:
@ 169   ----------------------------------------
	.byte	W96
@ 170   ----------------------------------------
	.byte	W96
@ 171   ----------------------------------------
	.byte	W96
@ 172   ----------------------------------------
	.byte	W96
@ 173   ----------------------------------------
	.byte	W96
@ 174   ----------------------------------------
	.byte	W96
@ 175   ----------------------------------------
	.byte	W96
@ 176   ----------------------------------------
	.byte	W96
@ 177   ----------------------------------------
	.byte		N24   , Cn5 , v100
	.byte	W24
	.byte		        Ds4 
	.byte	W24
	.byte		        Dn4 
	.byte	W24
	.byte		        Bn4 
	.byte	W24
@ 178   ----------------------------------------
	.byte		        As4 
	.byte	W24
	.byte		        Cs4 
	.byte	W24
	.byte		        Cn4 
	.byte	W24
	.byte		        An4 
	.byte	W24
@ 179   ----------------------------------------
	.byte		        Gs4 
	.byte	W24
	.byte		        Bn3 
	.byte	W24
	.byte		        As3 
	.byte	W24
	.byte		        Gn4 
	.byte	W24
@ 180   ----------------------------------------
	.byte		        Fs4 
	.byte	W24
	.byte		        An3 
	.byte	W24
	.byte		        Gs3 
	.byte	W24
	.byte		        Fn4 
	.byte	W24
@ 181   ----------------------------------------
	.byte		TIE   , Cn3 
	.byte		N24   , Cn4 
	.byte	W24
	.byte		        En3 
	.byte		N24   , En4 
	.byte	W24
	.byte		        Fs3 
	.byte		N24   , Fs4 
	.byte	W24
	.byte		        An3 
	.byte		N24   , An4 
	.byte	W24
@ 182   ----------------------------------------
	.byte		        Cn4 
	.byte		N24   , Cn5 
	.byte	W24
	.byte		        En4 
	.byte		N24   , En5 
	.byte	W24
	.byte		        Fs4 
	.byte		N24   , Fs5 
	.byte	W24
	.byte		        An4 
	.byte		N24   , An5 
	.byte	W24
	.byte		EOT   , Cn3 
@ 183   ----------------------------------------
	.byte		TIE   , Cn4 
	.byte		TIE   , Bn4 
	.byte		TIE   , Bn5 
	.byte	W96
@ 184   ----------------------------------------
	.byte	W24
	.byte		EOT   , Cn4 
	.byte		        Bn4 
	.byte		        Bn5 
	.byte		N06   , As3 , v060
	.byte		N06   , As4 
	.byte		N06   , As5 
	.byte	W06
	.byte		        An3 
	.byte		N06   , An4 
	.byte		N06   , An5 
	.byte	W06
	.byte		        Gs3 
	.byte		N06   , Gs4 
	.byte		N06   , Gs5 
	.byte	W06
	.byte		        Gn3 
	.byte		N06   , Gn4 
	.byte		N06   , Gn5 
	.byte	W36
	.byte		        Gs4 , v100
	.byte		N06   , Gs5 
	.byte	W06
	.byte		        An4 
	.byte		N06   , An5 
	.byte	W06
	.byte		        As4 
	.byte		N06   , As5 
	.byte	W06
@ 185   ----------------------------------------
	.byte		TIE   , Bn3 
	.byte		TIE   , Bn4 
	.byte		TIE   , Bn5 
	.byte	W96
@ 186   ----------------------------------------
	.byte	W96
@ 187   ----------------------------------------
	.byte	W96
@ 188   ----------------------------------------
	.byte	W96
	.byte		EOT   , Bn3 
	.byte		        Bn4 
	.byte		        Bn5 
@ 189   ----------------------------------------
	.byte	FINE

@**************** Track 7 (Midi-Chn.7) ****************@

mus_th_crazy_backup_dancers_7:
	.byte	KEYSH , mus_th_crazy_backup_dancers_key+0
@ 000   ----------------------------------------
	.byte	W24
	.byte		VOL   , 115*mus_th_crazy_backup_dancers_mvl/mxv
	.byte	W03
	.byte		PAN   , c_v+0
	.byte	W03
	.byte		VOICE , 52
	.byte	W03
	.byte	W03
	.byte	W03
	.byte	W03
	.byte		BEND  , c_v+0
	.byte	W03
	.byte		MOD   , 0
	.byte	W03
	.byte	W03
	.byte	W03
	.byte	W03
	.byte	W03
	.byte	W03
	.byte	W03
	.byte	W03
	.byte	W03
	.byte	W24
@ 001   ----------------------------------------
	.byte		N96   , Cn4 , v092
	.byte	W96
@ 002   ----------------------------------------
	.byte		        Bn3 
	.byte	W96
@ 003   ----------------------------------------
	.byte		        As3 
	.byte	W96
@ 004   ----------------------------------------
	.byte		        An3 
	.byte	W96
@ 005   ----------------------------------------
	.byte		        Gs3 
	.byte	W96
@ 006   ----------------------------------------
	.byte		        Gn3 
	.byte	W96
@ 007   ----------------------------------------
	.byte		        Fs3 
	.byte	W96
@ 008   ----------------------------------------
	.byte		        Fn3 
	.byte	W96
@ 009   ----------------------------------------
mus_th_crazy_backup_dancers_7_009:
	.byte		N48   , Cn3 , v092
	.byte	W48
	.byte		        Bn2 
	.byte	W48
	.byte	PEND
@ 010   ----------------------------------------
mus_th_crazy_backup_dancers_7_010:
	.byte		N48   , As2 , v092
	.byte	W48
	.byte		        An2 
	.byte	W48
	.byte	PEND
@ 011   ----------------------------------------
mus_th_crazy_backup_dancers_7_011:
	.byte		N48   , Gs2 , v092
	.byte	W48
	.byte		        Gn2 
	.byte	W48
	.byte	PEND
@ 012   ----------------------------------------
mus_th_crazy_backup_dancers_7_012:
	.byte		N48   , Fs2 , v092
	.byte	W48
	.byte		        Fn2 
	.byte	W48
	.byte	PEND
@ 013   ----------------------------------------
mus_th_crazy_backup_dancers_7_013:
	.byte		TIE   , Cn2 , v092
	.byte		TIE   , En2 
	.byte		TIE   , Gn2 
	.byte	W96
	.byte	PEND
@ 014   ----------------------------------------
	.byte	W96
	.byte		EOT   , Cn2 
	.byte		        En2 
	.byte		        Gn2 
@ 015   ----------------------------------------
mus_th_crazy_backup_dancers_7_015:
	.byte		TIE   , Cn2 , v092
	.byte		TIE   , Gn2 
	.byte		TIE   , Cn3 
	.byte	W96
	.byte	PEND
@ 016   ----------------------------------------
	.byte	W96
	.byte		EOT   , Cn2 
	.byte		        Gn2 
	.byte		        Cn3 
@ 017   ----------------------------------------
mus_th_crazy_backup_dancers_7_017:
	.byte		TIE   , Fs2 , v092
	.byte		TIE   , Bn2 
	.byte		TIE   , En3 
	.byte	W96
	.byte	PEND
@ 018   ----------------------------------------
	.byte	W96
@ 019   ----------------------------------------
	.byte	W96
@ 020   ----------------------------------------
	.byte	W96
	.byte		EOT   , Fs2 
	.byte		        Bn2 
	.byte		        En3 
mus_th_crazy_backup_dancers_7_B1:
@ 021   ----------------------------------------
	.byte	W96
@ 022   ----------------------------------------
	.byte	W96
@ 023   ----------------------------------------
	.byte	W96
@ 024   ----------------------------------------
	.byte	W96
@ 025   ----------------------------------------
	.byte	W96
@ 026   ----------------------------------------
	.byte	W96
@ 027   ----------------------------------------
mus_th_crazy_backup_dancers_7_027:
	.byte		N24   , Cn3 , v112
	.byte	W48
	.byte		        Dn3 
	.byte	W48
	.byte	PEND
@ 028   ----------------------------------------
mus_th_crazy_backup_dancers_7_028:
	.byte		N24   , Ds3 , v112
	.byte	W48
	.byte		        En3 
	.byte	W48
	.byte	PEND
@ 029   ----------------------------------------
	.byte	W96
@ 030   ----------------------------------------
	.byte	W96
@ 031   ----------------------------------------
	.byte	W96
@ 032   ----------------------------------------
	.byte	W96
@ 033   ----------------------------------------
	.byte	W96
@ 034   ----------------------------------------
	.byte	W96
@ 035   ----------------------------------------
	.byte	PATT
	 .word	mus_th_crazy_backup_dancers_7_027
@ 036   ----------------------------------------
	.byte	PATT
	 .word	mus_th_crazy_backup_dancers_7_028
@ 037   ----------------------------------------
	.byte	W96
@ 038   ----------------------------------------
	.byte	W96
@ 039   ----------------------------------------
	.byte	W96
@ 040   ----------------------------------------
	.byte	W96
@ 041   ----------------------------------------
	.byte	W96
@ 042   ----------------------------------------
	.byte	W96
@ 043   ----------------------------------------
	.byte	PATT
	 .word	mus_th_crazy_backup_dancers_7_027
@ 044   ----------------------------------------
	.byte	PATT
	 .word	mus_th_crazy_backup_dancers_7_028
@ 045   ----------------------------------------
	.byte	W96
@ 046   ----------------------------------------
	.byte	W96
@ 047   ----------------------------------------
	.byte	W96
@ 048   ----------------------------------------
	.byte	W96
@ 049   ----------------------------------------
	.byte	W96
@ 050   ----------------------------------------
	.byte	W96
@ 051   ----------------------------------------
	.byte	PATT
	 .word	mus_th_crazy_backup_dancers_7_027
@ 052   ----------------------------------------
	.byte	PATT
	 .word	mus_th_crazy_backup_dancers_7_028
@ 053   ----------------------------------------
	.byte	W96
@ 054   ----------------------------------------
	.byte	W96
@ 055   ----------------------------------------
	.byte	W96
@ 056   ----------------------------------------
	.byte	W96
@ 057   ----------------------------------------
	.byte	W96
@ 058   ----------------------------------------
	.byte	W96
@ 059   ----------------------------------------
	.byte	W96
@ 060   ----------------------------------------
	.byte	W96
@ 061   ----------------------------------------
	.byte	W96
@ 062   ----------------------------------------
	.byte	W96
@ 063   ----------------------------------------
	.byte	W96
@ 064   ----------------------------------------
	.byte	W96
@ 065   ----------------------------------------
	.byte	W96
@ 066   ----------------------------------------
	.byte	W96
@ 067   ----------------------------------------
	.byte	W96
@ 068   ----------------------------------------
	.byte	W96
@ 069   ----------------------------------------
	.byte		N72   , En3 , v112
	.byte	W96
@ 070   ----------------------------------------
	.byte		        Fs3 
	.byte	W96
@ 071   ----------------------------------------
	.byte		        Gn3 
	.byte	W96
@ 072   ----------------------------------------
	.byte		        An3 
	.byte	W96
@ 073   ----------------------------------------
	.byte		        Fs3 
	.byte	W96
@ 074   ----------------------------------------
	.byte		        Bn3 
	.byte	W96
@ 075   ----------------------------------------
	.byte		        Fs3 
	.byte	W96
@ 076   ----------------------------------------
	.byte		        Gn3 
	.byte	W96
@ 077   ----------------------------------------
	.byte		        Cn3 
	.byte	W96
@ 078   ----------------------------------------
	.byte		        Dn3 
	.byte	W96
@ 079   ----------------------------------------
	.byte		        Ds3 
	.byte	W96
@ 080   ----------------------------------------
	.byte		        Fs3 
	.byte	W96
@ 081   ----------------------------------------
	.byte		        Cs3 
	.byte	W96
@ 082   ----------------------------------------
	.byte		        En3 
	.byte	W96
@ 083   ----------------------------------------
	.byte		        Fs3 
	.byte	W96
@ 084   ----------------------------------------
	.byte		N24   , Ds3 
	.byte		N24   , Fs3 
	.byte	W24
	.byte		        Ds3 
	.byte		N24   , Fs3 
	.byte	W24
	.byte		        Ds3 
	.byte		N24   , Fs3 
	.byte	W24
	.byte		        Ds3 
	.byte		N24   , Fs3 
	.byte	W24
@ 085   ----------------------------------------
	.byte		N96   , Cn4 , v092
	.byte	W96
@ 086   ----------------------------------------
	.byte		        Bn3 
	.byte	W96
@ 087   ----------------------------------------
	.byte		        As3 
	.byte	W96
@ 088   ----------------------------------------
	.byte		        An3 
	.byte	W96
@ 089   ----------------------------------------
	.byte		        Gs3 
	.byte	W96
@ 090   ----------------------------------------
	.byte		        Gn3 
	.byte	W96
@ 091   ----------------------------------------
	.byte		        Fs3 
	.byte	W96
@ 092   ----------------------------------------
	.byte		        Fn3 
	.byte	W96
@ 093   ----------------------------------------
	.byte	PATT
	 .word	mus_th_crazy_backup_dancers_7_009
@ 094   ----------------------------------------
	.byte	PATT
	 .word	mus_th_crazy_backup_dancers_7_010
@ 095   ----------------------------------------
	.byte	PATT
	 .word	mus_th_crazy_backup_dancers_7_011
@ 096   ----------------------------------------
	.byte	PATT
	 .word	mus_th_crazy_backup_dancers_7_012
@ 097   ----------------------------------------
	.byte	PATT
	 .word	mus_th_crazy_backup_dancers_7_013
@ 098   ----------------------------------------
	.byte	W96
	.byte		EOT   , Cn2 
	.byte		        En2 
	.byte		        Gn2 
@ 099   ----------------------------------------
	.byte	PATT
	 .word	mus_th_crazy_backup_dancers_7_015
@ 100   ----------------------------------------
	.byte	W96
	.byte		EOT   , Cn2 
	.byte		        Gn2 
	.byte		        Cn3 
@ 101   ----------------------------------------
	.byte	PATT
	 .word	mus_th_crazy_backup_dancers_7_017
@ 102   ----------------------------------------
	.byte	W96
@ 103   ----------------------------------------
	.byte	W96
@ 104   ----------------------------------------
	.byte	W96
	.byte		EOT   , Fs2 
	.byte		        Bn2 
	.byte		        En3 
@ 105   ----------------------------------------
	.byte	W96
@ 106   ----------------------------------------
	.byte	W96
@ 107   ----------------------------------------
	.byte	W96
@ 108   ----------------------------------------
	.byte	W96
@ 109   ----------------------------------------
	.byte	W96
@ 110   ----------------------------------------
	.byte	W96
@ 111   ----------------------------------------
	.byte	W96
@ 112   ----------------------------------------
	.byte	W96
@ 113   ----------------------------------------
	.byte	W96
@ 114   ----------------------------------------
	.byte	W96
@ 115   ----------------------------------------
	.byte	W96
@ 116   ----------------------------------------
	.byte	W96
@ 117   ----------------------------------------
	.byte	W96
@ 118   ----------------------------------------
	.byte	W96
@ 119   ----------------------------------------
	.byte	W96
@ 120   ----------------------------------------
	.byte	W96
@ 121   ----------------------------------------
	.byte	W96
@ 122   ----------------------------------------
	.byte	W96
@ 123   ----------------------------------------
	.byte	W96
@ 124   ----------------------------------------
	.byte	W96
@ 125   ----------------------------------------
	.byte	W96
@ 126   ----------------------------------------
	.byte	W96
@ 127   ----------------------------------------
	.byte	W96
@ 128   ----------------------------------------
	.byte	W96
@ 129   ----------------------------------------
	.byte	W96
@ 130   ----------------------------------------
	.byte	W96
@ 131   ----------------------------------------
	.byte	W96
@ 132   ----------------------------------------
	.byte	W96
@ 133   ----------------------------------------
	.byte	W96
@ 134   ----------------------------------------
	.byte	W96
@ 135   ----------------------------------------
	.byte	W96
@ 136   ----------------------------------------
	.byte	W96
@ 137   ----------------------------------------
	.byte	W96
@ 138   ----------------------------------------
	.byte	W96
@ 139   ----------------------------------------
	.byte	W96
@ 140   ----------------------------------------
	.byte	W96
@ 141   ----------------------------------------
	.byte	W96
@ 142   ----------------------------------------
	.byte	W96
@ 143   ----------------------------------------
	.byte	W96
@ 144   ----------------------------------------
	.byte	W96
@ 145   ----------------------------------------
	.byte	W96
@ 146   ----------------------------------------
	.byte	W96
@ 147   ----------------------------------------
	.byte	W96
@ 148   ----------------------------------------
	.byte	W96
@ 149   ----------------------------------------
	.byte	W96
@ 150   ----------------------------------------
	.byte	W96
@ 151   ----------------------------------------
	.byte	W96
@ 152   ----------------------------------------
	.byte	W96
@ 153   ----------------------------------------
	.byte		N72   , Fn3 , v112
	.byte	W96
@ 154   ----------------------------------------
	.byte		        Gn3 
	.byte	W96
@ 155   ----------------------------------------
	.byte		        Gs3 
	.byte	W96
@ 156   ----------------------------------------
	.byte		        As3 
	.byte	W96
@ 157   ----------------------------------------
	.byte		        Gn3 
	.byte	W96
@ 158   ----------------------------------------
	.byte		        Cn4 
	.byte	W96
@ 159   ----------------------------------------
	.byte		        Gn3 
	.byte	W96
@ 160   ----------------------------------------
	.byte		        Gs3 
	.byte	W96
@ 161   ----------------------------------------
	.byte		        Cs3 
	.byte	W96
@ 162   ----------------------------------------
	.byte		        Ds3 
	.byte	W96
@ 163   ----------------------------------------
	.byte		        En3 
	.byte	W96
@ 164   ----------------------------------------
	.byte		        Gn3 
	.byte	W96
@ 165   ----------------------------------------
	.byte		        Dn3 
	.byte	W96
@ 166   ----------------------------------------
	.byte		        Fn3 
	.byte	W96
@ 167   ----------------------------------------
	.byte		        Gn3 
	.byte	W96
@ 168   ----------------------------------------
	.byte		N24   , En3 
	.byte		N24   , Gn3 
	.byte	W24
	.byte		        En3 
	.byte		N24   , Gn3 
	.byte	W24
	.byte		        En3 
	.byte		N24   , Gn3 
	.byte	W24
	.byte		        En3 
	.byte		N24   , Gn3 
	.byte	W24
	.byte	GOTO
	 .word	mus_th_crazy_backup_dancers_7_B1
mus_th_crazy_backup_dancers_7_B2:
@ 169   ----------------------------------------
	.byte		N96   , Cn4 , v092
	.byte	W96
@ 170   ----------------------------------------
	.byte		        Bn3 
	.byte	W96
@ 171   ----------------------------------------
	.byte		        As3 
	.byte	W96
@ 172   ----------------------------------------
	.byte		        An3 
	.byte	W96
@ 173   ----------------------------------------
	.byte		        Gs3 
	.byte	W96
@ 174   ----------------------------------------
	.byte		        Gn3 
	.byte	W96
@ 175   ----------------------------------------
	.byte		        Fs3 
	.byte	W96
@ 176   ----------------------------------------
	.byte		        Fn3 
	.byte	W96
@ 177   ----------------------------------------
	.byte	PATT
	 .word	mus_th_crazy_backup_dancers_7_009
@ 178   ----------------------------------------
	.byte	PATT
	 .word	mus_th_crazy_backup_dancers_7_010
@ 179   ----------------------------------------
	.byte	PATT
	 .word	mus_th_crazy_backup_dancers_7_011
@ 180   ----------------------------------------
	.byte	PATT
	 .word	mus_th_crazy_backup_dancers_7_012
@ 181   ----------------------------------------
	.byte	PATT
	 .word	mus_th_crazy_backup_dancers_7_013
@ 182   ----------------------------------------
	.byte	W96
	.byte		EOT   , Cn2 
	.byte		        En2 
	.byte		        Gn2 
@ 183   ----------------------------------------
	.byte	PATT
	 .word	mus_th_crazy_backup_dancers_7_015
@ 184   ----------------------------------------
	.byte	W96
	.byte		EOT   , Cn2 
	.byte		        Gn2 
	.byte		        Cn3 
@ 185   ----------------------------------------
	.byte	PATT
	 .word	mus_th_crazy_backup_dancers_7_017
@ 186   ----------------------------------------
	.byte	W96
@ 187   ----------------------------------------
	.byte	W96
@ 188   ----------------------------------------
	.byte	W96
	.byte		EOT   , Fs2 
	.byte		        Bn2 
	.byte		        En3 
@ 189   ----------------------------------------
	.byte	W02
	.byte	W04
	.byte	W05
	.byte	W07
	.byte	W05
	.byte	W07
	.byte	W05
	.byte	W07
	.byte	W05
	.byte	W07
	.byte	W08
	.byte	W04
	.byte	W08
	.byte	W04
	.byte	W08
	.byte	W04
	.byte	W06
@ 190   ----------------------------------------
	.byte	W02
	.byte	W04
	.byte	W08
	.byte	W04
	.byte	W08
	.byte	W04
	.byte	W08
	.byte	W07
	.byte	W05
	.byte	W07
	.byte	W05
	.byte	W07
	.byte	W05
	.byte	W07
	.byte	W05
	.byte	W07
	.byte	W03
@ 191   ----------------------------------------
	.byte	W02
	.byte	W07
	.byte	W05
	.byte	W07
	.byte	W05
	.byte	W07
	.byte	W07
	.byte	W05
	.byte	W07
	.byte	W05
	.byte	W07
	.byte	W05
	.byte	W07
	.byte	W05
	.byte	W07
	.byte	W05
	.byte	W03
@ 192   ----------------------------------------
	.byte	W04
	.byte	W05
	.byte	W07
	.byte	W07
	.byte	W05
	.byte	W07
	.byte	W05
	.byte	W07
	.byte	W05
	.byte	W07
	.byte	W05
	.byte	W07
	.byte	W05
	.byte	W07
	.byte	W05
	.byte	W07
	.byte	W01
@ 193   ----------------------------------------
	.byte	W06
	.byte	W05
	.byte	W07
	.byte	W05
	.byte	W07
	.byte	W05
	.byte	W07
	.byte	W05
	.byte	W07
	.byte	W05
	.byte	W07
	.byte	W05
	.byte	W07
	.byte	W08
	.byte	W04
	.byte	W06
@ 194   ----------------------------------------
	.byte	W02
	.byte	W04
	.byte	W08
	.byte	W04
	.byte	W08
	.byte	W04
	.byte	W08
	.byte	W04
	.byte	W08
	.byte	W04
	.byte	W08
	.byte	W04
	.byte	W08
	.byte	W07
	.byte	W05
	.byte	W07
	.byte	W03
@ 195   ----------------------------------------
	.byte		N24   , Cn3 , v112
	.byte	W02
	.byte	W07
	.byte	W05
	.byte	W07
	.byte	W05
	.byte	W07
	.byte	W05
	.byte	W07
	.byte	W03
	.byte		        Dn3 
	.byte	W02
	.byte	W07
	.byte	W07
	.byte	W05
	.byte	W07
	.byte	W05
	.byte	W07
	.byte	W05
	.byte	W03
@ 196   ----------------------------------------
	.byte		        Ds3 
	.byte	W04
	.byte	W05
	.byte	W07
	.byte	W05
	.byte	W07
	.byte	W05
	.byte	W07
	.byte	W07
	.byte	W01
	.byte		        En3 
	.byte	W04
	.byte	W07
	.byte	W05
	.byte	W07
	.byte	W05
	.byte	W07
	.byte	W05
	.byte	W07
	.byte	W01
@ 197   ----------------------------------------
	.byte	W48
	.byte	W01
	.byte	FINE

@**************** Track 8 (Midi-Chn.8) ****************@

mus_th_crazy_backup_dancers_8:
	.byte	KEYSH , mus_th_crazy_backup_dancers_key+0
@ 000   ----------------------------------------
	.byte	W24
	.byte		VOL   , 120*mus_th_crazy_backup_dancers_mvl/mxv
	.byte	W03
	.byte		PAN   , c_v+0
	.byte	W03
	.byte		VOICE , 56
	.byte	W03
	.byte	W03
	.byte	W03
	.byte	W03
	.byte		BEND  , c_v+0
	.byte	W03
	.byte		MOD   , 0
	.byte	W03
	.byte	W03
	.byte	W03
	.byte	W03
	.byte	W03
	.byte	W03
	.byte	W03
	.byte	W03
	.byte	W03
	.byte	W24
@ 001   ----------------------------------------
	.byte	W96
@ 002   ----------------------------------------
	.byte	W96
@ 003   ----------------------------------------
	.byte	W96
@ 004   ----------------------------------------
	.byte	W96
@ 005   ----------------------------------------
	.byte	W96
@ 006   ----------------------------------------
	.byte	W96
@ 007   ----------------------------------------
	.byte	W96
@ 008   ----------------------------------------
	.byte	W96
@ 009   ----------------------------------------
	.byte	W96
@ 010   ----------------------------------------
	.byte	W96
@ 011   ----------------------------------------
	.byte	W96
@ 012   ----------------------------------------
	.byte	W96
@ 013   ----------------------------------------
	.byte	W96
@ 014   ----------------------------------------
	.byte	W96
@ 015   ----------------------------------------
	.byte	W96
@ 016   ----------------------------------------
	.byte	W96
@ 017   ----------------------------------------
	.byte	W96
@ 018   ----------------------------------------
	.byte	W96
@ 019   ----------------------------------------
	.byte	W96
@ 020   ----------------------------------------
	.byte	W96
mus_th_crazy_backup_dancers_8_B1:
@ 021   ----------------------------------------
	.byte	W96
@ 022   ----------------------------------------
	.byte	W96
@ 023   ----------------------------------------
	.byte	W96
@ 024   ----------------------------------------
	.byte	W96
@ 025   ----------------------------------------
	.byte	W96
@ 026   ----------------------------------------
	.byte	W96
@ 027   ----------------------------------------
	.byte	W96
@ 028   ----------------------------------------
	.byte	W96
@ 029   ----------------------------------------
	.byte	W96
@ 030   ----------------------------------------
	.byte	W96
@ 031   ----------------------------------------
	.byte	W96
@ 032   ----------------------------------------
	.byte	W96
@ 033   ----------------------------------------
	.byte	W96
@ 034   ----------------------------------------
	.byte	W96
@ 035   ----------------------------------------
	.byte	W96
@ 036   ----------------------------------------
	.byte	W96
@ 037   ----------------------------------------
	.byte	W96
@ 038   ----------------------------------------
	.byte	W96
@ 039   ----------------------------------------
	.byte	W96
@ 040   ----------------------------------------
	.byte	W96
@ 041   ----------------------------------------
	.byte	W96
@ 042   ----------------------------------------
	.byte	W96
@ 043   ----------------------------------------
	.byte	W96
@ 044   ----------------------------------------
	.byte	W96
@ 045   ----------------------------------------
	.byte	W96
@ 046   ----------------------------------------
	.byte	W96
@ 047   ----------------------------------------
	.byte	W96
@ 048   ----------------------------------------
	.byte	W96
@ 049   ----------------------------------------
	.byte	W96
@ 050   ----------------------------------------
	.byte	W96
@ 051   ----------------------------------------
	.byte	W96
@ 052   ----------------------------------------
	.byte	W96
@ 053   ----------------------------------------
	.byte	W96
@ 054   ----------------------------------------
	.byte	W96
@ 055   ----------------------------------------
	.byte	W96
@ 056   ----------------------------------------
	.byte	W96
@ 057   ----------------------------------------
	.byte	W96
@ 058   ----------------------------------------
	.byte	W96
@ 059   ----------------------------------------
	.byte	W96
@ 060   ----------------------------------------
	.byte	W96
@ 061   ----------------------------------------
	.byte	W96
@ 062   ----------------------------------------
	.byte	W96
@ 063   ----------------------------------------
	.byte	W96
@ 064   ----------------------------------------
	.byte	W96
@ 065   ----------------------------------------
	.byte	W96
@ 066   ----------------------------------------
	.byte	W96
@ 067   ----------------------------------------
	.byte	W96
@ 068   ----------------------------------------
	.byte	W96
@ 069   ----------------------------------------
	.byte	W96
@ 070   ----------------------------------------
	.byte	W96
@ 071   ----------------------------------------
	.byte	W96
@ 072   ----------------------------------------
	.byte	W96
@ 073   ----------------------------------------
	.byte	W96
@ 074   ----------------------------------------
	.byte	W96
@ 075   ----------------------------------------
	.byte	W96
@ 076   ----------------------------------------
	.byte	W96
@ 077   ----------------------------------------
	.byte	W96
@ 078   ----------------------------------------
	.byte	W96
@ 079   ----------------------------------------
	.byte	W96
@ 080   ----------------------------------------
	.byte	W96
@ 081   ----------------------------------------
	.byte	W96
@ 082   ----------------------------------------
	.byte	W96
@ 083   ----------------------------------------
	.byte	W96
@ 084   ----------------------------------------
	.byte	W96
@ 085   ----------------------------------------
	.byte	W96
@ 086   ----------------------------------------
	.byte	W96
@ 087   ----------------------------------------
	.byte	W96
@ 088   ----------------------------------------
	.byte	W96
@ 089   ----------------------------------------
	.byte	W96
@ 090   ----------------------------------------
	.byte	W96
@ 091   ----------------------------------------
	.byte	W96
@ 092   ----------------------------------------
	.byte	W96
@ 093   ----------------------------------------
	.byte	W96
@ 094   ----------------------------------------
	.byte	W96
@ 095   ----------------------------------------
	.byte	W96
@ 096   ----------------------------------------
	.byte	W96
@ 097   ----------------------------------------
	.byte	W96
@ 098   ----------------------------------------
	.byte	W96
@ 099   ----------------------------------------
	.byte	W96
@ 100   ----------------------------------------
	.byte	W96
@ 101   ----------------------------------------
	.byte	W96
@ 102   ----------------------------------------
	.byte	W96
@ 103   ----------------------------------------
	.byte	W96
@ 104   ----------------------------------------
	.byte	W96
@ 105   ----------------------------------------
	.byte	W96
@ 106   ----------------------------------------
	.byte	W96
@ 107   ----------------------------------------
	.byte	W96
@ 108   ----------------------------------------
	.byte	W96
@ 109   ----------------------------------------
	.byte	W96
@ 110   ----------------------------------------
	.byte	W96
@ 111   ----------------------------------------
	.byte	W96
@ 112   ----------------------------------------
	.byte	W96
@ 113   ----------------------------------------
	.byte	W96
@ 114   ----------------------------------------
	.byte	W96
@ 115   ----------------------------------------
	.byte	W96
@ 116   ----------------------------------------
	.byte	W96
@ 117   ----------------------------------------
	.byte	W96
@ 118   ----------------------------------------
	.byte	W96
@ 119   ----------------------------------------
	.byte	W96
@ 120   ----------------------------------------
	.byte	W96
@ 121   ----------------------------------------
mus_th_crazy_backup_dancers_8_121:
	.byte		N24   , Fn3 , v100
	.byte		N24   , Fn4 
	.byte	W24
	.byte		        Cn4 
	.byte		N24   , Cn5 
	.byte	W24
	.byte		        Bn3 
	.byte		N24   , Bn4 
	.byte	W24
	.byte		        Cn4 
	.byte		N24   , Cn5 
	.byte	W24
	.byte	PEND
@ 122   ----------------------------------------
mus_th_crazy_backup_dancers_8_122:
	.byte		N24   , Fn4 , v100
	.byte		N24   , Fn5 
	.byte	W24
	.byte		        Cn4 
	.byte		N24   , Cn5 
	.byte	W24
	.byte		        Bn3 
	.byte		N24   , Bn4 
	.byte	W24
	.byte		        Gs3 
	.byte		N24   , Gs4 
	.byte	W24
	.byte	PEND
@ 123   ----------------------------------------
mus_th_crazy_backup_dancers_8_123:
	.byte		N24   , As3 , v100
	.byte		N24   , As4 
	.byte	W24
	.byte		        Gs3 
	.byte		N24   , Gs4 
	.byte	W24
	.byte		        Gn3 
	.byte		N24   , Gn4 
	.byte	W24
	.byte		        Gs3 
	.byte		N24   , Gs4 
	.byte	W24
	.byte	PEND
@ 124   ----------------------------------------
mus_th_crazy_backup_dancers_8_124:
	.byte		N24   , Gn3 , v100
	.byte		N24   , Gn4 
	.byte	W24
	.byte		        Ds3 
	.byte		N24   , Ds4 
	.byte	W24
	.byte		N48   , Cn3 
	.byte		N48   , Cn4 
	.byte	W48
	.byte	PEND
@ 125   ----------------------------------------
	.byte	PATT
	 .word	mus_th_crazy_backup_dancers_8_121
@ 126   ----------------------------------------
mus_th_crazy_backup_dancers_8_126:
	.byte		N24   , Fn4 , v100
	.byte		N24   , Fn5 
	.byte	W24
	.byte		        Cn4 
	.byte		N24   , Cn5 
	.byte	W24
	.byte		        Bn3 
	.byte		N24   , Bn4 
	.byte	W24
	.byte		        Gn4 
	.byte		N24   , Gn5 
	.byte	W24
	.byte	PEND
@ 127   ----------------------------------------
mus_th_crazy_backup_dancers_8_127:
	.byte		N24   , Gs4 , v100
	.byte		N24   , Gs5 
	.byte	W24
	.byte		        Gn4 
	.byte		N24   , Gn5 
	.byte	W24
	.byte		        Ds4 
	.byte		N24   , Ds5 
	.byte	W24
	.byte		        Fn4 
	.byte		N24   , Fn5 
	.byte	W24
	.byte	PEND
@ 128   ----------------------------------------
mus_th_crazy_backup_dancers_8_128:
	.byte		N24   , Cn4 , v100
	.byte		N24   , Cn5 
	.byte	W24
	.byte		        En4 
	.byte		N24   , En5 
	.byte	W24
	.byte		N48   , Fn4 
	.byte		N48   , Fn5 
	.byte	W48
	.byte	PEND
@ 129   ----------------------------------------
	.byte	PATT
	 .word	mus_th_crazy_backup_dancers_8_121
@ 130   ----------------------------------------
	.byte	PATT
	 .word	mus_th_crazy_backup_dancers_8_122
@ 131   ----------------------------------------
	.byte	PATT
	 .word	mus_th_crazy_backup_dancers_8_123
@ 132   ----------------------------------------
	.byte	PATT
	 .word	mus_th_crazy_backup_dancers_8_124
@ 133   ----------------------------------------
	.byte	PATT
	 .word	mus_th_crazy_backup_dancers_8_121
@ 134   ----------------------------------------
	.byte	PATT
	 .word	mus_th_crazy_backup_dancers_8_126
@ 135   ----------------------------------------
	.byte	PATT
	 .word	mus_th_crazy_backup_dancers_8_127
@ 136   ----------------------------------------
	.byte	PATT
	 .word	mus_th_crazy_backup_dancers_8_128
@ 137   ----------------------------------------
	.byte		N96   , Fn3 , v100
	.byte		N96   , Fn4 
	.byte	W96
@ 138   ----------------------------------------
	.byte		N48   , Gn3 
	.byte		N48   , Gn4 
	.byte	W48
	.byte		N24   , Fn3 
	.byte		N24   , Fn4 
	.byte	W24
	.byte		        Gn3 
	.byte		N24   , Gn4 
	.byte	W24
@ 139   ----------------------------------------
mus_th_crazy_backup_dancers_8_139:
	.byte		N48   , Gs3 , v100
	.byte		N48   , Gs4 
	.byte	W48
	.byte		        As3 
	.byte		N48   , As4 
	.byte	W48
	.byte	PEND
@ 140   ----------------------------------------
	.byte		        Gn3 
	.byte		N48   , Gn4 
	.byte	W48
	.byte		        Ds3 
	.byte		N48   , Ds4 
	.byte	W48
@ 141   ----------------------------------------
	.byte		N96   , Cn3 
	.byte		N96   , Cn4 
	.byte	W96
@ 142   ----------------------------------------
	.byte		N96   
	.byte		N96   , Cn5 
	.byte	W96
@ 143   ----------------------------------------
	.byte		N48   , Gs3 
	.byte		N48   , Gs4 
	.byte	W48
	.byte		        Gn3 
	.byte		N48   , Gn4 
	.byte	W48
@ 144   ----------------------------------------
	.byte		        Fn3 
	.byte		N48   , Fn4 
	.byte	W48
	.byte		        Ds3 
	.byte		N48   , Ds4 
	.byte	W48
@ 145   ----------------------------------------
	.byte		N96   , Cs3 
	.byte		N96   , Cs4 
	.byte	W96
@ 146   ----------------------------------------
	.byte		N48   , Ds3 
	.byte		N48   , Ds4 
	.byte	W48
	.byte		        Fn3 
	.byte		N48   , Fn4 
	.byte	W48
@ 147   ----------------------------------------
	.byte		N96   , En3 
	.byte		N96   , En4 
	.byte	W96
@ 148   ----------------------------------------
	.byte		N48   , Cn3 
	.byte		N48   , Cn4 
	.byte	W48
	.byte		        En3 
	.byte		N48   , En4 
	.byte	W48
@ 149   ----------------------------------------
	.byte		N96   , Fn3 
	.byte		N96   , Fn4 
	.byte	W96
@ 150   ----------------------------------------
	.byte	PATT
	 .word	mus_th_crazy_backup_dancers_8_139
@ 151   ----------------------------------------
	.byte		N48   , Gn3 , v100
	.byte		N48   , Gn4 
	.byte	W48
	.byte		        Fn3 
	.byte		N48   , Fn4 
	.byte	W48
@ 152   ----------------------------------------
	.byte		N96   , Cn3 
	.byte		N96   , Cn4 
	.byte	W96
@ 153   ----------------------------------------
	.byte		        Gs3 
	.byte		N96   , Gs4 
	.byte	W96
@ 154   ----------------------------------------
	.byte		N48   , As3 
	.byte		N48   , As4 
	.byte	W48
	.byte		N24   , Gs3 
	.byte		N24   , Gs4 
	.byte	W24
	.byte		        As3 
	.byte		N24   , As4 
	.byte	W24
@ 155   ----------------------------------------
	.byte		N48   , Cn4 
	.byte		N48   , Cn5 
	.byte	W48
	.byte		        Ds4 
	.byte		N48   , Ds5 
	.byte	W48
@ 156   ----------------------------------------
	.byte		        As3 
	.byte		N48   , As4 
	.byte	W48
	.byte		        Gn3 
	.byte		N48   , Gn4 
	.byte	W48
@ 157   ----------------------------------------
	.byte		N96   , Gs3 
	.byte		N96   , Gs4 
	.byte	W96
@ 158   ----------------------------------------
	.byte		        En4 
	.byte		N96   , En5 
	.byte	W96
@ 159   ----------------------------------------
	.byte		TIE   , Fn4 
	.byte		TIE   , Fn5 
	.byte	W96
@ 160   ----------------------------------------
	.byte	W48
	.byte		EOT   , Fn4 
	.byte		        Fn5 
	.byte	W48
@ 161   ----------------------------------------
	.byte		N96   , Cs4 
	.byte		N96   , Cs5 
	.byte	W96
@ 162   ----------------------------------------
	.byte		N48   , Ds4 
	.byte		N48   , Ds5 
	.byte	W48
	.byte		        Fn4 
	.byte		N48   , Fn5 
	.byte	W48
@ 163   ----------------------------------------
	.byte		N96   , En4 
	.byte		N96   , En5 
	.byte	W96
@ 164   ----------------------------------------
	.byte		        Gn4 
	.byte		N96   , Gn5 
	.byte	W96
@ 165   ----------------------------------------
	.byte		        Dn4 
	.byte		N96   , Dn5 
	.byte	W96
@ 166   ----------------------------------------
	.byte		        Gn4 
	.byte		N96   , Gn5 
	.byte	W96
@ 167   ----------------------------------------
	.byte		        Fn4 
	.byte		N96   , Fn5 
	.byte	W96
@ 168   ----------------------------------------
	.byte		N24   , En4 , v080
	.byte		N24   , Gn4 
	.byte		N24   , En5 
	.byte	W24
	.byte		        En4 
	.byte		N24   , Gn4 
	.byte		N24   , En5 
	.byte	W24
	.byte		        En4 
	.byte		N24   , Gn4 
	.byte		N24   , En5 
	.byte	W24
	.byte		        En4 
	.byte		N24   , Gn4 
	.byte		N24   , En5 
	.byte	W24
	.byte	GOTO
	 .word	mus_th_crazy_backup_dancers_8_B1
mus_th_crazy_backup_dancers_8_B2:
@ 169   ----------------------------------------
	.byte	W96
@ 170   ----------------------------------------
	.byte	W96
@ 171   ----------------------------------------
	.byte	W96
@ 172   ----------------------------------------
	.byte	W96
@ 173   ----------------------------------------
	.byte	W96
@ 174   ----------------------------------------
	.byte	W96
@ 175   ----------------------------------------
	.byte	W96
@ 176   ----------------------------------------
	.byte	W96
@ 177   ----------------------------------------
	.byte		N24   , Cn5 , v100
	.byte	W24
	.byte		        Ds4 
	.byte	W24
	.byte		        Dn4 
	.byte	W24
	.byte		        Bn4 
	.byte	W24
@ 178   ----------------------------------------
	.byte		        As4 
	.byte	W24
	.byte		        Cs4 
	.byte	W24
	.byte		        Cn4 
	.byte	W24
	.byte		        An4 
	.byte	W24
@ 179   ----------------------------------------
	.byte		        Gs4 
	.byte	W24
	.byte		        Bn3 
	.byte	W24
	.byte		        As3 
	.byte	W24
	.byte		        Gn4 
	.byte	W24
@ 180   ----------------------------------------
	.byte		        Fs4 
	.byte	W24
	.byte		        An3 
	.byte	W24
	.byte		        Gs3 
	.byte	W24
	.byte		        Fn4 
	.byte	W24
@ 181   ----------------------------------------
	.byte		TIE   , Cn3 
	.byte		N24   , Cn4 
	.byte	W24
	.byte		        En3 
	.byte		N24   , En4 
	.byte	W24
	.byte		        Fs3 
	.byte		N24   , Fs4 
	.byte	W24
	.byte		        An3 
	.byte		N24   , An4 
	.byte	W24
@ 182   ----------------------------------------
	.byte		        Cn4 
	.byte		N24   , Cn5 
	.byte	W24
	.byte		        En4 
	.byte		N24   , En5 
	.byte	W24
	.byte		        Fs4 
	.byte		N24   , Fs5 
	.byte	W24
	.byte		        An4 
	.byte		N24   , An5 
	.byte	W24
	.byte		EOT   , Cn3 
@ 183   ----------------------------------------
	.byte		TIE   , Cn4 
	.byte		TIE   , Bn4 
	.byte		TIE   , Bn5 
	.byte	W96
@ 184   ----------------------------------------
	.byte	W24
	.byte		EOT   , Cn4 
	.byte		        Bn4 
	.byte		        Bn5 
	.byte		N06   , As3 , v060
	.byte		N06   , As4 
	.byte		N06   , As5 
	.byte	W06
	.byte		        An3 
	.byte		N06   , An4 
	.byte		N06   , An5 
	.byte	W06
	.byte		        Gs3 
	.byte		N06   , Gs4 
	.byte		N06   , Gs5 
	.byte	W06
	.byte		        Gn3 
	.byte		N06   , Gn4 
	.byte		N06   , Gn5 
	.byte	W36
	.byte		        Gs4 , v100
	.byte		N06   , Gs5 
	.byte	W06
	.byte		        An4 
	.byte		N06   , An5 
	.byte	W06
	.byte		        As4 
	.byte		N06   , As5 
	.byte	W06
@ 185   ----------------------------------------
	.byte		TIE   , Bn3 
	.byte		TIE   , Bn4 
	.byte		TIE   , Bn5 
	.byte	W96
@ 186   ----------------------------------------
	.byte	W96
@ 187   ----------------------------------------
	.byte	W96
@ 188   ----------------------------------------
	.byte	W96
	.byte		EOT   , Bn3 
	.byte		        Bn4 
	.byte		        Bn5 
@ 189   ----------------------------------------
	.byte	FINE

@**************** Track 9 (Midi-Chn.9) ****************@

mus_th_crazy_backup_dancers_9:
	.byte	KEYSH , mus_th_crazy_backup_dancers_key+0
@ 000   ----------------------------------------
	.byte	W24
	.byte		VOL   , 115*mus_th_crazy_backup_dancers_mvl/mxv
	.byte	W03
	.byte		PAN   , c_v+0
	.byte	W03
	.byte		VOICE , 36
	.byte	W03
	.byte	W03
	.byte	W03
	.byte	W03
	.byte		BEND  , c_v+0
	.byte	W03
	.byte		MOD   , 0
	.byte	W03
	.byte	W03
	.byte	W03
	.byte	W03
	.byte	W03
	.byte	W03
	.byte	W03
	.byte	W03
	.byte	W03
	.byte	W24
@ 001   ----------------------------------------
	.byte	W96
@ 002   ----------------------------------------
	.byte	W96
@ 003   ----------------------------------------
	.byte	W96
@ 004   ----------------------------------------
	.byte	W96
@ 005   ----------------------------------------
	.byte	W96
@ 006   ----------------------------------------
	.byte	W96
@ 007   ----------------------------------------
	.byte	W96
@ 008   ----------------------------------------
	.byte	W96
@ 009   ----------------------------------------
	.byte	W96
@ 010   ----------------------------------------
	.byte	W96
@ 011   ----------------------------------------
	.byte	W96
@ 012   ----------------------------------------
	.byte	W96
@ 013   ----------------------------------------
	.byte	W96
@ 014   ----------------------------------------
	.byte	W96
@ 015   ----------------------------------------
	.byte	W96
@ 016   ----------------------------------------
	.byte	W96
@ 017   ----------------------------------------
	.byte	W96
@ 018   ----------------------------------------
	.byte	W96
@ 019   ----------------------------------------
mus_th_crazy_backup_dancers_9_019:
	.byte	W24
	.byte		N12   , Fs1 , v100
	.byte	W12
	.byte		        Gn1 
	.byte	W36
	.byte		        As1 
	.byte	W12
	.byte		        En1 
	.byte	W12
	.byte	PEND
@ 020   ----------------------------------------
mus_th_crazy_backup_dancers_9_020:
	.byte		N12   , Bn0 , v100
	.byte	W12
	.byte		N12   
	.byte	W12
	.byte		        En1 
	.byte	W12
	.byte		        Bn0 
	.byte	W12
	.byte		N12   
	.byte	W12
	.byte		N12   
	.byte	W12
	.byte		        Gn1 
	.byte	W12
	.byte		        En1 
	.byte	W12
	.byte	PEND
mus_th_crazy_backup_dancers_9_B1:
@ 021   ----------------------------------------
mus_th_crazy_backup_dancers_9_021:
	.byte		N24   , En1 , v100
	.byte	W48
	.byte		N24   
	.byte	W36
	.byte		N12   
	.byte	W12
	.byte	PEND
@ 022   ----------------------------------------
mus_th_crazy_backup_dancers_9_022:
	.byte		N12   , En1 , v100
	.byte	W24
	.byte		        An1 
	.byte	W12
	.byte		        En1 
	.byte	W12
	.byte		N12   
	.byte	W24
	.byte		        En2 
	.byte	W12
	.byte		        En1 
	.byte	W12
	.byte	PEND
@ 023   ----------------------------------------
mus_th_crazy_backup_dancers_9_023:
	.byte		N12   , En1 , v100
	.byte	W12
	.byte		        An1 
	.byte	W24
	.byte		        En1 
	.byte	W12
	.byte		N12   
	.byte	W24
	.byte		        Gn2 
	.byte	W12
	.byte		        En1 
	.byte	W12
	.byte	PEND
@ 024   ----------------------------------------
mus_th_crazy_backup_dancers_9_024:
	.byte		N12   , En1 , v100
	.byte	W12
	.byte		N12   
	.byte	W12
	.byte		        An1 
	.byte	W12
	.byte		        En1 
	.byte	W12
	.byte		N12   
	.byte	W24
	.byte		        Fs2 
	.byte	W12
	.byte		        En1 
	.byte	W12
	.byte	PEND
@ 025   ----------------------------------------
mus_th_crazy_backup_dancers_9_025:
	.byte		N24   , En1 , v100
	.byte	W48
	.byte		N24   
	.byte	W24
	.byte		N12   , En2 
	.byte	W12
	.byte		        En1 
	.byte	W12
	.byte	PEND
@ 026   ----------------------------------------
mus_th_crazy_backup_dancers_9_026:
	.byte		N12   , En1 , v100
	.byte	W24
	.byte		        An1 
	.byte	W24
	.byte		        En1 
	.byte	W24
	.byte		        En2 
	.byte	W12
	.byte		        En1 
	.byte	W12
	.byte	PEND
@ 027   ----------------------------------------
mus_th_crazy_backup_dancers_9_027:
	.byte		N36   , Cn2 , v100
	.byte	W48
	.byte		N12   , Dn2 
	.byte	W24
	.byte		N12   
	.byte	W24
	.byte	PEND
@ 028   ----------------------------------------
mus_th_crazy_backup_dancers_9_028:
	.byte		N24   , Dn1 , v100
	.byte	W24
	.byte		N12   , Gn1 
	.byte	W12
	.byte		        Dn1 
	.byte	W12
	.byte		        En1 
	.byte	W24
	.byte		        En2 
	.byte	W12
	.byte		        En1 
	.byte	W12
	.byte	PEND
@ 029   ----------------------------------------
	.byte	PATT
	 .word	mus_th_crazy_backup_dancers_9_021
@ 030   ----------------------------------------
	.byte	PATT
	 .word	mus_th_crazy_backup_dancers_9_022
@ 031   ----------------------------------------
	.byte	PATT
	 .word	mus_th_crazy_backup_dancers_9_023
@ 032   ----------------------------------------
	.byte	PATT
	 .word	mus_th_crazy_backup_dancers_9_024
@ 033   ----------------------------------------
	.byte	PATT
	 .word	mus_th_crazy_backup_dancers_9_025
@ 034   ----------------------------------------
	.byte	PATT
	 .word	mus_th_crazy_backup_dancers_9_026
@ 035   ----------------------------------------
	.byte	PATT
	 .word	mus_th_crazy_backup_dancers_9_027
@ 036   ----------------------------------------
	.byte	PATT
	 .word	mus_th_crazy_backup_dancers_9_028
@ 037   ----------------------------------------
	.byte	PATT
	 .word	mus_th_crazy_backup_dancers_9_021
@ 038   ----------------------------------------
	.byte	PATT
	 .word	mus_th_crazy_backup_dancers_9_022
@ 039   ----------------------------------------
	.byte	PATT
	 .word	mus_th_crazy_backup_dancers_9_023
@ 040   ----------------------------------------
	.byte	PATT
	 .word	mus_th_crazy_backup_dancers_9_024
@ 041   ----------------------------------------
	.byte	PATT
	 .word	mus_th_crazy_backup_dancers_9_025
@ 042   ----------------------------------------
	.byte	PATT
	 .word	mus_th_crazy_backup_dancers_9_026
@ 043   ----------------------------------------
	.byte	PATT
	 .word	mus_th_crazy_backup_dancers_9_027
@ 044   ----------------------------------------
	.byte	PATT
	 .word	mus_th_crazy_backup_dancers_9_028
@ 045   ----------------------------------------
	.byte	PATT
	 .word	mus_th_crazy_backup_dancers_9_021
@ 046   ----------------------------------------
	.byte	PATT
	 .word	mus_th_crazy_backup_dancers_9_022
@ 047   ----------------------------------------
	.byte	PATT
	 .word	mus_th_crazy_backup_dancers_9_023
@ 048   ----------------------------------------
	.byte	PATT
	 .word	mus_th_crazy_backup_dancers_9_024
@ 049   ----------------------------------------
	.byte	PATT
	 .word	mus_th_crazy_backup_dancers_9_025
@ 050   ----------------------------------------
	.byte	PATT
	 .word	mus_th_crazy_backup_dancers_9_026
@ 051   ----------------------------------------
	.byte	PATT
	 .word	mus_th_crazy_backup_dancers_9_027
@ 052   ----------------------------------------
	.byte	PATT
	 .word	mus_th_crazy_backup_dancers_9_028
@ 053   ----------------------------------------
	.byte	W96
@ 054   ----------------------------------------
	.byte	W96
@ 055   ----------------------------------------
	.byte	W96
@ 056   ----------------------------------------
	.byte	W96
@ 057   ----------------------------------------
	.byte	W96
@ 058   ----------------------------------------
	.byte	W96
@ 059   ----------------------------------------
	.byte	W96
@ 060   ----------------------------------------
	.byte	W96
@ 061   ----------------------------------------
	.byte	W96
@ 062   ----------------------------------------
	.byte	W96
@ 063   ----------------------------------------
	.byte	W96
@ 064   ----------------------------------------
	.byte	W96
@ 065   ----------------------------------------
	.byte	W96
@ 066   ----------------------------------------
	.byte	W96
@ 067   ----------------------------------------
	.byte	W96
@ 068   ----------------------------------------
	.byte	W96
@ 069   ----------------------------------------
mus_th_crazy_backup_dancers_9_069:
	.byte		N24   , Cn2 , v100
	.byte	W48
	.byte		        Gn1 
	.byte	W24
	.byte		        Cn2 
	.byte	W24
	.byte	PEND
@ 070   ----------------------------------------
	.byte		N36   
	.byte	W36
	.byte		N12   , Gn1 
	.byte	W12
	.byte		        Cn2 
	.byte	W12
	.byte		N12   
	.byte	W12
	.byte		        Gn1 
	.byte	W12
	.byte		        Cn2 
	.byte	W12
@ 071   ----------------------------------------
	.byte		N24   , Dn2 
	.byte	W48
	.byte		        An1 
	.byte	W24
	.byte		        Dn2 
	.byte	W24
@ 072   ----------------------------------------
	.byte		N36   
	.byte	W36
	.byte		N12   , An1 
	.byte	W12
	.byte		        Dn2 
	.byte	W24
	.byte		        An1 
	.byte	W12
	.byte		        En1 
	.byte	W12
@ 073   ----------------------------------------
	.byte		N24   , Bn1 
	.byte	W48
	.byte		        Fs1 
	.byte	W24
	.byte		        Bn1 
	.byte	W24
@ 074   ----------------------------------------
	.byte		N36   
	.byte	W36
	.byte		N12   , Fs1 
	.byte	W12
	.byte		        Bn1 
	.byte	W24
	.byte		        Fs1 
	.byte	W12
	.byte		        Bn1 
	.byte	W12
@ 075   ----------------------------------------
	.byte		N24   , Cn2 
	.byte	W48
	.byte		N12   , Gn1 
	.byte	W12
	.byte		        Cn2 
	.byte	W12
	.byte		        Gn1 
	.byte	W24
@ 076   ----------------------------------------
	.byte		        Cn1 
	.byte	W24
	.byte		        Gn1 
	.byte	W12
	.byte		        Cn2 
	.byte	W12
	.byte		N24   , Gn1 
	.byte	W24
	.byte		N12   , Cn2 
	.byte	W12
	.byte		        Gn1 
	.byte	W12
@ 077   ----------------------------------------
	.byte		N24   
	.byte	W48
	.byte		        En1 
	.byte	W24
	.byte		        Gn1 
	.byte	W24
@ 078   ----------------------------------------
	.byte		N12   
	.byte	W24
	.byte		        En1 
	.byte	W12
	.byte		        Gn1 
	.byte	W12
	.byte		N12   
	.byte	W24
	.byte		        En1 
	.byte	W12
	.byte		        Gn1 
	.byte	W12
@ 079   ----------------------------------------
	.byte		N24   , An1 
	.byte	W48
	.byte		        Fs1 
	.byte	W24
	.byte		        An1 
	.byte	W24
@ 080   ----------------------------------------
	.byte		N12   , Fs1 
	.byte	W24
	.byte		        An1 
	.byte	W12
	.byte		        Fs1 
	.byte	W12
	.byte		        An1 
	.byte	W12
	.byte		N12   
	.byte	W12
	.byte		N12   
	.byte	W12
	.byte		        Fs1 
	.byte	W12
@ 081   ----------------------------------------
	.byte		N24   , Cs2 
	.byte	W48
	.byte		        As1 
	.byte	W24
	.byte		        Cs2 
	.byte	W24
@ 082   ----------------------------------------
	.byte		N12   , Fs1 
	.byte	W24
	.byte		        As1 
	.byte	W12
	.byte		        Fs1 
	.byte	W12
	.byte		        Cs1 
	.byte	W24
	.byte		        As1 
	.byte	W12
	.byte		        Cs1 
	.byte	W12
@ 083   ----------------------------------------
	.byte		        Ds1 
	.byte	W24
	.byte		        As1 
	.byte	W24
	.byte		        Ds1 
	.byte	W24
	.byte		        As1 
	.byte	W24
@ 084   ----------------------------------------
	.byte		        Bn1 
	.byte	W24
	.byte		N12   
	.byte	W24
	.byte		N12   
	.byte	W24
	.byte		N12   
	.byte	W24
@ 085   ----------------------------------------
	.byte	W96
@ 086   ----------------------------------------
	.byte	W96
@ 087   ----------------------------------------
	.byte	W96
@ 088   ----------------------------------------
	.byte	W96
@ 089   ----------------------------------------
	.byte	W96
@ 090   ----------------------------------------
	.byte	W96
@ 091   ----------------------------------------
	.byte	W96
@ 092   ----------------------------------------
	.byte	W96
@ 093   ----------------------------------------
	.byte	W96
@ 094   ----------------------------------------
	.byte	W96
@ 095   ----------------------------------------
	.byte	W96
@ 096   ----------------------------------------
	.byte	W96
@ 097   ----------------------------------------
	.byte	W96
@ 098   ----------------------------------------
	.byte	W96
@ 099   ----------------------------------------
	.byte	W96
@ 100   ----------------------------------------
	.byte	W96
@ 101   ----------------------------------------
	.byte	W96
@ 102   ----------------------------------------
	.byte	W96
@ 103   ----------------------------------------
	.byte	PATT
	 .word	mus_th_crazy_backup_dancers_9_019
@ 104   ----------------------------------------
	.byte	PATT
	 .word	mus_th_crazy_backup_dancers_9_020
@ 105   ----------------------------------------
	.byte	PATT
	 .word	mus_th_crazy_backup_dancers_9_021
@ 106   ----------------------------------------
	.byte	PATT
	 .word	mus_th_crazy_backup_dancers_9_022
@ 107   ----------------------------------------
	.byte	PATT
	 .word	mus_th_crazy_backup_dancers_9_023
@ 108   ----------------------------------------
	.byte	PATT
	 .word	mus_th_crazy_backup_dancers_9_024
@ 109   ----------------------------------------
	.byte	PATT
	 .word	mus_th_crazy_backup_dancers_9_025
@ 110   ----------------------------------------
	.byte	PATT
	 .word	mus_th_crazy_backup_dancers_9_026
@ 111   ----------------------------------------
	.byte	PATT
	 .word	mus_th_crazy_backup_dancers_9_027
@ 112   ----------------------------------------
	.byte	PATT
	 .word	mus_th_crazy_backup_dancers_9_028
@ 113   ----------------------------------------
	.byte	PATT
	 .word	mus_th_crazy_backup_dancers_9_021
@ 114   ----------------------------------------
	.byte	PATT
	 .word	mus_th_crazy_backup_dancers_9_022
@ 115   ----------------------------------------
	.byte	PATT
	 .word	mus_th_crazy_backup_dancers_9_023
@ 116   ----------------------------------------
	.byte	PATT
	 .word	mus_th_crazy_backup_dancers_9_024
@ 117   ----------------------------------------
	.byte	PATT
	 .word	mus_th_crazy_backup_dancers_9_025
@ 118   ----------------------------------------
	.byte	PATT
	 .word	mus_th_crazy_backup_dancers_9_026
@ 119   ----------------------------------------
	.byte	PATT
	 .word	mus_th_crazy_backup_dancers_9_027
@ 120   ----------------------------------------
	.byte	PATT
	 .word	mus_th_crazy_backup_dancers_9_028
@ 121   ----------------------------------------
mus_th_crazy_backup_dancers_9_121:
	.byte		N24   , Fn1 , v100
	.byte	W48
	.byte		N24   
	.byte	W36
	.byte		N12   
	.byte	W12
	.byte	PEND
@ 122   ----------------------------------------
mus_th_crazy_backup_dancers_9_122:
	.byte		N12   , Fn1 , v100
	.byte	W24
	.byte		        As1 
	.byte	W12
	.byte		        Fn1 
	.byte	W12
	.byte		N12   
	.byte	W24
	.byte		        Fn2 
	.byte	W12
	.byte		        Fn1 
	.byte	W12
	.byte	PEND
@ 123   ----------------------------------------
mus_th_crazy_backup_dancers_9_123:
	.byte		N12   , Fn1 , v100
	.byte	W12
	.byte		        As1 
	.byte	W24
	.byte		        Fn1 
	.byte	W12
	.byte		N12   
	.byte	W24
	.byte		        Gs2 
	.byte	W12
	.byte		        Fn1 
	.byte	W12
	.byte	PEND
@ 124   ----------------------------------------
mus_th_crazy_backup_dancers_9_124:
	.byte		N12   , Fn1 , v100
	.byte	W12
	.byte		N12   
	.byte	W12
	.byte		        As1 
	.byte	W12
	.byte		        Fn1 
	.byte	W12
	.byte		N12   
	.byte	W24
	.byte		        Gn2 
	.byte	W12
	.byte		        Fn1 
	.byte	W12
	.byte	PEND
@ 125   ----------------------------------------
mus_th_crazy_backup_dancers_9_125:
	.byte		N24   , Fn1 , v100
	.byte	W48
	.byte		N24   
	.byte	W24
	.byte		N12   , Fn2 
	.byte	W12
	.byte		        Fn1 
	.byte	W12
	.byte	PEND
@ 126   ----------------------------------------
mus_th_crazy_backup_dancers_9_126:
	.byte		N12   , Fn1 , v100
	.byte	W24
	.byte		        As1 
	.byte	W24
	.byte		        Fn1 
	.byte	W24
	.byte		        Fn2 
	.byte	W12
	.byte		        Fn1 
	.byte	W12
	.byte	PEND
@ 127   ----------------------------------------
mus_th_crazy_backup_dancers_9_127:
	.byte		N36   , Cs2 , v100
	.byte	W48
	.byte		N12   , Ds2 
	.byte	W24
	.byte		N12   
	.byte	W24
	.byte	PEND
@ 128   ----------------------------------------
mus_th_crazy_backup_dancers_9_128:
	.byte		N24   , Ds1 , v100
	.byte	W24
	.byte		N12   , Gs1 
	.byte	W12
	.byte		        Ds1 
	.byte	W12
	.byte		        Fn1 
	.byte	W24
	.byte		        Fn2 
	.byte	W12
	.byte		        Fn1 
	.byte	W12
	.byte	PEND
@ 129   ----------------------------------------
	.byte	PATT
	 .word	mus_th_crazy_backup_dancers_9_121
@ 130   ----------------------------------------
	.byte	PATT
	 .word	mus_th_crazy_backup_dancers_9_122
@ 131   ----------------------------------------
	.byte	PATT
	 .word	mus_th_crazy_backup_dancers_9_123
@ 132   ----------------------------------------
	.byte	PATT
	 .word	mus_th_crazy_backup_dancers_9_124
@ 133   ----------------------------------------
	.byte	PATT
	 .word	mus_th_crazy_backup_dancers_9_125
@ 134   ----------------------------------------
	.byte	PATT
	 .word	mus_th_crazy_backup_dancers_9_126
@ 135   ----------------------------------------
	.byte	PATT
	 .word	mus_th_crazy_backup_dancers_9_127
@ 136   ----------------------------------------
	.byte	PATT
	 .word	mus_th_crazy_backup_dancers_9_128
@ 137   ----------------------------------------
	.byte	W96
@ 138   ----------------------------------------
	.byte	W96
@ 139   ----------------------------------------
	.byte	W96
@ 140   ----------------------------------------
	.byte	W96
@ 141   ----------------------------------------
	.byte	W96
@ 142   ----------------------------------------
	.byte	W96
@ 143   ----------------------------------------
	.byte	W96
@ 144   ----------------------------------------
	.byte	W96
@ 145   ----------------------------------------
	.byte	W96
@ 146   ----------------------------------------
	.byte	W96
@ 147   ----------------------------------------
	.byte	W96
@ 148   ----------------------------------------
	.byte	W96
@ 149   ----------------------------------------
	.byte	W96
@ 150   ----------------------------------------
	.byte	W96
@ 151   ----------------------------------------
	.byte	W96
@ 152   ----------------------------------------
	.byte	W96
@ 153   ----------------------------------------
	.byte		N24   , Cs2 , v100
	.byte	W48
	.byte		        Gs1 
	.byte	W24
	.byte		        Cs2 
	.byte	W24
@ 154   ----------------------------------------
	.byte		N36   
	.byte	W36
	.byte		N12   , Gs1 
	.byte	W12
	.byte		        Cs2 
	.byte	W12
	.byte		N12   
	.byte	W12
	.byte		        Gs1 
	.byte	W12
	.byte		        Cs2 
	.byte	W12
@ 155   ----------------------------------------
	.byte		N24   , Ds2 
	.byte	W48
	.byte		        As1 
	.byte	W24
	.byte		        Ds2 
	.byte	W24
@ 156   ----------------------------------------
	.byte		N36   
	.byte	W36
	.byte		N12   , As1 
	.byte	W12
	.byte		        Ds2 
	.byte	W24
	.byte		        As1 
	.byte	W12
	.byte		        Fn1 
	.byte	W12
@ 157   ----------------------------------------
	.byte	PATT
	 .word	mus_th_crazy_backup_dancers_9_069
@ 158   ----------------------------------------
	.byte		N36   , Cn2 , v100
	.byte	W36
	.byte		N12   , Gn1 
	.byte	W12
	.byte		        Cn2 
	.byte	W24
	.byte		        Gn1 
	.byte	W12
	.byte		        Cn2 
	.byte	W12
@ 159   ----------------------------------------
	.byte		N24   , Cs2 
	.byte	W48
	.byte		N12   , Gs1 
	.byte	W12
	.byte		        Cs2 
	.byte	W12
	.byte		        Gs1 
	.byte	W24
@ 160   ----------------------------------------
	.byte		        Cs1 
	.byte	W24
	.byte		        Gs1 
	.byte	W12
	.byte		        Cs2 
	.byte	W12
	.byte		N24   , Gs1 
	.byte	W24
	.byte		N12   , Cs2 
	.byte	W12
	.byte		        Gs1 
	.byte	W12
@ 161   ----------------------------------------
	.byte		N24   
	.byte	W48
	.byte		        Fn1 
	.byte	W24
	.byte		        Gs1 
	.byte	W24
@ 162   ----------------------------------------
	.byte		N12   
	.byte	W24
	.byte		        Fn1 
	.byte	W12
	.byte		        Gs1 
	.byte	W12
	.byte		N12   
	.byte	W24
	.byte		        Fn1 
	.byte	W12
	.byte		        Gs1 
	.byte	W12
@ 163   ----------------------------------------
	.byte		N24   , As1 
	.byte	W48
	.byte		        Gn1 
	.byte	W24
	.byte		        As1 
	.byte	W24
@ 164   ----------------------------------------
	.byte		N12   , Gn1 
	.byte	W24
	.byte		        As1 
	.byte	W12
	.byte		        Gn1 
	.byte	W12
	.byte		        As1 
	.byte	W12
	.byte		N12   
	.byte	W12
	.byte		N12   
	.byte	W12
	.byte		        Gn1 
	.byte	W12
@ 165   ----------------------------------------
	.byte		N24   , Dn2 
	.byte	W48
	.byte		        Bn1 
	.byte	W24
	.byte		        Dn2 
	.byte	W24
@ 166   ----------------------------------------
	.byte		N12   , Gn1 
	.byte	W24
	.byte		        Bn1 
	.byte	W12
	.byte		        Gn1 
	.byte	W12
	.byte		        Dn1 
	.byte	W24
	.byte		        Bn1 
	.byte	W12
	.byte		        Dn1 
	.byte	W12
@ 167   ----------------------------------------
	.byte		        En1 
	.byte	W24
	.byte		        Bn1 
	.byte	W24
	.byte		        En1 
	.byte	W24
	.byte		        Bn1 
	.byte	W24
@ 168   ----------------------------------------
	.byte		        Cn2 
	.byte	W24
	.byte		N12   
	.byte	W24
	.byte		N12   
	.byte	W24
	.byte		N12   
	.byte	W24
	.byte	GOTO
	 .word	mus_th_crazy_backup_dancers_9_B1
mus_th_crazy_backup_dancers_9_B2:
@ 169   ----------------------------------------
	.byte	W96
@ 170   ----------------------------------------
	.byte	W96
@ 171   ----------------------------------------
	.byte	W96
@ 172   ----------------------------------------
	.byte	W96
@ 173   ----------------------------------------
	.byte	W96
@ 174   ----------------------------------------
	.byte	W96
@ 175   ----------------------------------------
	.byte	W96
@ 176   ----------------------------------------
	.byte	W96
@ 177   ----------------------------------------
	.byte	W96
@ 178   ----------------------------------------
	.byte	W96
@ 179   ----------------------------------------
	.byte	W96
@ 180   ----------------------------------------
	.byte	W96
@ 181   ----------------------------------------
	.byte	W96
@ 182   ----------------------------------------
	.byte	W96
@ 183   ----------------------------------------
	.byte	W96
@ 184   ----------------------------------------
	.byte	W96
@ 185   ----------------------------------------
	.byte	W96
@ 186   ----------------------------------------
	.byte	W96
@ 187   ----------------------------------------
	.byte	PATT
	 .word	mus_th_crazy_backup_dancers_9_019
@ 188   ----------------------------------------
	.byte	PATT
	 .word	mus_th_crazy_backup_dancers_9_020
@ 189   ----------------------------------------
	.byte		N24   , En1 , v100
	.byte	W02
	.byte	W04
	.byte	W05
	.byte	W07
	.byte	W05
	.byte	W07
	.byte	W05
	.byte	W07
	.byte	W05
	.byte	W01
	.byte		N24   
	.byte	W06
	.byte	W08
	.byte	W04
	.byte	W08
	.byte	W04
	.byte	W06
	.byte		N12   
	.byte	W02
	.byte	W04
	.byte	W06
@ 190   ----------------------------------------
	.byte		N12   
	.byte	W02
	.byte	W04
	.byte	W08
	.byte	W04
	.byte	W06
	.byte		        An1 
	.byte	W02
	.byte	W04
	.byte	W06
	.byte		        En1 
	.byte	W02
	.byte	W07
	.byte	W03
	.byte		N12   
	.byte	W02
	.byte	W07
	.byte	W05
	.byte	W07
	.byte	W03
	.byte		        En2 
	.byte	W02
	.byte	W07
	.byte	W03
	.byte		        En1 
	.byte	W02
	.byte	W07
	.byte	W03
@ 191   ----------------------------------------
	.byte		N12   
	.byte	W02
	.byte	W07
	.byte	W03
	.byte		        An1 
	.byte	W02
	.byte	W07
	.byte	W05
	.byte	W07
	.byte	W03
	.byte		        En1 
	.byte	W04
	.byte	W05
	.byte	W03
	.byte		N12   
	.byte	W04
	.byte	W05
	.byte	W07
	.byte	W05
	.byte	W03
	.byte		        Gn2 
	.byte	W04
	.byte	W05
	.byte	W03
	.byte		        En1 
	.byte	W04
	.byte	W05
	.byte	W03
@ 192   ----------------------------------------
	.byte		N12   
	.byte	W04
	.byte	W05
	.byte	W03
	.byte		N12   
	.byte	W04
	.byte	W07
	.byte	W01
	.byte		        An1 
	.byte	W04
	.byte	W07
	.byte	W01
	.byte		        En1 
	.byte	W04
	.byte	W07
	.byte	W01
	.byte		N12   
	.byte	W04
	.byte	W07
	.byte	W05
	.byte	W07
	.byte	W01
	.byte		        Fs2 
	.byte	W04
	.byte	W07
	.byte	W01
	.byte		        En1 
	.byte	W04
	.byte	W07
	.byte	W01
@ 193   ----------------------------------------
	.byte		N24   
	.byte	W06
	.byte	W05
	.byte	W07
	.byte	W05
	.byte	W07
	.byte	W05
	.byte	W07
	.byte	W05
	.byte	W01
	.byte		N24   
	.byte	W06
	.byte	W05
	.byte	W07
	.byte	W05
	.byte	W01
	.byte		N12   , En2 
	.byte	W06
	.byte	W06
	.byte		        En1 
	.byte	W02
	.byte	W04
	.byte	W06
@ 194   ----------------------------------------
	.byte		N12   
	.byte	W02
	.byte	W04
	.byte	W08
	.byte	W04
	.byte	W06
	.byte		        An1 
	.byte	W02
	.byte	W04
	.byte	W08
	.byte	W04
	.byte	W06
	.byte		        En1 
	.byte	W02
	.byte	W04
	.byte	W08
	.byte	W04
	.byte	W06
	.byte		        En2 
	.byte	W02
	.byte	W07
	.byte	W03
	.byte		        En1 
	.byte	W02
	.byte	W07
	.byte	W03
@ 195   ----------------------------------------
	.byte		N36   , Cn2 
	.byte	W02
	.byte	W07
	.byte	W05
	.byte	W07
	.byte	W05
	.byte	W07
	.byte	W05
	.byte	W07
	.byte	W03
	.byte		N12   , Dn2 
	.byte	W02
	.byte	W07
	.byte	W07
	.byte	W05
	.byte	W03
	.byte		N12   
	.byte	W04
	.byte	W05
	.byte	W07
	.byte	W05
	.byte	W03
@ 196   ----------------------------------------
	.byte		N24   , Dn1 
	.byte	W04
	.byte	W05
	.byte	W07
	.byte	W05
	.byte	W03
	.byte		N12   , Gn1 
	.byte	W04
	.byte	W05
	.byte	W03
	.byte		        Dn1 
	.byte	W04
	.byte	W07
	.byte	W01
	.byte		        En1 
	.byte	W04
	.byte	W07
	.byte	W05
	.byte	W07
	.byte	W01
	.byte		        En2 
	.byte	W04
	.byte	W07
	.byte	W01
	.byte		        En1 
	.byte	W04
	.byte	W07
	.byte	W01
@ 197   ----------------------------------------
	.byte	W48
	.byte	W01
	.byte	FINE

@**************** Track 10 (Midi-Chn.10) ****************@

mus_th_crazy_backup_dancers_10:
	.byte	KEYSH , mus_th_crazy_backup_dancers_key+0
@ 000   ----------------------------------------
	.byte	W24
	.byte		VOL   , 100*mus_th_crazy_backup_dancers_mvl/mxv
	.byte	W03
	.byte		PAN   , c_v+0
	.byte	W03
	.byte		VOICE , 25
	.byte	W03
	.byte	W03
	.byte	W03
	.byte	W03
	.byte		BEND  , c_v+0
	.byte	W03
	.byte		MOD   , 0
	.byte	W03
	.byte	W03
	.byte	W03
	.byte	W03
	.byte	W03
	.byte	W03
	.byte	W03
	.byte	W03
	.byte	W03
	.byte	W24
@ 001   ----------------------------------------
mus_th_crazy_backup_dancers_10_001:
	.byte		N06   , Cs2 , v100
	.byte	W72
	.byte		        Gs1 
	.byte	W06
	.byte		N06   
	.byte	W06
	.byte		N06   
	.byte	W12
	.byte	PEND
@ 002   ----------------------------------------
	.byte	PATT
	 .word	mus_th_crazy_backup_dancers_10_001
@ 003   ----------------------------------------
mus_th_crazy_backup_dancers_10_003:
	.byte		N06   , Cs2 , v100
	.byte	W72
	.byte		        Gs1 
	.byte	W24
	.byte	PEND
@ 004   ----------------------------------------
mus_th_crazy_backup_dancers_10_004:
	.byte		N06   , Bn0 , v120
	.byte		N06   , Cs2 , v100
	.byte	W36
	.byte		        Bn0 , v120
	.byte	W12
	.byte		        Dn1 , v112
	.byte		N06   , Gs1 , v100
	.byte	W48
	.byte	PEND
@ 005   ----------------------------------------
mus_th_crazy_backup_dancers_10_005:
	.byte		N06   , Bn0 , v120
	.byte		N06   , Cs2 , v100
	.byte	W24
	.byte		        Bn0 , v120
	.byte		N06   , Fs1 , v100
	.byte	W12
	.byte		        Bn0 , v120
	.byte	W12
	.byte		N06   
	.byte	W24
	.byte		N06   
	.byte		N06   , Fs1 , v100
	.byte		N06   , Gs1 
	.byte	W06
	.byte		N06   
	.byte	W06
	.byte		N06   
	.byte	W12
	.byte	PEND
@ 006   ----------------------------------------
mus_th_crazy_backup_dancers_10_006:
	.byte		N06   , Bn0 , v120
	.byte		N06   , Cs2 , v100
	.byte	W24
	.byte		        Fs1 
	.byte	W24
	.byte		        Bn0 , v120
	.byte		N06   , Dn1 , v112
	.byte	W24
	.byte		        Bn0 , v120
	.byte		N06   , Fs1 , v100
	.byte		N06   , Gs1 
	.byte	W06
	.byte		N06   
	.byte	W06
	.byte		        Bn0 , v120
	.byte		N06   , Gs1 , v100
	.byte	W12
	.byte	PEND
@ 007   ----------------------------------------
mus_th_crazy_backup_dancers_10_007:
	.byte		N06   , Bn0 , v120
	.byte		N06   , Cs2 , v100
	.byte	W24
	.byte		        Fs1 
	.byte	W24
	.byte		        Bn0 , v120
	.byte	W12
	.byte		N06   
	.byte	W12
	.byte		N06   
	.byte		N06   , Fs1 , v100
	.byte		N06   , Gs1 
	.byte	W24
	.byte	PEND
@ 008   ----------------------------------------
mus_th_crazy_backup_dancers_10_008:
	.byte		N06   , Bn0 , v120
	.byte		N06   , Cs2 , v100
	.byte	W24
	.byte		        Bn0 , v120
	.byte		N06   , Fs1 , v100
	.byte	W12
	.byte		        Bn0 , v120
	.byte	W12
	.byte		N06   
	.byte		N06   , Dn1 , v112
	.byte		N06   , Gs1 , v100
	.byte	W24
	.byte		        Bn0 , v120
	.byte		N06   , Fs1 , v100
	.byte	W12
	.byte		        Bn0 , v120
	.byte	W12
	.byte	PEND
@ 009   ----------------------------------------
mus_th_crazy_backup_dancers_10_009:
	.byte		N06   , Bn0 , v120
	.byte		N06   , Cs2 , v100
	.byte	W24
	.byte		        Bn0 , v120
	.byte		N06   , Fs1 , v100
	.byte	W12
	.byte		        Bn0 , v120
	.byte		N06   , Fs1 , v100
	.byte	W12
	.byte		        Bn0 , v120
	.byte		N06   , Fs1 , v100
	.byte	W12
	.byte		N06   
	.byte	W12
	.byte		        Bn0 , v120
	.byte		N06   , Fs1 , v100
	.byte	W12
	.byte		N06   
	.byte	W12
	.byte	PEND
@ 010   ----------------------------------------
mus_th_crazy_backup_dancers_10_010:
	.byte		N06   , Bn0 , v120
	.byte		N06   , Cs2 , v100
	.byte	W12
	.byte		        Fs1 
	.byte	W12
	.byte		N06   
	.byte	W12
	.byte		N06   
	.byte	W12
	.byte		        Bn0 , v120
	.byte		N06   , Dn1 , v112
	.byte		N06   , Fs1 , v100
	.byte	W12
	.byte		N06   
	.byte	W12
	.byte		        Bn0 , v120
	.byte		N06   , Fs1 , v100
	.byte		N06   , Gs1 
	.byte	W06
	.byte		N06   
	.byte	W06
	.byte		        Bn0 , v120
	.byte		N06   , Fs1 , v100
	.byte		N06   , Gs1 
	.byte	W12
	.byte	PEND
@ 011   ----------------------------------------
mus_th_crazy_backup_dancers_10_011:
	.byte		N06   , Bn0 , v120
	.byte		N06   , Cs2 , v100
	.byte	W12
	.byte		        Fs1 
	.byte	W12
	.byte		N06   
	.byte	W12
	.byte		N06   
	.byte	W12
	.byte		        Bn0 , v120
	.byte		N06   , Fs1 , v100
	.byte	W12
	.byte		        Bn0 , v120
	.byte		N06   , Fs1 , v100
	.byte	W12
	.byte		        Bn0 , v120
	.byte		N06   , Fs1 , v100
	.byte		N06   , Gs1 
	.byte	W12
	.byte		        Fs1 
	.byte	W12
	.byte	PEND
@ 012   ----------------------------------------
mus_th_crazy_backup_dancers_10_012:
	.byte		N06   , Bn0 , v120
	.byte		N06   , Cs2 , v100
	.byte	W12
	.byte		        Fs1 
	.byte	W12
	.byte		        Bn0 , v120
	.byte		N06   , Fs1 , v100
	.byte	W12
	.byte		        Bn0 , v120
	.byte		N06   , Fs1 , v100
	.byte	W12
	.byte		        Bn0 , v120
	.byte		N06   , Dn1 , v112
	.byte		N06   , Fs1 , v100
	.byte		N06   , Gs1 
	.byte	W12
	.byte		        Fs1 
	.byte	W12
	.byte		        Bn0 , v120
	.byte		N06   , Fs1 , v100
	.byte	W12
	.byte		        Bn0 , v120
	.byte		N06   , Fs1 , v100
	.byte	W12
	.byte	PEND
@ 013   ----------------------------------------
mus_th_crazy_backup_dancers_10_013:
	.byte		N06   , Cs2 , v100
	.byte	W72
	.byte		        Bn0 , v120
	.byte		N06   , Fs1 , v100
	.byte	W24
	.byte	PEND
@ 014   ----------------------------------------
mus_th_crazy_backup_dancers_10_014:
	.byte	W48
	.byte		N06   , Bn0 , v120
	.byte		N06   , Fs1 , v100
	.byte	W24
	.byte		        Bn0 , v120
	.byte	W12
	.byte		N06   
	.byte	W12
	.byte	PEND
@ 015   ----------------------------------------
mus_th_crazy_backup_dancers_10_015:
	.byte		N06   , Cs2 , v100
	.byte	W48
	.byte		        Dn1 , v112
	.byte	W48
	.byte	PEND
@ 016   ----------------------------------------
mus_th_crazy_backup_dancers_10_016:
	.byte		N06   , Dn1 , v112
	.byte	W48
	.byte		N06   
	.byte	W24
	.byte		        Bn0 , v120
	.byte		N06   , Cn1 
	.byte	W12
	.byte		        Bn0 
	.byte		N06   , Cn1 
	.byte	W12
	.byte	PEND
@ 017   ----------------------------------------
mus_th_crazy_backup_dancers_10_017:
	.byte		N06   , Bn0 , v120
	.byte		N06   , Cn1 
	.byte		N06   , Fs1 , v100
	.byte	W12
	.byte		N06   
	.byte	W12
	.byte		        Dn1 , v112
	.byte	W12
	.byte		        Fs1 , v100
	.byte	W12
	.byte		        Bn0 , v120
	.byte		N06   , Fs1 , v100
	.byte		N06   , Gn2 
	.byte	W12
	.byte		        Fs1 
	.byte	W12
	.byte		        Dn1 , v112
	.byte	W12
	.byte		        Fs1 , v100
	.byte	W12
	.byte	PEND
@ 018   ----------------------------------------
mus_th_crazy_backup_dancers_10_018:
	.byte		N06   , Bn0 , v120
	.byte		N06   , Cn1 
	.byte		N06   , Dn1 , v112
	.byte		N06   , Fs1 , v100
	.byte	W12
	.byte		N06   
	.byte	W24
	.byte		        Dn1 , v112
	.byte		N06   , Fs1 , v100
	.byte	W12
	.byte		        Bn0 , v120
	.byte		N06   , Gn2 , v100
	.byte	W12
	.byte		        Fs1 
	.byte	W12
	.byte		        Dn1 , v112
	.byte		N06   , Fs1 , v100
	.byte	W12
	.byte		N06   
	.byte	W12
	.byte	PEND
@ 019   ----------------------------------------
mus_th_crazy_backup_dancers_10_019:
	.byte		N06   , Bn0 , v120
	.byte		N06   , Cn1 
	.byte		N06   , Fs1 , v100
	.byte	W12
	.byte		N06   
	.byte	W12
	.byte		        Dn1 , v112
	.byte	W12
	.byte		        Fs1 , v100
	.byte	W12
	.byte		        Bn0 , v120
	.byte		N06   , Fs1 , v100
	.byte		N06   , Gn2 
	.byte	W12
	.byte		        Fs1 
	.byte	W12
	.byte		        Dn1 , v112
	.byte		N06   , Cn2 , v100
	.byte	W12
	.byte		        Fs1 
	.byte		N06   , Cn2 
	.byte	W12
	.byte	PEND
@ 020   ----------------------------------------
mus_th_crazy_backup_dancers_10_020:
	.byte		N06   , Bn0 , v120
	.byte		N06   , Cn1 
	.byte		N06   , Fs1 , v100
	.byte		N06   , Cn2 
	.byte	W12
	.byte		        Bn0 , v120
	.byte		N06   , Fs1 , v100
	.byte		N06   , Cn2 
	.byte	W12
	.byte		        Dn1 , v112
	.byte		N06   , Cn2 , v100
	.byte	W12
	.byte		        Fs1 
	.byte	W12
	.byte		        Bn0 , v120
	.byte		N06   , Gn2 , v100
	.byte	W12
	.byte		        Fs1 
	.byte		N06   , Gn2 
	.byte	W12
	.byte		        Dn1 , v112
	.byte		N06   , Fs1 , v100
	.byte		N06   , Gn2 
	.byte	W12
	.byte		        Fs1 
	.byte		N06   , Gn2 
	.byte	W12
	.byte	PEND
mus_th_crazy_backup_dancers_10_B1:
@ 021   ----------------------------------------
mus_th_crazy_backup_dancers_10_021:
	.byte		N06   , Bn0 , v120
	.byte		N06   , Fs1 , v100
	.byte	W12
	.byte		N06   
	.byte	W12
	.byte		        Dn1 , v112
	.byte	W12
	.byte		        Fs1 , v100
	.byte	W12
	.byte		        Bn0 , v120
	.byte		N06   , Fs1 , v100
	.byte		N06   , Gn2 
	.byte	W12
	.byte		        Fs1 
	.byte	W12
	.byte		        Dn1 , v112
	.byte	W12
	.byte		        Bn0 , v120
	.byte		N06   , Fs1 , v100
	.byte	W12
	.byte	PEND
@ 022   ----------------------------------------
mus_th_crazy_backup_dancers_10_022:
	.byte		N06   , Bn0 , v120
	.byte		N06   , Fs1 , v100
	.byte	W12
	.byte		N06   
	.byte	W12
	.byte		        Dn1 , v112
	.byte	W12
	.byte		        Fs1 , v100
	.byte	W12
	.byte		        Bn0 , v120
	.byte		N06   , Gn2 , v100
	.byte	W12
	.byte		        Fs1 
	.byte	W12
	.byte		        Dn1 , v112
	.byte		N06   , Fs1 , v100
	.byte	W12
	.byte		        Bn0 , v120
	.byte		N06   , Fs1 , v100
	.byte	W12
	.byte	PEND
@ 023   ----------------------------------------
	.byte	PATT
	 .word	mus_th_crazy_backup_dancers_10_021
@ 024   ----------------------------------------
mus_th_crazy_backup_dancers_10_024:
	.byte		N06   , Bn0 , v120
	.byte		N06   , Fs1 , v100
	.byte	W12
	.byte		N06   
	.byte	W12
	.byte		        Dn1 , v112
	.byte	W12
	.byte		        Fs1 , v100
	.byte	W12
	.byte		        Bn0 , v120
	.byte		N06   , Gn2 , v100
	.byte	W12
	.byte		        Fs1 
	.byte	W12
	.byte		        Dn1 , v112
	.byte		N06   , Fs1 , v100
	.byte		N06   , Gn2 
	.byte	W12
	.byte		        Fs1 
	.byte	W12
	.byte	PEND
@ 025   ----------------------------------------
	.byte	PATT
	 .word	mus_th_crazy_backup_dancers_10_021
@ 026   ----------------------------------------
	.byte	PATT
	 .word	mus_th_crazy_backup_dancers_10_022
@ 027   ----------------------------------------
mus_th_crazy_backup_dancers_10_027:
	.byte		N06   , Bn0 , v120
	.byte		N06   , Fs1 , v100
	.byte		N06   , Gn2 
	.byte	W12
	.byte		        Fs1 
	.byte	W12
	.byte		        Dn1 , v112
	.byte	W12
	.byte		        Fs1 , v100
	.byte	W12
	.byte		        Bn0 , v120
	.byte		N06   , Fs1 , v100
	.byte		N06   , Gn2 
	.byte	W12
	.byte		        Fs1 
	.byte	W12
	.byte		        Dn1 , v112
	.byte	W12
	.byte		        Bn0 , v120
	.byte		N06   , Fs1 , v100
	.byte	W12
	.byte	PEND
@ 028   ----------------------------------------
mus_th_crazy_backup_dancers_10_028:
	.byte		N06   , Bn0 , v120
	.byte		N06   , Fs1 , v100
	.byte	W12
	.byte		        Bn0 , v120
	.byte		N06   , Fs1 , v100
	.byte	W12
	.byte		        Bn0 , v120
	.byte		N06   , Dn1 , v112
	.byte	W12
	.byte		        Bn0 , v120
	.byte		N06   , Fs1 , v100
	.byte	W12
	.byte		        Bn0 , v120
	.byte		N06   , Gn2 , v100
	.byte	W12
	.byte		        Fs1 
	.byte	W12
	.byte		        Bn0 , v120
	.byte		N06   , Dn1 , v112
	.byte		N06   , Fs1 , v100
	.byte		N06   , Gn2 
	.byte	W12
	.byte		        Bn0 , v120
	.byte		N06   , Fs1 , v100
	.byte	W12
	.byte	PEND
@ 029   ----------------------------------------
	.byte	PATT
	 .word	mus_th_crazy_backup_dancers_10_021
@ 030   ----------------------------------------
	.byte	PATT
	 .word	mus_th_crazy_backup_dancers_10_022
@ 031   ----------------------------------------
	.byte	PATT
	 .word	mus_th_crazy_backup_dancers_10_021
@ 032   ----------------------------------------
	.byte	PATT
	 .word	mus_th_crazy_backup_dancers_10_024
@ 033   ----------------------------------------
	.byte	PATT
	 .word	mus_th_crazy_backup_dancers_10_021
@ 034   ----------------------------------------
	.byte	PATT
	 .word	mus_th_crazy_backup_dancers_10_022
@ 035   ----------------------------------------
	.byte	PATT
	 .word	mus_th_crazy_backup_dancers_10_027
@ 036   ----------------------------------------
	.byte	PATT
	 .word	mus_th_crazy_backup_dancers_10_028
@ 037   ----------------------------------------
	.byte	PATT
	 .word	mus_th_crazy_backup_dancers_10_021
@ 038   ----------------------------------------
	.byte	PATT
	 .word	mus_th_crazy_backup_dancers_10_022
@ 039   ----------------------------------------
	.byte	PATT
	 .word	mus_th_crazy_backup_dancers_10_021
@ 040   ----------------------------------------
	.byte	PATT
	 .word	mus_th_crazy_backup_dancers_10_024
@ 041   ----------------------------------------
	.byte	PATT
	 .word	mus_th_crazy_backup_dancers_10_021
@ 042   ----------------------------------------
	.byte	PATT
	 .word	mus_th_crazy_backup_dancers_10_022
@ 043   ----------------------------------------
	.byte	PATT
	 .word	mus_th_crazy_backup_dancers_10_027
@ 044   ----------------------------------------
	.byte	PATT
	 .word	mus_th_crazy_backup_dancers_10_028
@ 045   ----------------------------------------
	.byte	PATT
	 .word	mus_th_crazy_backup_dancers_10_021
@ 046   ----------------------------------------
	.byte	PATT
	 .word	mus_th_crazy_backup_dancers_10_022
@ 047   ----------------------------------------
	.byte	PATT
	 .word	mus_th_crazy_backup_dancers_10_021
@ 048   ----------------------------------------
	.byte	PATT
	 .word	mus_th_crazy_backup_dancers_10_024
@ 049   ----------------------------------------
	.byte	PATT
	 .word	mus_th_crazy_backup_dancers_10_021
@ 050   ----------------------------------------
	.byte	PATT
	 .word	mus_th_crazy_backup_dancers_10_022
@ 051   ----------------------------------------
mus_th_crazy_backup_dancers_10_051:
	.byte		N06   , Bn0 , v120
	.byte		N06   , Fs1 , v100
	.byte		N06   , Cs2 , v120
	.byte	W12
	.byte		        Fs1 , v100
	.byte	W12
	.byte		        Dn1 , v112
	.byte	W12
	.byte		        Fs1 , v100
	.byte	W12
	.byte		        Bn0 , v120
	.byte		N06   , Fs1 , v100
	.byte		N06   , Cs2 , v120
	.byte	W12
	.byte		        Fs1 , v100
	.byte	W12
	.byte		        Dn1 , v112
	.byte	W12
	.byte		        Bn0 , v120
	.byte		N06   , Fs1 , v100
	.byte	W12
	.byte	PEND
@ 052   ----------------------------------------
	.byte	PATT
	 .word	mus_th_crazy_backup_dancers_10_028
@ 053   ----------------------------------------
mus_th_crazy_backup_dancers_10_053:
	.byte		N06   , Cs2 , v100
	.byte	W72
	.byte		        Bn0 , v120
	.byte	W12
	.byte		N06   
	.byte	W12
	.byte	PEND
@ 054   ----------------------------------------
mus_th_crazy_backup_dancers_10_054:
	.byte		N06   , Bn0 , v120
	.byte	W36
	.byte		N06   
	.byte	W36
	.byte		N06   
	.byte	W24
	.byte	PEND
@ 055   ----------------------------------------
	.byte	PATT
	 .word	mus_th_crazy_backup_dancers_10_053
@ 056   ----------------------------------------
mus_th_crazy_backup_dancers_10_056:
	.byte		N06   , Bn0 , v120
	.byte	W48
	.byte		        As1 , v100
	.byte	W24
	.byte		N06   
	.byte	W24
	.byte	PEND
@ 057   ----------------------------------------
	.byte	PATT
	 .word	mus_th_crazy_backup_dancers_10_053
@ 058   ----------------------------------------
	.byte	PATT
	 .word	mus_th_crazy_backup_dancers_10_054
@ 059   ----------------------------------------
	.byte	PATT
	 .word	mus_th_crazy_backup_dancers_10_053
@ 060   ----------------------------------------
	.byte	PATT
	 .word	mus_th_crazy_backup_dancers_10_056
@ 061   ----------------------------------------
mus_th_crazy_backup_dancers_10_061:
	.byte		N06   , Cs2 , v100
	.byte	W24
	.byte		        Fs1 
	.byte	W24
	.byte		        Bn0 , v120
	.byte	W24
	.byte		        Fs1 , v100
	.byte	W24
	.byte	PEND
@ 062   ----------------------------------------
mus_th_crazy_backup_dancers_10_062:
	.byte		N06   , Bn0 , v120
	.byte	W24
	.byte		        Fs1 , v100
	.byte	W12
	.byte		        Bn0 , v120
	.byte	W12
	.byte		N06   
	.byte	W24
	.byte		        Fs1 , v100
	.byte	W24
	.byte	PEND
@ 063   ----------------------------------------
	.byte	PATT
	 .word	mus_th_crazy_backup_dancers_10_061
@ 064   ----------------------------------------
	.byte	PATT
	 .word	mus_th_crazy_backup_dancers_10_062
@ 065   ----------------------------------------
	.byte	PATT
	 .word	mus_th_crazy_backup_dancers_10_061
@ 066   ----------------------------------------
mus_th_crazy_backup_dancers_10_066:
	.byte		N06   , Bn0 , v120
	.byte	W24
	.byte		        Fs1 , v100
	.byte	W12
	.byte		        Bn0 , v120
	.byte	W12
	.byte		N06   
	.byte	W12
	.byte		N06   
	.byte	W12
	.byte		N06   
	.byte		N06   , Fs1 , v100
	.byte	W12
	.byte		        Bn0 , v120
	.byte	W12
	.byte	PEND
@ 067   ----------------------------------------
mus_th_crazy_backup_dancers_10_067:
	.byte		N06   , Cs2 , v100
	.byte	W24
	.byte		        Fs1 
	.byte	W24
	.byte		        Bn0 , v120
	.byte	W24
	.byte		        Dn1 , v112
	.byte		N06   , Fs1 , v100
	.byte		N06   , Cn2 
	.byte	W12
	.byte		        Dn1 , v112
	.byte		N06   , Cn2 , v100
	.byte	W12
	.byte	PEND
@ 068   ----------------------------------------
mus_th_crazy_backup_dancers_10_068:
	.byte		N06   , Bn0 , v120
	.byte		N06   , Dn1 , v112
	.byte		N06   , Cn2 , v100
	.byte	W12
	.byte		        Dn1 , v112
	.byte		N06   , Cn2 , v100
	.byte	W12
	.byte		        Dn1 , v112
	.byte		N06   , Fs1 , v100
	.byte		N06   , Cn2 
	.byte	W12
	.byte		        Bn0 , v120
	.byte		N06   , Dn1 , v112
	.byte		N06   , Cn2 , v100
	.byte	W12
	.byte		        Bn0 , v120
	.byte	W12
	.byte		N06   
	.byte	W12
	.byte		N06   
	.byte		N06   , Fs1 , v100
	.byte	W12
	.byte		        Bn0 , v120
	.byte	W12
	.byte	PEND
@ 069   ----------------------------------------
mus_th_crazy_backup_dancers_10_069:
	.byte		N06   , Bn0 , v120
	.byte		N06   , Fs1 , v100
	.byte		N06   , Cs2 
	.byte	W12
	.byte		        Fs1 
	.byte	W12
	.byte		        Dn1 , v112
	.byte	W12
	.byte		        Fs1 , v100
	.byte	W12
	.byte		        Bn0 , v120
	.byte		N06   , Fs1 , v100
	.byte		N06   , Gn2 
	.byte	W12
	.byte		        Fs1 
	.byte	W12
	.byte		        Dn1 , v112
	.byte	W12
	.byte		        Bn0 , v120
	.byte		N06   , Fs1 , v100
	.byte	W12
	.byte	PEND
@ 070   ----------------------------------------
	.byte	PATT
	 .word	mus_th_crazy_backup_dancers_10_022
@ 071   ----------------------------------------
	.byte	PATT
	 .word	mus_th_crazy_backup_dancers_10_021
@ 072   ----------------------------------------
	.byte	PATT
	 .word	mus_th_crazy_backup_dancers_10_024
@ 073   ----------------------------------------
	.byte	PATT
	 .word	mus_th_crazy_backup_dancers_10_021
@ 074   ----------------------------------------
	.byte	PATT
	 .word	mus_th_crazy_backup_dancers_10_022
@ 075   ----------------------------------------
	.byte	PATT
	 .word	mus_th_crazy_backup_dancers_10_027
@ 076   ----------------------------------------
	.byte	PATT
	 .word	mus_th_crazy_backup_dancers_10_028
@ 077   ----------------------------------------
	.byte	PATT
	 .word	mus_th_crazy_backup_dancers_10_021
@ 078   ----------------------------------------
	.byte	PATT
	 .word	mus_th_crazy_backup_dancers_10_022
@ 079   ----------------------------------------
	.byte	PATT
	 .word	mus_th_crazy_backup_dancers_10_021
@ 080   ----------------------------------------
	.byte	PATT
	 .word	mus_th_crazy_backup_dancers_10_024
@ 081   ----------------------------------------
	.byte	PATT
	 .word	mus_th_crazy_backup_dancers_10_021
@ 082   ----------------------------------------
	.byte	PATT
	 .word	mus_th_crazy_backup_dancers_10_022
@ 083   ----------------------------------------
	.byte	PATT
	 .word	mus_th_crazy_backup_dancers_10_027
@ 084   ----------------------------------------
mus_th_crazy_backup_dancers_10_084:
	.byte		N06   , Bn0 , v120
	.byte		N06   , Fs1 , v100
	.byte		N06   , Gn2 
	.byte	W24
	.byte		        Bn0 , v120
	.byte		N06   , Dn1 , v112
	.byte		N06   , Fs1 , v100
	.byte		N06   , Gn2 
	.byte	W24
	.byte		        Bn0 , v120
	.byte		N06   , Fs1 , v100
	.byte		N06   , Gn2 
	.byte	W24
	.byte		        Bn0 , v120
	.byte		N06   , Dn1 , v112
	.byte		N06   , Fs1 , v100
	.byte		N06   , Gn2 
	.byte	W24
	.byte	PEND
@ 085   ----------------------------------------
	.byte	PATT
	 .word	mus_th_crazy_backup_dancers_10_001
@ 086   ----------------------------------------
	.byte	PATT
	 .word	mus_th_crazy_backup_dancers_10_001
@ 087   ----------------------------------------
	.byte	PATT
	 .word	mus_th_crazy_backup_dancers_10_003
@ 088   ----------------------------------------
	.byte	PATT
	 .word	mus_th_crazy_backup_dancers_10_004
@ 089   ----------------------------------------
	.byte	PATT
	 .word	mus_th_crazy_backup_dancers_10_005
@ 090   ----------------------------------------
	.byte	PATT
	 .word	mus_th_crazy_backup_dancers_10_006
@ 091   ----------------------------------------
	.byte	PATT
	 .word	mus_th_crazy_backup_dancers_10_007
@ 092   ----------------------------------------
	.byte	PATT
	 .word	mus_th_crazy_backup_dancers_10_008
@ 093   ----------------------------------------
	.byte	PATT
	 .word	mus_th_crazy_backup_dancers_10_009
@ 094   ----------------------------------------
	.byte	PATT
	 .word	mus_th_crazy_backup_dancers_10_010
@ 095   ----------------------------------------
	.byte	PATT
	 .word	mus_th_crazy_backup_dancers_10_011
@ 096   ----------------------------------------
	.byte	PATT
	 .word	mus_th_crazy_backup_dancers_10_012
@ 097   ----------------------------------------
	.byte	PATT
	 .word	mus_th_crazy_backup_dancers_10_013
@ 098   ----------------------------------------
	.byte	PATT
	 .word	mus_th_crazy_backup_dancers_10_014
@ 099   ----------------------------------------
	.byte		N06   , As1 , v100
	.byte		N06   , Cs2 
	.byte	W48
	.byte		        Dn1 , v112
	.byte		N06   , Fs1 , v100
	.byte	W48
@ 100   ----------------------------------------
	.byte		        Dn1 , v112
	.byte		N06   , Fs1 , v100
	.byte	W48
	.byte		        Dn1 , v112
	.byte		N06   , Fs1 , v100
	.byte	W24
	.byte		        Bn0 , v120
	.byte		N06   , Cn1 
	.byte	W12
	.byte		        Bn0 
	.byte		N06   , Cn1 
	.byte	W12
@ 101   ----------------------------------------
	.byte	PATT
	 .word	mus_th_crazy_backup_dancers_10_017
@ 102   ----------------------------------------
	.byte	PATT
	 .word	mus_th_crazy_backup_dancers_10_018
@ 103   ----------------------------------------
	.byte	PATT
	 .word	mus_th_crazy_backup_dancers_10_019
@ 104   ----------------------------------------
	.byte	PATT
	 .word	mus_th_crazy_backup_dancers_10_020
@ 105   ----------------------------------------
	.byte	PATT
	 .word	mus_th_crazy_backup_dancers_10_021
@ 106   ----------------------------------------
	.byte	PATT
	 .word	mus_th_crazy_backup_dancers_10_022
@ 107   ----------------------------------------
	.byte	PATT
	 .word	mus_th_crazy_backup_dancers_10_021
@ 108   ----------------------------------------
	.byte	PATT
	 .word	mus_th_crazy_backup_dancers_10_024
@ 109   ----------------------------------------
	.byte	PATT
	 .word	mus_th_crazy_backup_dancers_10_021
@ 110   ----------------------------------------
	.byte	PATT
	 .word	mus_th_crazy_backup_dancers_10_022
@ 111   ----------------------------------------
	.byte	PATT
	 .word	mus_th_crazy_backup_dancers_10_027
@ 112   ----------------------------------------
	.byte	PATT
	 .word	mus_th_crazy_backup_dancers_10_028
@ 113   ----------------------------------------
	.byte	PATT
	 .word	mus_th_crazy_backup_dancers_10_021
@ 114   ----------------------------------------
	.byte	PATT
	 .word	mus_th_crazy_backup_dancers_10_022
@ 115   ----------------------------------------
	.byte	PATT
	 .word	mus_th_crazy_backup_dancers_10_021
@ 116   ----------------------------------------
	.byte	PATT
	 .word	mus_th_crazy_backup_dancers_10_024
@ 117   ----------------------------------------
	.byte	PATT
	 .word	mus_th_crazy_backup_dancers_10_021
@ 118   ----------------------------------------
	.byte	PATT
	 .word	mus_th_crazy_backup_dancers_10_022
@ 119   ----------------------------------------
	.byte	PATT
	 .word	mus_th_crazy_backup_dancers_10_027
@ 120   ----------------------------------------
	.byte	PATT
	 .word	mus_th_crazy_backup_dancers_10_028
@ 121   ----------------------------------------
	.byte	PATT
	 .word	mus_th_crazy_backup_dancers_10_021
@ 122   ----------------------------------------
	.byte	PATT
	 .word	mus_th_crazy_backup_dancers_10_022
@ 123   ----------------------------------------
	.byte	PATT
	 .word	mus_th_crazy_backup_dancers_10_021
@ 124   ----------------------------------------
	.byte	PATT
	 .word	mus_th_crazy_backup_dancers_10_024
@ 125   ----------------------------------------
	.byte	PATT
	 .word	mus_th_crazy_backup_dancers_10_021
@ 126   ----------------------------------------
	.byte	PATT
	 .word	mus_th_crazy_backup_dancers_10_022
@ 127   ----------------------------------------
	.byte	PATT
	 .word	mus_th_crazy_backup_dancers_10_027
@ 128   ----------------------------------------
	.byte	PATT
	 .word	mus_th_crazy_backup_dancers_10_028
@ 129   ----------------------------------------
	.byte	PATT
	 .word	mus_th_crazy_backup_dancers_10_021
@ 130   ----------------------------------------
	.byte	PATT
	 .word	mus_th_crazy_backup_dancers_10_022
@ 131   ----------------------------------------
	.byte	PATT
	 .word	mus_th_crazy_backup_dancers_10_021
@ 132   ----------------------------------------
	.byte	PATT
	 .word	mus_th_crazy_backup_dancers_10_024
@ 133   ----------------------------------------
	.byte	PATT
	 .word	mus_th_crazy_backup_dancers_10_021
@ 134   ----------------------------------------
	.byte	PATT
	 .word	mus_th_crazy_backup_dancers_10_022
@ 135   ----------------------------------------
	.byte	PATT
	 .word	mus_th_crazy_backup_dancers_10_051
@ 136   ----------------------------------------
	.byte	PATT
	 .word	mus_th_crazy_backup_dancers_10_028
@ 137   ----------------------------------------
	.byte	PATT
	 .word	mus_th_crazy_backup_dancers_10_053
@ 138   ----------------------------------------
	.byte	PATT
	 .word	mus_th_crazy_backup_dancers_10_054
@ 139   ----------------------------------------
	.byte	PATT
	 .word	mus_th_crazy_backup_dancers_10_053
@ 140   ----------------------------------------
	.byte	PATT
	 .word	mus_th_crazy_backup_dancers_10_056
@ 141   ----------------------------------------
	.byte	PATT
	 .word	mus_th_crazy_backup_dancers_10_053
@ 142   ----------------------------------------
	.byte	PATT
	 .word	mus_th_crazy_backup_dancers_10_054
@ 143   ----------------------------------------
	.byte	PATT
	 .word	mus_th_crazy_backup_dancers_10_053
@ 144   ----------------------------------------
	.byte	PATT
	 .word	mus_th_crazy_backup_dancers_10_056
@ 145   ----------------------------------------
	.byte	PATT
	 .word	mus_th_crazy_backup_dancers_10_061
@ 146   ----------------------------------------
	.byte	PATT
	 .word	mus_th_crazy_backup_dancers_10_062
@ 147   ----------------------------------------
	.byte	PATT
	 .word	mus_th_crazy_backup_dancers_10_061
@ 148   ----------------------------------------
	.byte	PATT
	 .word	mus_th_crazy_backup_dancers_10_062
@ 149   ----------------------------------------
	.byte	PATT
	 .word	mus_th_crazy_backup_dancers_10_061
@ 150   ----------------------------------------
	.byte	PATT
	 .word	mus_th_crazy_backup_dancers_10_066
@ 151   ----------------------------------------
	.byte	PATT
	 .word	mus_th_crazy_backup_dancers_10_067
@ 152   ----------------------------------------
	.byte	PATT
	 .word	mus_th_crazy_backup_dancers_10_068
@ 153   ----------------------------------------
	.byte	PATT
	 .word	mus_th_crazy_backup_dancers_10_069
@ 154   ----------------------------------------
	.byte	PATT
	 .word	mus_th_crazy_backup_dancers_10_022
@ 155   ----------------------------------------
	.byte	PATT
	 .word	mus_th_crazy_backup_dancers_10_021
@ 156   ----------------------------------------
	.byte	PATT
	 .word	mus_th_crazy_backup_dancers_10_024
@ 157   ----------------------------------------
	.byte	PATT
	 .word	mus_th_crazy_backup_dancers_10_021
@ 158   ----------------------------------------
	.byte	PATT
	 .word	mus_th_crazy_backup_dancers_10_022
@ 159   ----------------------------------------
	.byte	PATT
	 .word	mus_th_crazy_backup_dancers_10_027
@ 160   ----------------------------------------
	.byte	PATT
	 .word	mus_th_crazy_backup_dancers_10_028
@ 161   ----------------------------------------
	.byte	PATT
	 .word	mus_th_crazy_backup_dancers_10_021
@ 162   ----------------------------------------
	.byte	PATT
	 .word	mus_th_crazy_backup_dancers_10_022
@ 163   ----------------------------------------
	.byte	PATT
	 .word	mus_th_crazy_backup_dancers_10_021
@ 164   ----------------------------------------
	.byte	PATT
	 .word	mus_th_crazy_backup_dancers_10_024
@ 165   ----------------------------------------
	.byte	PATT
	 .word	mus_th_crazy_backup_dancers_10_021
@ 166   ----------------------------------------
	.byte	PATT
	 .word	mus_th_crazy_backup_dancers_10_022
@ 167   ----------------------------------------
	.byte	PATT
	 .word	mus_th_crazy_backup_dancers_10_027
@ 168   ----------------------------------------
	.byte	PATT
	 .word	mus_th_crazy_backup_dancers_10_084
	.byte	GOTO
	 .word	mus_th_crazy_backup_dancers_10_B1
mus_th_crazy_backup_dancers_10_B2:
@ 169   ----------------------------------------
	.byte	PATT
	 .word	mus_th_crazy_backup_dancers_10_001
@ 170   ----------------------------------------
	.byte	PATT
	 .word	mus_th_crazy_backup_dancers_10_001
@ 171   ----------------------------------------
	.byte	PATT
	 .word	mus_th_crazy_backup_dancers_10_003
@ 172   ----------------------------------------
	.byte	PATT
	 .word	mus_th_crazy_backup_dancers_10_004
@ 173   ----------------------------------------
	.byte	PATT
	 .word	mus_th_crazy_backup_dancers_10_005
@ 174   ----------------------------------------
	.byte	PATT
	 .word	mus_th_crazy_backup_dancers_10_006
@ 175   ----------------------------------------
	.byte	PATT
	 .word	mus_th_crazy_backup_dancers_10_007
@ 176   ----------------------------------------
	.byte	PATT
	 .word	mus_th_crazy_backup_dancers_10_008
@ 177   ----------------------------------------
	.byte	PATT
	 .word	mus_th_crazy_backup_dancers_10_009
@ 178   ----------------------------------------
	.byte	PATT
	 .word	mus_th_crazy_backup_dancers_10_010
@ 179   ----------------------------------------
	.byte	PATT
	 .word	mus_th_crazy_backup_dancers_10_011
@ 180   ----------------------------------------
	.byte	PATT
	 .word	mus_th_crazy_backup_dancers_10_012
@ 181   ----------------------------------------
	.byte	PATT
	 .word	mus_th_crazy_backup_dancers_10_013
@ 182   ----------------------------------------
	.byte	PATT
	 .word	mus_th_crazy_backup_dancers_10_014
@ 183   ----------------------------------------
	.byte	PATT
	 .word	mus_th_crazy_backup_dancers_10_015
@ 184   ----------------------------------------
	.byte	PATT
	 .word	mus_th_crazy_backup_dancers_10_016
@ 185   ----------------------------------------
	.byte	PATT
	 .word	mus_th_crazy_backup_dancers_10_017
@ 186   ----------------------------------------
	.byte	PATT
	 .word	mus_th_crazy_backup_dancers_10_018
@ 187   ----------------------------------------
	.byte	PATT
	 .word	mus_th_crazy_backup_dancers_10_019
@ 188   ----------------------------------------
	.byte	PATT
	 .word	mus_th_crazy_backup_dancers_10_020
@ 189   ----------------------------------------
	.byte		N06   , Bn0 , v120
	.byte		N06   , Fs1 , v100
	.byte	W02
	.byte	W04
	.byte	W05
	.byte	W01
	.byte		N06   
	.byte	W06
	.byte	W05
	.byte	W01
	.byte		        Dn1 , v112
	.byte	W06
	.byte	W05
	.byte	W01
	.byte		        Fs1 , v100
	.byte	W06
	.byte	W05
	.byte	W01
	.byte		        Bn0 , v120
	.byte		N06   , Fs1 , v100
	.byte		N06   , Gn2 
	.byte	W06
	.byte	W06
	.byte		        Fs1 
	.byte	W02
	.byte	W04
	.byte	W06
	.byte		        Dn1 , v112
	.byte	W02
	.byte	W04
	.byte	W06
	.byte		        Bn0 , v120
	.byte		N06   , Fs1 , v100
	.byte	W02
	.byte	W04
	.byte	W06
@ 190   ----------------------------------------
	.byte		        Bn0 , v120
	.byte		N06   , Fs1 , v100
	.byte	W02
	.byte	W04
	.byte	W06
	.byte		N06   
	.byte	W02
	.byte	W04
	.byte	W06
	.byte		        Dn1 , v112
	.byte	W02
	.byte	W04
	.byte	W06
	.byte		        Fs1 , v100
	.byte	W02
	.byte	W07
	.byte	W03
	.byte		        Bn0 , v120
	.byte		N06   , Gn2 , v100
	.byte	W02
	.byte	W07
	.byte	W03
	.byte		        Fs1 
	.byte	W02
	.byte	W07
	.byte	W03
	.byte		        Dn1 , v112
	.byte		N06   , Fs1 , v100
	.byte	W02
	.byte	W07
	.byte	W03
	.byte		        Bn0 , v120
	.byte		N06   , Fs1 , v100
	.byte	W02
	.byte	W07
	.byte	W03
@ 191   ----------------------------------------
	.byte		        Bn0 , v120
	.byte		N06   , Fs1 , v100
	.byte	W02
	.byte	W07
	.byte	W03
	.byte		N06   
	.byte	W02
	.byte	W07
	.byte	W03
	.byte		        Dn1 , v112
	.byte	W02
	.byte	W07
	.byte	W03
	.byte		        Fs1 , v100
	.byte	W04
	.byte	W05
	.byte	W03
	.byte		        Bn0 , v120
	.byte		N06   , Fs1 , v100
	.byte		N06   , Gn2 
	.byte	W04
	.byte	W05
	.byte	W03
	.byte		        Fs1 
	.byte	W04
	.byte	W05
	.byte	W03
	.byte		        Dn1 , v112
	.byte	W04
	.byte	W05
	.byte	W03
	.byte		        Bn0 , v120
	.byte		N06   , Fs1 , v100
	.byte	W04
	.byte	W05
	.byte	W03
@ 192   ----------------------------------------
	.byte		        Bn0 , v120
	.byte		N06   , Fs1 , v100
	.byte	W04
	.byte	W05
	.byte	W03
	.byte		N06   
	.byte	W04
	.byte	W07
	.byte	W01
	.byte		        Dn1 , v112
	.byte	W04
	.byte	W07
	.byte	W01
	.byte		        Fs1 , v100
	.byte	W04
	.byte	W07
	.byte	W01
	.byte		        Bn0 , v120
	.byte		N06   , Gn2 , v100
	.byte	W04
	.byte	W07
	.byte	W01
	.byte		        Fs1 
	.byte	W04
	.byte	W07
	.byte	W01
	.byte		        Dn1 , v112
	.byte		N06   , Fs1 , v100
	.byte		N06   , Gn2 
	.byte	W04
	.byte	W07
	.byte	W01
	.byte		        Fs1 
	.byte	W04
	.byte	W07
	.byte	W01
@ 193   ----------------------------------------
	.byte		        Bn0 , v120
	.byte		N06   , Fs1 , v100
	.byte	W06
	.byte	W05
	.byte	W01
	.byte		N06   
	.byte	W06
	.byte	W05
	.byte	W01
	.byte		        Dn1 , v112
	.byte	W06
	.byte	W05
	.byte	W01
	.byte		        Fs1 , v100
	.byte	W06
	.byte	W05
	.byte	W01
	.byte		        Bn0 , v120
	.byte		N06   , Fs1 , v100
	.byte		N06   , Gn2 
	.byte	W06
	.byte	W05
	.byte	W01
	.byte		        Fs1 
	.byte	W06
	.byte	W05
	.byte	W01
	.byte		        Dn1 , v112
	.byte	W06
	.byte	W06
	.byte		        Bn0 , v120
	.byte		N06   , Fs1 , v100
	.byte	W02
	.byte	W04
	.byte	W06
@ 194   ----------------------------------------
	.byte		        Bn0 , v120
	.byte		N06   , Fs1 , v100
	.byte	W02
	.byte	W04
	.byte	W06
	.byte		N06   
	.byte	W02
	.byte	W04
	.byte	W06
	.byte		        Dn1 , v112
	.byte	W02
	.byte	W04
	.byte	W06
	.byte		        Fs1 , v100
	.byte	W02
	.byte	W04
	.byte	W06
	.byte		        Bn0 , v120
	.byte		N06   , Gn2 , v100
	.byte	W02
	.byte	W04
	.byte	W06
	.byte		        Fs1 
	.byte	W02
	.byte	W04
	.byte	W06
	.byte		        Dn1 , v112
	.byte		N06   , Fs1 , v100
	.byte	W02
	.byte	W07
	.byte	W03
	.byte		        Bn0 , v120
	.byte		N06   , Fs1 , v100
	.byte	W02
	.byte	W07
	.byte	W03
@ 195   ----------------------------------------
	.byte		        Bn0 , v120
	.byte		N06   , Fs1 , v100
	.byte		N06   , Gn2 
	.byte	W02
	.byte	W07
	.byte	W03
	.byte		        Fs1 
	.byte	W02
	.byte	W07
	.byte	W03
	.byte		        Dn1 , v112
	.byte	W02
	.byte	W07
	.byte	W03
	.byte		        Fs1 , v100
	.byte	W02
	.byte	W07
	.byte	W03
	.byte		        Bn0 , v120
	.byte		N06   , Fs1 , v100
	.byte		N06   , Gn2 
	.byte	W02
	.byte	W07
	.byte	W03
	.byte		        Fs1 
	.byte	W04
	.byte	W05
	.byte	W03
	.byte		        Dn1 , v112
	.byte	W04
	.byte	W05
	.byte	W03
	.byte		        Bn0 , v120
	.byte		N06   , Fs1 , v100
	.byte	W04
	.byte	W05
	.byte	W03
@ 196   ----------------------------------------
	.byte		        Bn0 , v120
	.byte		N06   , Fs1 , v100
	.byte	W04
	.byte	W05
	.byte	W03
	.byte		        Bn0 , v120
	.byte		N06   , Fs1 , v100
	.byte	W04
	.byte	W05
	.byte	W03
	.byte		        Bn0 , v120
	.byte		N06   , Dn1 , v112
	.byte	W04
	.byte	W05
	.byte	W03
	.byte		        Bn0 , v120
	.byte		N06   , Fs1 , v100
	.byte	W04
	.byte	W07
	.byte	W01
	.byte		        Bn0 , v120
	.byte		N06   , Gn2 , v100
	.byte	W04
	.byte	W07
	.byte	W01
	.byte		        Fs1 
	.byte	W04
	.byte	W07
	.byte	W01
	.byte		        Bn0 , v120
	.byte		N06   , Dn1 , v112
	.byte		N06   , Fs1 , v100
	.byte		N06   , Gn2 
	.byte	W04
	.byte	W07
	.byte	W01
	.byte		        Bn0 , v120
	.byte		N06   , Fs1 , v100
	.byte	W04
	.byte	W07
	.byte	W01
@ 197   ----------------------------------------
	.byte	W48
	.byte	W01
	.byte	FINE

@**************** Track 11 (Midi-Chn.11) ****************@

mus_th_crazy_backup_dancers_11:
	.byte	KEYSH , mus_th_crazy_backup_dancers_key+0
@ 000   ----------------------------------------
	.byte	W24
	.byte		VOL   , 120*mus_th_crazy_backup_dancers_mvl/mxv
	.byte	W03
	.byte		PAN   , c_v+0
	.byte	W03
	.byte		VOICE , 26
	.byte	W03
	.byte	W03
	.byte	W03
	.byte	W03
	.byte		BEND  , c_v+0
	.byte	W03
	.byte		MOD   , 0
	.byte	W03
	.byte	W03
	.byte	W03
	.byte	W03
	.byte	W03
	.byte	W03
	.byte	W03
	.byte	W03
	.byte	W03
	.byte	W24
@ 001   ----------------------------------------
	.byte	W96
@ 002   ----------------------------------------
	.byte	W96
@ 003   ----------------------------------------
	.byte	W96
@ 004   ----------------------------------------
	.byte	W96
@ 005   ----------------------------------------
	.byte	W96
@ 006   ----------------------------------------
	.byte	W96
@ 007   ----------------------------------------
	.byte	W96
@ 008   ----------------------------------------
	.byte	W96
@ 009   ----------------------------------------
	.byte	W96
@ 010   ----------------------------------------
	.byte	W96
@ 011   ----------------------------------------
	.byte	W96
@ 012   ----------------------------------------
	.byte	W96
@ 013   ----------------------------------------
	.byte	W96
@ 014   ----------------------------------------
	.byte	W96
@ 015   ----------------------------------------
	.byte	W96
@ 016   ----------------------------------------
	.byte	W96
@ 017   ----------------------------------------
	.byte	W96
@ 018   ----------------------------------------
	.byte	W96
@ 019   ----------------------------------------
	.byte	W96
@ 020   ----------------------------------------
	.byte	W96
mus_th_crazy_backup_dancers_11_B1:
@ 021   ----------------------------------------
	.byte	W96
@ 022   ----------------------------------------
	.byte	W96
@ 023   ----------------------------------------
	.byte	W96
@ 024   ----------------------------------------
	.byte	W96
@ 025   ----------------------------------------
	.byte	W96
@ 026   ----------------------------------------
	.byte	W96
@ 027   ----------------------------------------
	.byte	W96
@ 028   ----------------------------------------
	.byte	W96
@ 029   ----------------------------------------
	.byte	W96
@ 030   ----------------------------------------
	.byte	W96
@ 031   ----------------------------------------
	.byte	W96
@ 032   ----------------------------------------
	.byte	W96
@ 033   ----------------------------------------
	.byte	W96
@ 034   ----------------------------------------
	.byte	W96
@ 035   ----------------------------------------
	.byte	W96
@ 036   ----------------------------------------
	.byte	W96
@ 037   ----------------------------------------
	.byte	W96
@ 038   ----------------------------------------
	.byte	W96
@ 039   ----------------------------------------
	.byte	W96
@ 040   ----------------------------------------
	.byte	W96
@ 041   ----------------------------------------
	.byte	W96
@ 042   ----------------------------------------
	.byte	W96
@ 043   ----------------------------------------
	.byte	W96
@ 044   ----------------------------------------
	.byte	W96
@ 045   ----------------------------------------
	.byte	W96
@ 046   ----------------------------------------
	.byte	W96
@ 047   ----------------------------------------
	.byte	W96
@ 048   ----------------------------------------
	.byte	W96
@ 049   ----------------------------------------
	.byte	W96
@ 050   ----------------------------------------
	.byte	W96
@ 051   ----------------------------------------
	.byte	W96
@ 052   ----------------------------------------
	.byte	W96
@ 053   ----------------------------------------
	.byte		TIE   , Cn1 , v100
	.byte		TIE   , Gn1 
	.byte		TIE   , Cn2 
	.byte	W96
@ 054   ----------------------------------------
	.byte	W96
	.byte		EOT   , Cn1 
	.byte		        Gn1 
	.byte		        Cn2 
@ 055   ----------------------------------------
	.byte		TIE   , Dn1 
	.byte		TIE   , An1 
	.byte		TIE   , Dn2 
	.byte	W96
@ 056   ----------------------------------------
	.byte	W96
	.byte		EOT   , Dn1 
	.byte		        An1 
	.byte		        Dn2 
@ 057   ----------------------------------------
	.byte		TIE   , Fs1 
	.byte		TIE   , Bn1 
	.byte		TIE   , Fs2 
	.byte	W96
@ 058   ----------------------------------------
	.byte	W96
	.byte		EOT   , Fs1 
	.byte		        Bn1 
	.byte		        Fs2 
@ 059   ----------------------------------------
mus_th_crazy_backup_dancers_11_059:
	.byte		TIE   , Gn1 , v100
	.byte		TIE   , Cn2 
	.byte		TIE   , Gn2 
	.byte	W96
	.byte	PEND
@ 060   ----------------------------------------
	.byte	W96
	.byte		EOT   , Gn1 
	.byte		        Cn2 
	.byte		        Gn2 
@ 061   ----------------------------------------
	.byte		TIE   , Gn1 
	.byte		TIE   , En2 
	.byte		TIE   , Gn2 
	.byte	W96
@ 062   ----------------------------------------
	.byte	W96
	.byte		EOT   , Gn1 
	.byte		        En2 
	.byte		        Gn2 
@ 063   ----------------------------------------
	.byte		TIE   , An1 
	.byte		TIE   , Fs2 
	.byte		TIE   , An2 
	.byte	W96
@ 064   ----------------------------------------
	.byte	W96
	.byte		EOT   , An1 
	.byte		        Fs2 
	.byte		        An2 
@ 065   ----------------------------------------
	.byte		TIE   , Cs2 
	.byte		TIE   , An2 
	.byte		TIE   , Cs3 
	.byte	W96
@ 066   ----------------------------------------
	.byte	W96
	.byte		EOT   , Cs2 
	.byte		        An2 
	.byte		        Cs3 
@ 067   ----------------------------------------
	.byte		TIE   , Ds2 
	.byte		TIE   , Bn2 
	.byte		TIE   , Ds3 
	.byte	W96
@ 068   ----------------------------------------
	.byte	W96
	.byte		EOT   , Ds2 
	.byte		        Bn2 
	.byte		        Ds3 
@ 069   ----------------------------------------
	.byte	W96
@ 070   ----------------------------------------
	.byte	W96
@ 071   ----------------------------------------
	.byte	W96
@ 072   ----------------------------------------
	.byte	W96
@ 073   ----------------------------------------
	.byte	W96
@ 074   ----------------------------------------
	.byte	W96
@ 075   ----------------------------------------
	.byte	W96
@ 076   ----------------------------------------
	.byte	W96
@ 077   ----------------------------------------
	.byte	W96
@ 078   ----------------------------------------
	.byte	W96
@ 079   ----------------------------------------
	.byte	W96
@ 080   ----------------------------------------
	.byte	W96
@ 081   ----------------------------------------
	.byte	W96
@ 082   ----------------------------------------
	.byte	W96
@ 083   ----------------------------------------
	.byte	W96
@ 084   ----------------------------------------
	.byte	W96
@ 085   ----------------------------------------
	.byte	W96
@ 086   ----------------------------------------
	.byte	W96
@ 087   ----------------------------------------
	.byte	W96
@ 088   ----------------------------------------
	.byte	W96
@ 089   ----------------------------------------
	.byte	W96
@ 090   ----------------------------------------
	.byte	W96
@ 091   ----------------------------------------
	.byte	W96
@ 092   ----------------------------------------
	.byte	W96
@ 093   ----------------------------------------
	.byte	W96
@ 094   ----------------------------------------
	.byte	W96
@ 095   ----------------------------------------
	.byte	W96
@ 096   ----------------------------------------
	.byte	W96
@ 097   ----------------------------------------
	.byte	W96
@ 098   ----------------------------------------
	.byte	W96
@ 099   ----------------------------------------
	.byte	W96
@ 100   ----------------------------------------
	.byte	W96
@ 101   ----------------------------------------
	.byte	W96
@ 102   ----------------------------------------
	.byte	W96
@ 103   ----------------------------------------
	.byte	W96
@ 104   ----------------------------------------
	.byte	W96
@ 105   ----------------------------------------
	.byte	W96
@ 106   ----------------------------------------
	.byte	W96
@ 107   ----------------------------------------
	.byte	W96
@ 108   ----------------------------------------
	.byte	W96
@ 109   ----------------------------------------
	.byte	W96
@ 110   ----------------------------------------
	.byte	W96
@ 111   ----------------------------------------
	.byte	W96
@ 112   ----------------------------------------
	.byte	W96
@ 113   ----------------------------------------
	.byte	W96
@ 114   ----------------------------------------
	.byte	W96
@ 115   ----------------------------------------
	.byte	W96
@ 116   ----------------------------------------
	.byte	W96
@ 117   ----------------------------------------
	.byte	W96
@ 118   ----------------------------------------
	.byte	W96
@ 119   ----------------------------------------
	.byte	W96
@ 120   ----------------------------------------
	.byte	W96
@ 121   ----------------------------------------
	.byte	W96
@ 122   ----------------------------------------
	.byte	W96
@ 123   ----------------------------------------
	.byte	W96
@ 124   ----------------------------------------
	.byte	W96
@ 125   ----------------------------------------
	.byte	W96
@ 126   ----------------------------------------
	.byte	W96
@ 127   ----------------------------------------
	.byte	W96
@ 128   ----------------------------------------
	.byte	W96
@ 129   ----------------------------------------
	.byte	W96
@ 130   ----------------------------------------
	.byte	W96
@ 131   ----------------------------------------
	.byte	W96
@ 132   ----------------------------------------
	.byte	W96
@ 133   ----------------------------------------
	.byte	W96
@ 134   ----------------------------------------
	.byte	W96
@ 135   ----------------------------------------
	.byte	W96
@ 136   ----------------------------------------
	.byte	W96
@ 137   ----------------------------------------
	.byte		TIE   , Cs1 
	.byte		TIE   , Gs1 
	.byte		TIE   , Cs2 
	.byte	W96
@ 138   ----------------------------------------
	.byte	W96
	.byte		EOT   , Cs1 
	.byte		        Gs1 
	.byte		        Cs2 
@ 139   ----------------------------------------
	.byte		TIE   , Ds1 
	.byte		TIE   , As1 
	.byte		TIE   , Ds2 
	.byte	W96
@ 140   ----------------------------------------
	.byte	W96
	.byte		EOT   , Ds1 
	.byte		        As1 
	.byte		        Ds2 
@ 141   ----------------------------------------
	.byte	PATT
	 .word	mus_th_crazy_backup_dancers_11_059
@ 142   ----------------------------------------
	.byte	W96
	.byte		EOT   , Gn1 
	.byte		        Cn2 
	.byte		        Gn2 
@ 143   ----------------------------------------
	.byte		TIE   , Gs1 , v100
	.byte		TIE   , Cs2 
	.byte		TIE   , Gs2 
	.byte	W96
@ 144   ----------------------------------------
	.byte	W96
	.byte		EOT   , Gs1 
	.byte		        Cs2 
	.byte		        Gs2 
@ 145   ----------------------------------------
	.byte		TIE   , Gs1 
	.byte		TIE   , Fn2 
	.byte		TIE   , Gs2 
	.byte	W96
@ 146   ----------------------------------------
	.byte	W96
	.byte		EOT   , Gs1 
	.byte		        Fn2 
	.byte		        Gs2 
@ 147   ----------------------------------------
	.byte		TIE   , As1 
	.byte		TIE   , Gn2 
	.byte		TIE   , As2 
	.byte	W96
@ 148   ----------------------------------------
	.byte	W96
	.byte		EOT   , As1 
	.byte		        Gn2 
	.byte		        As2 
@ 149   ----------------------------------------
	.byte		TIE   , Dn2 
	.byte		TIE   , As2 
	.byte		TIE   , Dn3 
	.byte	W96
@ 150   ----------------------------------------
	.byte	W96
	.byte		EOT   , Dn2 
	.byte		        As2 
	.byte		        Dn3 
@ 151   ----------------------------------------
	.byte		TIE   , En2 
	.byte		TIE   , Cn3 
	.byte		TIE   , En3 
	.byte	W96
@ 152   ----------------------------------------
	.byte	W96
	.byte		EOT   , En2 
	.byte		        Cn3 
	.byte		        En3 
@ 153   ----------------------------------------
	.byte	W96
@ 154   ----------------------------------------
	.byte	W96
@ 155   ----------------------------------------
	.byte	W96
@ 156   ----------------------------------------
	.byte	W96
@ 157   ----------------------------------------
	.byte	W96
@ 158   ----------------------------------------
	.byte	W96
@ 159   ----------------------------------------
	.byte	W96
@ 160   ----------------------------------------
	.byte	W96
@ 161   ----------------------------------------
	.byte	W96
@ 162   ----------------------------------------
	.byte	W96
@ 163   ----------------------------------------
	.byte	W96
@ 164   ----------------------------------------
	.byte	W96
@ 165   ----------------------------------------
	.byte	W96
@ 166   ----------------------------------------
	.byte	W96
@ 167   ----------------------------------------
	.byte	W96
@ 168   ----------------------------------------
	.byte	W96
	.byte	GOTO
	 .word	mus_th_crazy_backup_dancers_11_B1
mus_th_crazy_backup_dancers_11_B2:
@ 169   ----------------------------------------
	.byte	FINE

@**************** Track 12 (Midi-Chn.12) ****************@

mus_th_crazy_backup_dancers_12:
	.byte	KEYSH , mus_th_crazy_backup_dancers_key+0
@ 000   ----------------------------------------
	.byte	W24
	.byte		VOL   , 115*mus_th_crazy_backup_dancers_mvl/mxv
	.byte	W03
	.byte		PAN   , c_v+0
	.byte	W03
	.byte		VOICE , 40
	.byte	W03
	.byte	W03
	.byte	W03
	.byte	W03
	.byte		BEND  , c_v+0
	.byte	W03
	.byte		MOD   , 0
	.byte	W03
	.byte	W03
	.byte	W03
	.byte	W03
	.byte	W03
	.byte	W03
	.byte	W03
	.byte	W03
	.byte	W03
	.byte	W24
@ 001   ----------------------------------------
	.byte	W96
@ 002   ----------------------------------------
	.byte	W96
@ 003   ----------------------------------------
	.byte	W96
@ 004   ----------------------------------------
	.byte	W96
@ 005   ----------------------------------------
	.byte	W96
@ 006   ----------------------------------------
	.byte	W96
@ 007   ----------------------------------------
	.byte	W96
@ 008   ----------------------------------------
	.byte	W96
@ 009   ----------------------------------------
	.byte	W96
@ 010   ----------------------------------------
	.byte	W96
@ 011   ----------------------------------------
	.byte	W96
@ 012   ----------------------------------------
	.byte	W96
@ 013   ----------------------------------------
	.byte	W96
@ 014   ----------------------------------------
	.byte	W96
@ 015   ----------------------------------------
	.byte	W96
@ 016   ----------------------------------------
	.byte	W96
@ 017   ----------------------------------------
	.byte	W96
@ 018   ----------------------------------------
	.byte	W96
@ 019   ----------------------------------------
	.byte	W96
@ 020   ----------------------------------------
	.byte	W96
mus_th_crazy_backup_dancers_12_B1:
@ 021   ----------------------------------------
	.byte	W96
@ 022   ----------------------------------------
	.byte	W96
@ 023   ----------------------------------------
	.byte	W96
@ 024   ----------------------------------------
	.byte	W96
@ 025   ----------------------------------------
	.byte	W96
@ 026   ----------------------------------------
	.byte	W96
@ 027   ----------------------------------------
	.byte	W96
@ 028   ----------------------------------------
	.byte	W96
@ 029   ----------------------------------------
	.byte	W96
@ 030   ----------------------------------------
	.byte	W96
@ 031   ----------------------------------------
	.byte	W96
@ 032   ----------------------------------------
	.byte	W96
@ 033   ----------------------------------------
	.byte	W96
@ 034   ----------------------------------------
	.byte	W96
@ 035   ----------------------------------------
	.byte	W96
@ 036   ----------------------------------------
	.byte	W96
@ 037   ----------------------------------------
	.byte	W96
@ 038   ----------------------------------------
	.byte	W96
@ 039   ----------------------------------------
	.byte	W96
@ 040   ----------------------------------------
	.byte	W96
@ 041   ----------------------------------------
	.byte	W96
@ 042   ----------------------------------------
	.byte	W96
@ 043   ----------------------------------------
	.byte	W96
@ 044   ----------------------------------------
	.byte	W96
@ 045   ----------------------------------------
	.byte	W96
@ 046   ----------------------------------------
	.byte	W96
@ 047   ----------------------------------------
	.byte	W96
@ 048   ----------------------------------------
	.byte	W96
@ 049   ----------------------------------------
	.byte	W96
@ 050   ----------------------------------------
	.byte	W96
@ 051   ----------------------------------------
	.byte	W96
@ 052   ----------------------------------------
	.byte	W96
@ 053   ----------------------------------------
	.byte		N72   , En3 , v100
	.byte		N72   , Gn3 
	.byte	W96
@ 054   ----------------------------------------
	.byte		        Dn3 
	.byte		N72   , Fs3 
	.byte	W96
@ 055   ----------------------------------------
	.byte		        An2 
	.byte		N72   , En3 
	.byte	W96
@ 056   ----------------------------------------
	.byte		        Fs2 
	.byte		N72   , Dn3 
	.byte	W96
@ 057   ----------------------------------------
	.byte		        Fs2 
	.byte		N72   , Dn3 
	.byte	W96
@ 058   ----------------------------------------
	.byte		        Bn2 
	.byte		N72   , Dn3 
	.byte	W96
@ 059   ----------------------------------------
	.byte		        Gn2 
	.byte		N72   , Dn3 
	.byte	W96
@ 060   ----------------------------------------
	.byte		        En3 
	.byte		N72   , Gn3 
	.byte	W96
@ 061   ----------------------------------------
	.byte		        Cn3 
	.byte		N72   , En3 
	.byte	W96
@ 062   ----------------------------------------
	.byte		        Dn3 
	.byte		N72   , Fs3 
	.byte	W96
@ 063   ----------------------------------------
	.byte		        An2 
	.byte		N72   , Ds3 
	.byte	W96
@ 064   ----------------------------------------
	.byte		N72   
	.byte		N72   , Fs3 
	.byte	W96
@ 065   ----------------------------------------
	.byte		        Gs2 
	.byte		N72   , Cs3 
	.byte	W96
@ 066   ----------------------------------------
	.byte		N72   
	.byte		N72   , En3 
	.byte	W96
@ 067   ----------------------------------------
	.byte		        Cs3 
	.byte		N72   , En3 
	.byte	W96
@ 068   ----------------------------------------
	.byte		        Bn2 
	.byte		N72   , Ds3 
	.byte	W96
@ 069   ----------------------------------------
	.byte		        En3 
	.byte		N72   , Gn3 
	.byte	W96
@ 070   ----------------------------------------
	.byte		        Dn3 
	.byte		N72   , Fs3 
	.byte	W96
@ 071   ----------------------------------------
	.byte		        An2 
	.byte		N72   , En3 
	.byte	W96
@ 072   ----------------------------------------
	.byte		        Fs2 
	.byte		N72   , Dn3 
	.byte	W96
@ 073   ----------------------------------------
	.byte		        Fs2 
	.byte		N72   , Dn3 
	.byte	W96
@ 074   ----------------------------------------
	.byte		        Bn2 
	.byte		N72   , Dn3 
	.byte	W96
@ 075   ----------------------------------------
	.byte		        Gn2 
	.byte		N72   , Dn3 
	.byte	W96
@ 076   ----------------------------------------
	.byte		        En3 
	.byte		N72   , Gn3 
	.byte	W96
@ 077   ----------------------------------------
	.byte		        Cn3 
	.byte		N72   , En3 
	.byte	W96
@ 078   ----------------------------------------
	.byte		        Dn3 
	.byte		N72   , Fs3 
	.byte	W96
@ 079   ----------------------------------------
	.byte		        An2 
	.byte		N72   , Ds3 
	.byte	W96
@ 080   ----------------------------------------
	.byte		N72   
	.byte		N72   , Fs3 
	.byte	W96
@ 081   ----------------------------------------
	.byte		        Gs2 
	.byte		N72   , Cs3 
	.byte	W96
@ 082   ----------------------------------------
	.byte		N72   
	.byte		N72   , En3 
	.byte	W96
@ 083   ----------------------------------------
	.byte		        Cs3 
	.byte		N72   , En3 
	.byte	W96
@ 084   ----------------------------------------
	.byte		N24   , Ds3 
	.byte		N24   , Fs3 
	.byte	W24
	.byte		        Ds3 
	.byte		N24   , Fs3 
	.byte	W24
	.byte		        Ds3 
	.byte		N24   , Fs3 
	.byte	W24
	.byte		        Ds3 
	.byte		N24   , Fs3 
	.byte	W24
@ 085   ----------------------------------------
	.byte	W96
@ 086   ----------------------------------------
	.byte	W96
@ 087   ----------------------------------------
	.byte	W96
@ 088   ----------------------------------------
	.byte	W96
@ 089   ----------------------------------------
	.byte	W96
@ 090   ----------------------------------------
	.byte	W96
@ 091   ----------------------------------------
	.byte	W96
@ 092   ----------------------------------------
	.byte	W96
@ 093   ----------------------------------------
	.byte	W96
@ 094   ----------------------------------------
	.byte	W96
@ 095   ----------------------------------------
	.byte	W96
@ 096   ----------------------------------------
	.byte	W96
@ 097   ----------------------------------------
	.byte	W96
@ 098   ----------------------------------------
	.byte	W96
@ 099   ----------------------------------------
	.byte	W96
@ 100   ----------------------------------------
	.byte	W96
@ 101   ----------------------------------------
	.byte	W96
@ 102   ----------------------------------------
	.byte	W96
@ 103   ----------------------------------------
	.byte	W96
@ 104   ----------------------------------------
	.byte	W96
@ 105   ----------------------------------------
	.byte	W96
@ 106   ----------------------------------------
	.byte	W96
@ 107   ----------------------------------------
	.byte	W96
@ 108   ----------------------------------------
	.byte	W96
@ 109   ----------------------------------------
	.byte	W96
@ 110   ----------------------------------------
	.byte	W96
@ 111   ----------------------------------------
	.byte	W96
@ 112   ----------------------------------------
	.byte	W96
@ 113   ----------------------------------------
	.byte	W96
@ 114   ----------------------------------------
	.byte	W96
@ 115   ----------------------------------------
	.byte	W96
@ 116   ----------------------------------------
	.byte	W96
@ 117   ----------------------------------------
	.byte	W96
@ 118   ----------------------------------------
	.byte	W96
@ 119   ----------------------------------------
	.byte	W96
@ 120   ----------------------------------------
	.byte	W96
@ 121   ----------------------------------------
	.byte	W96
@ 122   ----------------------------------------
	.byte	W96
@ 123   ----------------------------------------
	.byte	W96
@ 124   ----------------------------------------
	.byte	W96
@ 125   ----------------------------------------
	.byte	W96
@ 126   ----------------------------------------
	.byte	W96
@ 127   ----------------------------------------
	.byte	W96
@ 128   ----------------------------------------
	.byte	W96
@ 129   ----------------------------------------
	.byte	W96
@ 130   ----------------------------------------
	.byte	W96
@ 131   ----------------------------------------
	.byte	W96
@ 132   ----------------------------------------
	.byte	W96
@ 133   ----------------------------------------
	.byte	W96
@ 134   ----------------------------------------
	.byte	W96
@ 135   ----------------------------------------
	.byte	W96
@ 136   ----------------------------------------
	.byte	W96
@ 137   ----------------------------------------
	.byte	W96
@ 138   ----------------------------------------
	.byte	W96
@ 139   ----------------------------------------
	.byte	W96
@ 140   ----------------------------------------
	.byte	W96
@ 141   ----------------------------------------
	.byte	W96
@ 142   ----------------------------------------
	.byte	W96
@ 143   ----------------------------------------
	.byte	W96
@ 144   ----------------------------------------
	.byte	W96
@ 145   ----------------------------------------
	.byte	W96
@ 146   ----------------------------------------
	.byte	W96
@ 147   ----------------------------------------
	.byte	W96
@ 148   ----------------------------------------
	.byte	W96
@ 149   ----------------------------------------
	.byte	W96
@ 150   ----------------------------------------
	.byte	W96
@ 151   ----------------------------------------
	.byte	W96
@ 152   ----------------------------------------
	.byte	W96
@ 153   ----------------------------------------
	.byte	W96
@ 154   ----------------------------------------
	.byte	W96
@ 155   ----------------------------------------
	.byte	W96
@ 156   ----------------------------------------
	.byte	W96
@ 157   ----------------------------------------
	.byte	W96
@ 158   ----------------------------------------
	.byte	W96
@ 159   ----------------------------------------
	.byte	W96
@ 160   ----------------------------------------
	.byte	W96
@ 161   ----------------------------------------
	.byte	W96
@ 162   ----------------------------------------
	.byte	W96
@ 163   ----------------------------------------
	.byte	W96
@ 164   ----------------------------------------
	.byte	W96
@ 165   ----------------------------------------
	.byte	W96
@ 166   ----------------------------------------
	.byte	W96
@ 167   ----------------------------------------
	.byte	W96
@ 168   ----------------------------------------
	.byte	W96
	.byte	GOTO
	 .word	mus_th_crazy_backup_dancers_12_B1
mus_th_crazy_backup_dancers_12_B2:
@ 169   ----------------------------------------
	.byte	FINE

@**************** Track 13 (Midi-Chn.13) ****************@

mus_th_crazy_backup_dancers_13:
	.byte	KEYSH , mus_th_crazy_backup_dancers_key+0
@ 000   ----------------------------------------
	.byte	W24
	.byte		VOL   , 127*mus_th_crazy_backup_dancers_mvl/mxv
	.byte	W03
	.byte		PAN   , c_v+0
	.byte	W03
	.byte		VOICE , 62
	.byte	W03
	.byte	W03
	.byte	W03
	.byte	W03
	.byte		BEND  , c_v+0
	.byte	W03
	.byte		MOD   , 8
	.byte	W03
	.byte	W03
	.byte	W03
	.byte	W03
	.byte	W03
	.byte	W03
	.byte	W03
	.byte	W03
	.byte	W03
	.byte	W24
@ 001   ----------------------------------------
	.byte	W96
@ 002   ----------------------------------------
	.byte	W96
@ 003   ----------------------------------------
	.byte	W96
@ 004   ----------------------------------------
	.byte	W96
@ 005   ----------------------------------------
	.byte	W96
@ 006   ----------------------------------------
	.byte	W96
@ 007   ----------------------------------------
	.byte	W96
@ 008   ----------------------------------------
	.byte	W96
@ 009   ----------------------------------------
	.byte	W96
@ 010   ----------------------------------------
	.byte	W96
@ 011   ----------------------------------------
	.byte	W96
@ 012   ----------------------------------------
	.byte	W96
@ 013   ----------------------------------------
	.byte	W96
@ 014   ----------------------------------------
	.byte	W96
@ 015   ----------------------------------------
	.byte	W96
@ 016   ----------------------------------------
	.byte	W96
@ 017   ----------------------------------------
	.byte	W96
@ 018   ----------------------------------------
	.byte	W96
@ 019   ----------------------------------------
	.byte	W96
@ 020   ----------------------------------------
	.byte	W96
mus_th_crazy_backup_dancers_13_B1:
@ 021   ----------------------------------------
	.byte	W96
@ 022   ----------------------------------------
	.byte	W96
@ 023   ----------------------------------------
	.byte	W96
@ 024   ----------------------------------------
	.byte	W96
@ 025   ----------------------------------------
	.byte	W96
@ 026   ----------------------------------------
	.byte	W96
@ 027   ----------------------------------------
	.byte	W96
@ 028   ----------------------------------------
	.byte	W96
@ 029   ----------------------------------------
	.byte	W96
@ 030   ----------------------------------------
	.byte	W96
@ 031   ----------------------------------------
	.byte	W96
@ 032   ----------------------------------------
	.byte	W96
@ 033   ----------------------------------------
	.byte	W96
@ 034   ----------------------------------------
	.byte	W96
@ 035   ----------------------------------------
	.byte	W96
@ 036   ----------------------------------------
	.byte	W96
@ 037   ----------------------------------------
mus_th_crazy_backup_dancers_13_037:
	.byte		N24   , En3 , v100
	.byte	W24
	.byte		        Bn3 
	.byte	W24
	.byte		        As3 
	.byte	W24
	.byte		        Bn3 
	.byte	W24
	.byte	PEND
@ 038   ----------------------------------------
mus_th_crazy_backup_dancers_13_038:
	.byte		N24   , En4 , v100
	.byte	W24
	.byte		        Bn3 
	.byte	W24
	.byte		        As3 
	.byte	W24
	.byte		        Gn3 
	.byte	W24
	.byte	PEND
@ 039   ----------------------------------------
mus_th_crazy_backup_dancers_13_039:
	.byte		N24   , An3 , v100
	.byte	W24
	.byte		        Gn3 
	.byte	W24
	.byte		        Fs3 
	.byte	W24
	.byte		        Gn3 
	.byte	W24
	.byte	PEND
@ 040   ----------------------------------------
mus_th_crazy_backup_dancers_13_040:
	.byte		N24   , Fs3 , v100
	.byte	W24
	.byte		        Dn3 
	.byte	W24
	.byte		N48   , Bn2 
	.byte	W48
	.byte	PEND
@ 041   ----------------------------------------
	.byte	PATT
	 .word	mus_th_crazy_backup_dancers_13_037
@ 042   ----------------------------------------
mus_th_crazy_backup_dancers_13_042:
	.byte		N24   , En4 , v100
	.byte	W24
	.byte		        Bn3 
	.byte	W24
	.byte		        As3 
	.byte	W24
	.byte		        Fs4 
	.byte	W24
	.byte	PEND
@ 043   ----------------------------------------
mus_th_crazy_backup_dancers_13_043:
	.byte		N24   , Gn4 , v100
	.byte	W24
	.byte		        Fs4 
	.byte	W24
	.byte		        Dn4 
	.byte	W24
	.byte		        En4 
	.byte	W24
	.byte	PEND
@ 044   ----------------------------------------
mus_th_crazy_backup_dancers_13_044:
	.byte		N24   , Bn3 , v100
	.byte	W24
	.byte		        Ds4 
	.byte	W24
	.byte		N48   , En4 
	.byte	W48
	.byte	PEND
@ 045   ----------------------------------------
	.byte	PATT
	 .word	mus_th_crazy_backup_dancers_13_037
@ 046   ----------------------------------------
	.byte	PATT
	 .word	mus_th_crazy_backup_dancers_13_038
@ 047   ----------------------------------------
	.byte	PATT
	 .word	mus_th_crazy_backup_dancers_13_039
@ 048   ----------------------------------------
	.byte	PATT
	 .word	mus_th_crazy_backup_dancers_13_040
@ 049   ----------------------------------------
	.byte	PATT
	 .word	mus_th_crazy_backup_dancers_13_037
@ 050   ----------------------------------------
	.byte	PATT
	 .word	mus_th_crazy_backup_dancers_13_042
@ 051   ----------------------------------------
	.byte	PATT
	 .word	mus_th_crazy_backup_dancers_13_043
@ 052   ----------------------------------------
	.byte	PATT
	 .word	mus_th_crazy_backup_dancers_13_044
@ 053   ----------------------------------------
mus_th_crazy_backup_dancers_13_053:
	.byte		N24   , En4 , v100
	.byte	W24
	.byte		        Bn3 
	.byte	W24
	.byte		        An3 
	.byte	W24
	.byte		        En4 
	.byte	W24
	.byte	PEND
@ 054   ----------------------------------------
mus_th_crazy_backup_dancers_13_054:
	.byte		N24   , Fs4 , v100
	.byte	W24
	.byte		        Bn3 
	.byte	W24
	.byte		        An3 
	.byte	W24
	.byte		        Fs4 
	.byte	W24
	.byte	PEND
@ 055   ----------------------------------------
mus_th_crazy_backup_dancers_13_055:
	.byte		N24   , Gn4 , v100
	.byte	W24
	.byte		        Bn3 
	.byte	W24
	.byte		        An3 
	.byte	W24
	.byte		        Gn4 
	.byte	W24
	.byte	PEND
@ 056   ----------------------------------------
mus_th_crazy_backup_dancers_13_056:
	.byte		N24   , An4 , v100
	.byte	W24
	.byte		        Bn3 
	.byte	W24
	.byte		        An3 
	.byte	W24
	.byte		        An4 
	.byte	W24
	.byte	PEND
@ 057   ----------------------------------------
	.byte	PATT
	 .word	mus_th_crazy_backup_dancers_13_054
@ 058   ----------------------------------------
mus_th_crazy_backup_dancers_13_058:
	.byte		N24   , Bn4 , v100
	.byte	W24
	.byte		        Bn3 
	.byte	W24
	.byte		        An3 
	.byte	W24
	.byte		        Bn4 
	.byte	W24
	.byte	PEND
@ 059   ----------------------------------------
	.byte	PATT
	 .word	mus_th_crazy_backup_dancers_13_055
@ 060   ----------------------------------------
	.byte		N72   , En4 , v100
	.byte	W96
@ 061   ----------------------------------------
	.byte	PATT
	 .word	mus_th_crazy_backup_dancers_13_053
@ 062   ----------------------------------------
	.byte	PATT
	 .word	mus_th_crazy_backup_dancers_13_054
@ 063   ----------------------------------------
mus_th_crazy_backup_dancers_13_063:
	.byte		N24   , Ds4 , v100
	.byte	W24
	.byte		        Bn3 
	.byte	W24
	.byte		        An3 
	.byte	W24
	.byte		        Ds4 
	.byte	W24
	.byte	PEND
@ 064   ----------------------------------------
	.byte	PATT
	 .word	mus_th_crazy_backup_dancers_13_056
@ 065   ----------------------------------------
mus_th_crazy_backup_dancers_13_065:
	.byte		N24   , Fs4 , v100
	.byte	W24
	.byte		        Ds4 
	.byte	W24
	.byte		        An3 
	.byte	W24
	.byte		        Fs4 
	.byte	W24
	.byte	PEND
@ 066   ----------------------------------------
	.byte		        En4 
	.byte	W24
	.byte		        Bn3 
	.byte	W24
	.byte		        An3 
	.byte	W24
	.byte		        Cs4 
	.byte	W24
@ 067   ----------------------------------------
	.byte		        En3 
	.byte	W24
	.byte		        En4 
	.byte	W24
	.byte		        Ds4 
	.byte	W24
	.byte		        Bn4 
	.byte	W24
@ 068   ----------------------------------------
	.byte		N48   , Fs4 
	.byte	W48
	.byte		N24   , Bn4 
	.byte	W48
@ 069   ----------------------------------------
	.byte	PATT
	 .word	mus_th_crazy_backup_dancers_13_053
@ 070   ----------------------------------------
	.byte	PATT
	 .word	mus_th_crazy_backup_dancers_13_054
@ 071   ----------------------------------------
	.byte	PATT
	 .word	mus_th_crazy_backup_dancers_13_055
@ 072   ----------------------------------------
	.byte	PATT
	 .word	mus_th_crazy_backup_dancers_13_056
@ 073   ----------------------------------------
	.byte	PATT
	 .word	mus_th_crazy_backup_dancers_13_054
@ 074   ----------------------------------------
	.byte	PATT
	 .word	mus_th_crazy_backup_dancers_13_058
@ 075   ----------------------------------------
	.byte	PATT
	 .word	mus_th_crazy_backup_dancers_13_055
@ 076   ----------------------------------------
	.byte		N72   , En4 , v100
	.byte	W96
@ 077   ----------------------------------------
	.byte	PATT
	 .word	mus_th_crazy_backup_dancers_13_053
@ 078   ----------------------------------------
	.byte	PATT
	 .word	mus_th_crazy_backup_dancers_13_054
@ 079   ----------------------------------------
	.byte	PATT
	 .word	mus_th_crazy_backup_dancers_13_063
@ 080   ----------------------------------------
	.byte	PATT
	 .word	mus_th_crazy_backup_dancers_13_056
@ 081   ----------------------------------------
	.byte	PATT
	 .word	mus_th_crazy_backup_dancers_13_065
@ 082   ----------------------------------------
	.byte		N24   , As4 , v100
	.byte	W24
	.byte		        Bn3 
	.byte	W24
	.byte		        An3 
	.byte	W24
	.byte		        As4 
	.byte	W24
@ 083   ----------------------------------------
	.byte		        Bn4 
	.byte	W24
	.byte		        En4 
	.byte	W24
	.byte		        Ds4 
	.byte	W24
	.byte		        An4 
	.byte	W24
@ 084   ----------------------------------------
	.byte		        Bn4 
	.byte	W24
	.byte		        En4 
	.byte	W24
	.byte		        Ds4 
	.byte	W24
	.byte		        Cs5 
	.byte	W24
@ 085   ----------------------------------------
mus_th_crazy_backup_dancers_13_085:
	.byte		N24   , Cn4 , v080
	.byte		N24   , Cn5 
	.byte	W24
	.byte		        Ds3 
	.byte		N24   , Ds4 
	.byte	W24
	.byte		        Dn3 
	.byte		N24   , Dn4 
	.byte	W24
	.byte		        Bn3 
	.byte		N24   , Bn4 
	.byte	W24
	.byte	PEND
@ 086   ----------------------------------------
mus_th_crazy_backup_dancers_13_086:
	.byte		N24   , As3 , v080
	.byte		N24   , As4 
	.byte	W24
	.byte		        Cs3 
	.byte		N24   , Cs4 
	.byte	W24
	.byte		        Cn3 
	.byte		N24   , Cn4 
	.byte	W24
	.byte		        An3 
	.byte		N24   , An4 
	.byte	W24
	.byte	PEND
@ 087   ----------------------------------------
mus_th_crazy_backup_dancers_13_087:
	.byte		N24   , Gs3 , v080
	.byte		N24   , Gs4 
	.byte	W24
	.byte		        Bn2 
	.byte		N24   , Bn3 
	.byte	W24
	.byte		        As2 
	.byte		N24   , As3 
	.byte	W24
	.byte		        Gn3 
	.byte		N24   , Gn4 
	.byte	W24
	.byte	PEND
@ 088   ----------------------------------------
mus_th_crazy_backup_dancers_13_088:
	.byte		N24   , Fs3 , v080
	.byte		N24   , Fs4 
	.byte	W24
	.byte		        An2 
	.byte		N24   , An3 
	.byte	W24
	.byte		        Gs2 
	.byte		N24   , Gs3 
	.byte	W24
	.byte		        Fn3 
	.byte		N24   , Fn4 
	.byte	W24
	.byte	PEND
@ 089   ----------------------------------------
	.byte	PATT
	 .word	mus_th_crazy_backup_dancers_13_085
@ 090   ----------------------------------------
	.byte	PATT
	 .word	mus_th_crazy_backup_dancers_13_086
@ 091   ----------------------------------------
	.byte	PATT
	 .word	mus_th_crazy_backup_dancers_13_087
@ 092   ----------------------------------------
	.byte	PATT
	 .word	mus_th_crazy_backup_dancers_13_088
@ 093   ----------------------------------------
	.byte	PATT
	 .word	mus_th_crazy_backup_dancers_13_085
@ 094   ----------------------------------------
	.byte	PATT
	 .word	mus_th_crazy_backup_dancers_13_086
@ 095   ----------------------------------------
	.byte	PATT
	 .word	mus_th_crazy_backup_dancers_13_087
@ 096   ----------------------------------------
	.byte	PATT
	 .word	mus_th_crazy_backup_dancers_13_088
@ 097   ----------------------------------------
	.byte		N24   , Cn3 , v080
	.byte		N24   , Cn4 
	.byte	W24
	.byte		        En3 
	.byte		N24   , En4 
	.byte	W24
	.byte		        Fs3 
	.byte		N24   , Fs4 
	.byte	W24
	.byte		        An3 
	.byte		N24   , An4 
	.byte	W24
@ 098   ----------------------------------------
	.byte		        Cn4 
	.byte		N24   , Cn5 
	.byte	W24
	.byte		        En4 
	.byte		N24   , En5 
	.byte	W24
	.byte		        Fs4 
	.byte		N24   , Fs5 
	.byte	W24
	.byte		        An4 
	.byte		N24   , An5 
	.byte	W24
@ 099   ----------------------------------------
mus_th_crazy_backup_dancers_13_099:
	.byte		TIE   , Bn4 , v080
	.byte		TIE   , Bn5 
	.byte	W96
	.byte	PEND
@ 100   ----------------------------------------
	.byte	W24
	.byte		EOT   , Bn4 
	.byte		        Bn5 
	.byte		N06   , As4 , v052
	.byte		N06   , As5 
	.byte	W06
	.byte		        An4 
	.byte		N06   , An5 
	.byte	W06
	.byte		        Gs4 
	.byte		N06   , Gs5 
	.byte	W06
	.byte		        Gn4 
	.byte		N06   , Gn5 
	.byte	W36
	.byte		        Gs4 , v080
	.byte		N06   , Gs5 
	.byte	W06
	.byte		        An4 
	.byte		N06   , An5 
	.byte	W06
	.byte		        As4 
	.byte		N06   , As5 
	.byte	W06
@ 101   ----------------------------------------
	.byte	PATT
	 .word	mus_th_crazy_backup_dancers_13_099
@ 102   ----------------------------------------
	.byte	W96
@ 103   ----------------------------------------
	.byte	W96
@ 104   ----------------------------------------
	.byte	W96
	.byte		EOT   , Bn4 
	.byte		        Bn5 
@ 105   ----------------------------------------
	.byte	W96
@ 106   ----------------------------------------
	.byte	W96
@ 107   ----------------------------------------
	.byte	W96
@ 108   ----------------------------------------
	.byte	W96
@ 109   ----------------------------------------
	.byte	W96
@ 110   ----------------------------------------
	.byte	W96
@ 111   ----------------------------------------
	.byte	W96
@ 112   ----------------------------------------
	.byte	W96
@ 113   ----------------------------------------
	.byte	W96
@ 114   ----------------------------------------
	.byte	W96
@ 115   ----------------------------------------
	.byte	W96
@ 116   ----------------------------------------
	.byte	W96
@ 117   ----------------------------------------
	.byte	W96
@ 118   ----------------------------------------
	.byte	W96
@ 119   ----------------------------------------
	.byte	W96
@ 120   ----------------------------------------
	.byte	W96
@ 121   ----------------------------------------
	.byte	W96
@ 122   ----------------------------------------
	.byte	W96
@ 123   ----------------------------------------
	.byte	W96
@ 124   ----------------------------------------
	.byte	W96
@ 125   ----------------------------------------
	.byte	W96
@ 126   ----------------------------------------
	.byte	W96
@ 127   ----------------------------------------
	.byte	W96
@ 128   ----------------------------------------
	.byte	W96
@ 129   ----------------------------------------
	.byte	W96
@ 130   ----------------------------------------
	.byte	W96
@ 131   ----------------------------------------
	.byte	W96
@ 132   ----------------------------------------
	.byte	W96
@ 133   ----------------------------------------
	.byte	W96
@ 134   ----------------------------------------
	.byte	W96
@ 135   ----------------------------------------
	.byte	W96
@ 136   ----------------------------------------
	.byte	W96
@ 137   ----------------------------------------
mus_th_crazy_backup_dancers_13_137:
	.byte		N24   , Fn4 , v100
	.byte	W24
	.byte		        Cn4 
	.byte	W24
	.byte		        As3 
	.byte	W24
	.byte		        Fn4 
	.byte	W24
	.byte	PEND
@ 138   ----------------------------------------
mus_th_crazy_backup_dancers_13_138:
	.byte		N24   , Gn4 , v100
	.byte	W24
	.byte		        Cn4 
	.byte	W24
	.byte		        As3 
	.byte	W24
	.byte		        Gn4 
	.byte	W24
	.byte	PEND
@ 139   ----------------------------------------
mus_th_crazy_backup_dancers_13_139:
	.byte		N24   , Gs4 , v100
	.byte	W24
	.byte		        Cn4 
	.byte	W24
	.byte		        As3 
	.byte	W24
	.byte		        Gs4 
	.byte	W24
	.byte	PEND
@ 140   ----------------------------------------
mus_th_crazy_backup_dancers_13_140:
	.byte		N24   , As4 , v100
	.byte	W24
	.byte		        Cn4 
	.byte	W24
	.byte		        As3 
	.byte	W24
	.byte		        As4 
	.byte	W24
	.byte	PEND
@ 141   ----------------------------------------
	.byte	PATT
	 .word	mus_th_crazy_backup_dancers_13_138
@ 142   ----------------------------------------
mus_th_crazy_backup_dancers_13_142:
	.byte		N24   , Cn5 , v100
	.byte	W24
	.byte		        Cn4 
	.byte	W24
	.byte		        As3 
	.byte	W24
	.byte		        Cn5 
	.byte	W24
	.byte	PEND
@ 143   ----------------------------------------
	.byte	PATT
	 .word	mus_th_crazy_backup_dancers_13_139
@ 144   ----------------------------------------
	.byte		N72   , Fn4 , v100
	.byte	W96
@ 145   ----------------------------------------
	.byte	PATT
	 .word	mus_th_crazy_backup_dancers_13_137
@ 146   ----------------------------------------
	.byte	PATT
	 .word	mus_th_crazy_backup_dancers_13_138
@ 147   ----------------------------------------
mus_th_crazy_backup_dancers_13_147:
	.byte		N24   , En4 , v100
	.byte	W24
	.byte		        Cn4 
	.byte	W24
	.byte		        As3 
	.byte	W24
	.byte		        En4 
	.byte	W24
	.byte	PEND
@ 148   ----------------------------------------
	.byte	PATT
	 .word	mus_th_crazy_backup_dancers_13_140
@ 149   ----------------------------------------
mus_th_crazy_backup_dancers_13_149:
	.byte		N24   , Gn4 , v100
	.byte	W24
	.byte		        En4 
	.byte	W24
	.byte		        As3 
	.byte	W24
	.byte		        Gn4 
	.byte	W24
	.byte	PEND
@ 150   ----------------------------------------
	.byte		        Fn4 
	.byte	W24
	.byte		        Cn4 
	.byte	W24
	.byte		        As3 
	.byte	W24
	.byte		        Dn4 
	.byte	W24
@ 151   ----------------------------------------
	.byte		        Fn3 
	.byte	W24
	.byte		        Fn4 
	.byte	W24
	.byte		        En4 
	.byte	W24
	.byte		        Cn5 
	.byte	W24
@ 152   ----------------------------------------
	.byte		N48   , Gn4 
	.byte	W48
	.byte		N24   , Cn5 
	.byte	W48
@ 153   ----------------------------------------
	.byte	PATT
	 .word	mus_th_crazy_backup_dancers_13_137
@ 154   ----------------------------------------
	.byte	PATT
	 .word	mus_th_crazy_backup_dancers_13_138
@ 155   ----------------------------------------
	.byte	PATT
	 .word	mus_th_crazy_backup_dancers_13_139
@ 156   ----------------------------------------
	.byte	PATT
	 .word	mus_th_crazy_backup_dancers_13_140
@ 157   ----------------------------------------
	.byte	PATT
	 .word	mus_th_crazy_backup_dancers_13_138
@ 158   ----------------------------------------
	.byte	PATT
	 .word	mus_th_crazy_backup_dancers_13_142
@ 159   ----------------------------------------
	.byte	PATT
	 .word	mus_th_crazy_backup_dancers_13_139
@ 160   ----------------------------------------
	.byte		N72   , Fn4 , v100
	.byte	W96
@ 161   ----------------------------------------
	.byte	PATT
	 .word	mus_th_crazy_backup_dancers_13_137
@ 162   ----------------------------------------
	.byte	PATT
	 .word	mus_th_crazy_backup_dancers_13_138
@ 163   ----------------------------------------
	.byte	PATT
	 .word	mus_th_crazy_backup_dancers_13_147
@ 164   ----------------------------------------
	.byte	PATT
	 .word	mus_th_crazy_backup_dancers_13_140
@ 165   ----------------------------------------
	.byte	PATT
	 .word	mus_th_crazy_backup_dancers_13_149
@ 166   ----------------------------------------
	.byte		N24   , Bn4 , v100
	.byte	W24
	.byte		        Cn4 
	.byte	W24
	.byte		        As3 
	.byte	W24
	.byte		        Bn4 
	.byte	W24
@ 167   ----------------------------------------
	.byte		        Cn5 
	.byte	W24
	.byte		        Fn4 
	.byte	W24
	.byte		        En4 
	.byte	W24
	.byte		        As4 
	.byte	W24
@ 168   ----------------------------------------
	.byte		        Cn5 
	.byte	W24
	.byte		        Fn4 
	.byte	W24
	.byte		        En4 
	.byte	W24
	.byte		        Dn5 
	.byte	W24
	.byte	GOTO
	 .word	mus_th_crazy_backup_dancers_13_B1
mus_th_crazy_backup_dancers_13_B2:
@ 169   ----------------------------------------
mus_th_crazy_backup_dancers_13_169:
	.byte		N24   , Cn4 , v100
	.byte		N24   , Cn5 
	.byte	W24
	.byte		        Ds3 
	.byte		N24   , Ds4 
	.byte	W24
	.byte		        Dn3 
	.byte		N24   , Dn4 
	.byte	W24
	.byte		        Bn3 
	.byte		N24   , Bn4 
	.byte	W24
	.byte	PEND
@ 170   ----------------------------------------
mus_th_crazy_backup_dancers_13_170:
	.byte		N24   , As3 , v100
	.byte		N24   , As4 
	.byte	W24
	.byte		        Cs3 
	.byte		N24   , Cs4 
	.byte	W24
	.byte		        Cn3 
	.byte		N24   , Cn4 
	.byte	W24
	.byte		        An3 
	.byte		N24   , An4 
	.byte	W24
	.byte	PEND
@ 171   ----------------------------------------
mus_th_crazy_backup_dancers_13_171:
	.byte		N24   , Gs3 , v100
	.byte		N24   , Gs4 
	.byte	W24
	.byte		        Bn2 
	.byte		N24   , Bn3 
	.byte	W24
	.byte		        As2 
	.byte		N24   , As3 
	.byte	W24
	.byte		        Gn3 
	.byte		N24   , Gn4 
	.byte	W24
	.byte	PEND
@ 172   ----------------------------------------
mus_th_crazy_backup_dancers_13_172:
	.byte		N24   , Fs3 , v100
	.byte		N24   , Fs4 
	.byte	W24
	.byte		        An2 
	.byte		N24   , An3 
	.byte	W24
	.byte		        Gs2 
	.byte		N24   , Gs3 
	.byte	W24
	.byte		        Fn3 
	.byte		N24   , Fn4 
	.byte	W24
	.byte	PEND
@ 173   ----------------------------------------
	.byte	PATT
	 .word	mus_th_crazy_backup_dancers_13_169
@ 174   ----------------------------------------
	.byte	PATT
	 .word	mus_th_crazy_backup_dancers_13_170
@ 175   ----------------------------------------
	.byte	PATT
	 .word	mus_th_crazy_backup_dancers_13_171
@ 176   ----------------------------------------
	.byte	PATT
	 .word	mus_th_crazy_backup_dancers_13_172
@ 177   ----------------------------------------
	.byte	PATT
	 .word	mus_th_crazy_backup_dancers_13_169
@ 178   ----------------------------------------
	.byte	PATT
	 .word	mus_th_crazy_backup_dancers_13_170
@ 179   ----------------------------------------
	.byte	PATT
	 .word	mus_th_crazy_backup_dancers_13_171
@ 180   ----------------------------------------
	.byte	PATT
	 .word	mus_th_crazy_backup_dancers_13_172
@ 181   ----------------------------------------
	.byte		N24   , Cn3 , v100
	.byte		N24   , Cn4 
	.byte	W24
	.byte		        En3 
	.byte		N24   , En4 
	.byte	W24
	.byte		        Fs3 
	.byte		N24   , Fs4 
	.byte	W24
	.byte		        An3 
	.byte		N24   , An4 
	.byte	W24
@ 182   ----------------------------------------
	.byte		        Cn4 
	.byte		N24   , Cn5 
	.byte	W24
	.byte		        En4 
	.byte		N24   , En5 
	.byte	W24
	.byte		        Fs4 
	.byte		N24   , Fs5 
	.byte	W24
	.byte		        An4 
	.byte		N24   , An5 
	.byte	W24
@ 183   ----------------------------------------
mus_th_crazy_backup_dancers_13_183:
	.byte		TIE   , Bn4 , v100
	.byte		TIE   , Bn5 
	.byte	W96
	.byte	PEND
@ 184   ----------------------------------------
	.byte	W24
	.byte		EOT   , Bn4 
	.byte		        Bn5 
	.byte		N06   , As4 , v060
	.byte		N06   , As5 
	.byte	W06
	.byte		        An4 
	.byte		N06   , An5 
	.byte	W06
	.byte		        Gs4 
	.byte		N06   , Gs5 
	.byte	W06
	.byte		        Gn4 
	.byte		N06   , Gn5 
	.byte	W36
	.byte		        Gs4 , v100
	.byte		N06   , Gs5 
	.byte	W06
	.byte		        An4 
	.byte		N06   , An5 
	.byte	W06
	.byte		        As4 
	.byte		N06   , As5 
	.byte	W06
@ 185   ----------------------------------------
	.byte	PATT
	 .word	mus_th_crazy_backup_dancers_13_183
@ 186   ----------------------------------------
	.byte	W96
@ 187   ----------------------------------------
	.byte	W96
@ 188   ----------------------------------------
	.byte	W96
	.byte		EOT   , Bn4 
	.byte		        Bn5 
@ 189   ----------------------------------------
	.byte	FINE

@******************************************************@
	.align	2

mus_th_crazy_backup_dancers:
	.byte	13	@ NumTrks
	.byte	0	@ NumBlks
	.byte	mus_th_crazy_backup_dancers_pri	@ Priority
	.byte	mus_th_crazy_backup_dancers_rev	@ Reverb.

	.word	mus_th_crazy_backup_dancers_grp

	.word	mus_th_crazy_backup_dancers_1
	.word	mus_th_crazy_backup_dancers_2
	.word	mus_th_crazy_backup_dancers_3
	.word	mus_th_crazy_backup_dancers_4
	.word	mus_th_crazy_backup_dancers_5
	.word	mus_th_crazy_backup_dancers_6
	.word	mus_th_crazy_backup_dancers_7
	.word	mus_th_crazy_backup_dancers_8
	.word	mus_th_crazy_backup_dancers_9
	.word	mus_th_crazy_backup_dancers_10
	.word	mus_th_crazy_backup_dancers_11
	.word	mus_th_crazy_backup_dancers_12
	.word	mus_th_crazy_backup_dancers_13

	.end
